<?xml version="1.0" encoding="utf-8"?>
<!-- Generator: Adobe Illustrator 18.1.1, SVG Export Plug-In . SVG Version: 6.00 Build 0)  -->
<svg version="1.1" id="Layer_1" xmlns="http://www.w3.org/2000/svg" xmlns:xlink="http://www.w3.org/1999/xlink" x="0px" y="0px"
	 viewBox="31.5 272 472.1 240" enable-background="new 31.5 272 472.1 240" xml:space="preserve">
<g>
	<g>
		<path fill="#7AB800" d="M296.7,372.4c-5.4,0-9-3.8-9-8.8c0-5,3.6-8.8,9-8.8c5.3,0,8.9,3.8,8.9,8.8
			C305.6,368.5,302,372.4,296.7,372.4z M296.7,358.1c-3.1,0-4.9,2.1-4.9,5.5c0,3.5,1.8,5.5,4.9,5.5s4.8-2,4.8-5.5
			C301.5,360.2,299.7,358.1,296.7,358.1z"/>
		<path fill="#7AB800" d="M316.7,366.5v5.8h-4V355h6.1c4.8,0,6.9,2.4,6.9,5.6c0,3.4-2.2,5.8-6.9,5.8H316.7z M316.7,363.4h2.1
			c2.1,0,2.9-1,2.9-2.8c0-1.6-0.9-2.6-2.9-2.6h-2.1V363.4z"/>
		<path fill="#7AB800" d="M344.1,355v3.1H337v4h5.4v3H337v4.1h7.1v3.1H333V355C333,355,344.1,355,344.1,355z"/>
		<path fill="#7AB800" d="M355.9,355.6l8.2,10.3c-0.1-0.7-0.1-1.3-0.1-1.8v-9.1h3.5v17.2h-2.1c-0.6,0-1-0.2-1.4-0.7l-8.1-10.3
			c0,0.6,0.1,1.2,0.1,1.7v9.2h-3.5v-17.2h2.1C355.3,355,355.5,355.1,355.9,355.6z"/>
	</g>
	<g>
		<path fill="#7AB800" d="M292.6,393.9h0.6c0.6,0,1-0.2,1.3-0.5l3.9-5.6c0.4-0.6,0.9-0.8,1.7-0.8h3.5l-5.1,7c-0.4,0.5-0.8,0.8-1.2,1
			c0.6,0.2,1.1,0.6,1.5,1.2l5.2,8h-3.6c-0.9,0-1.2-0.3-1.6-0.7l-3.9-6c-0.3-0.4-0.7-0.6-1.4-0.6h-1v7.3h-4v-17.2h4L292.6,393.9
			L292.6,393.9z"/>
		<path fill="#7AB800" d="M315,387.5l8.2,10.3c-0.1-0.7-0.1-1.3-0.1-1.8v-9.1h3.5v17.2h-2.1c-0.6,0-1-0.2-1.4-0.7l-8.1-10.3
			c0,0.6,0.1,1.2,0.1,1.7v9.2h-3.5v-17.2h2.1C314.4,386.9,314.6,387,315,387.5z"/>
		<path fill="#7AB800" d="M343.2,404.3c-5.4,0-9-3.8-9-8.8s3.6-8.8,9-8.8c5.3,0,8.9,3.8,8.9,8.8
			C352.2,400.5,348.6,404.3,343.2,404.3z M343.2,390c-3.1,0-4.9,2.1-4.9,5.5c0,3.5,1.8,5.5,4.9,5.5s4.8-2,4.8-5.5
			C348.1,392.1,346.3,390,343.2,390z"/>
		<path fill="#7AB800" d="M356.6,386.9h3.4c0.7,0,1.2,0.3,1.3,0.9l2.4,9c0.2,0.6,0.3,1.2,0.4,2c0.2-0.7,0.3-1.4,0.5-2l2.8-9
			c0.1-0.4,0.6-0.9,1.3-0.9h1.2c0.7,0,1.1,0.3,1.3,0.9l2.8,9c0.2,0.5,0.4,1.2,0.5,1.9c0.1-0.7,0.3-1.3,0.4-1.9l2.4-9
			c0.1-0.5,0.6-0.9,1.3-0.9h3.1l-5.3,17.2h-3.6l-3.2-10.7c-0.1-0.3-0.2-0.7-0.3-1.2c-0.1,0.4-0.2,0.8-0.3,1.2l-3.3,10.7h-3.6
			L356.6,386.9z"/>
		<path fill="#7AB800" d="M392.8,400.9h6.4v3.2h-10.4v-17.2h4V400.9z"/>
		<path fill="#7AB800" d="M418.8,386.9v3.1h-7.1v4h5.4v3h-5.4v4.1h7.1v3.1h-11.1v-17.2H418.8z"/>
		<path fill="#7AB800" d="M433.8,404.1h-6.7v-17.2h6.7c5.3,0,8.9,3.7,8.9,8.6C442.8,400.5,439.2,404.1,433.8,404.1z M433.8,390h-2.7
			v11.1h2.7c3.1,0,4.8-2.1,4.8-5.5C438.7,392.1,436.9,390,433.8,390z"/>
		<path fill="#7AB800" d="M460.7,400.7v-2.6H459c-0.5,0-0.8-0.3-0.8-0.7v-2.2h6.1v7.3c-1.7,1.3-3.8,1.8-6.6,1.8
			c-5,0-8.8-3.8-8.8-8.8c0-5.1,3.6-8.8,9.1-8.8c2.9,0,5,1,6.4,2.3l-1.1,1.7c-0.2,0.3-0.5,0.5-0.9,0.5c-0.2,0-0.5-0.1-0.7-0.2
			c-1.3-0.8-2.2-1.1-3.8-1.1c-3,0-4.9,2.2-4.9,5.5c0,3.7,2.1,5.7,5,5.7C459.1,401.3,459.9,401.1,460.7,400.7z"/>
		<path fill="#7AB800" d="M483.5,386.9v3.1h-7.1v4h5.4v3h-5.4v4.1h7.1v3.1h-11.1v-17.2H483.5z"/>
	</g>
	<g>
		<path fill="#7AB800" d="M296.8,434.4c0.4,0,0.9,0,1.3-0.1c0.4,0,0.7-0.1,1.1-0.2c0.3-0.1,0.7-0.2,1-0.3s0.6-0.3,0.9-0.4v-3.8h-2.6
			c-0.2,0-0.3,0-0.3-0.1s-0.1-0.2-0.1-0.3v-1.3h5.2v6.5c-0.4,0.3-0.9,0.6-1.3,0.8c-0.5,0.2-1,0.4-1.5,0.6c-0.5,0.2-1.1,0.3-1.7,0.3
			c-0.6,0.1-1.2,0.1-1.9,0.1c-1.2,0-2.4-0.2-3.4-0.6c-1-0.4-1.9-1-2.6-1.8c-0.7-0.8-1.3-1.7-1.7-2.7c-0.4-1-0.6-2.2-0.6-3.5
			c0-1.3,0.2-2.5,0.6-3.5s1-2,1.7-2.7c0.8-0.8,1.7-1.3,2.7-1.8s2.3-0.6,3.6-0.6c0.7,0,1.3,0.1,1.9,0.2s1.1,0.3,1.6,0.4
			c0.5,0.2,1,0.4,1.4,0.7c0.4,0.3,0.8,0.6,1.2,0.9l-0.6,1c-0.1,0.2-0.3,0.3-0.5,0.3c-0.1,0-0.3,0-0.4-0.1c-0.2-0.1-0.4-0.3-0.7-0.4
			s-0.5-0.3-0.9-0.4s-0.8-0.3-1.2-0.4c-0.5-0.1-1-0.2-1.7-0.2c-1,0-1.8,0.2-2.6,0.5s-1.4,0.8-2,1.3c-0.5,0.6-1,1.3-1.2,2.1
			c-0.3,0.8-0.4,1.7-0.4,2.8c0,1.1,0.2,2,0.4,2.9c0.3,0.8,0.7,1.6,1.3,2.1c0.5,0.6,1.2,1,2,1.3C295.2,434.2,295.9,434.4,296.8,434.4
			z"/>
		<path fill="#7AB800" d="M316.2,429v7.1h-2.3v-16.9h4.8c1.1,0,2,0.1,2.8,0.3c0.8,0.2,1.4,0.5,1.9,1c0.5,0.4,0.9,0.9,1.1,1.5
			c0.3,0.6,0.4,1.2,0.4,1.9c0,0.6-0.1,1.1-0.3,1.7c-0.2,0.5-0.5,1-0.8,1.4c-0.3,0.4-0.8,0.8-1.3,1c-0.5,0.3-1.1,0.5-1.7,0.7
			c0.3,0.2,0.5,0.4,0.8,0.7l4.9,6.7h-2c-0.4,0-0.7-0.2-0.9-0.5l-4.4-6c-0.1-0.2-0.3-0.3-0.4-0.4c-0.2-0.1-0.4-0.1-0.7-0.1L316.2,429
			L316.2,429z M316.2,427.3h2.4c0.7,0,1.3-0.1,1.8-0.3c0.5-0.2,0.9-0.4,1.3-0.7c0.3-0.3,0.6-0.6,0.8-1c0.2-0.4,0.3-0.9,0.3-1.4
			c0-1-0.3-1.8-1-2.3c-0.7-0.5-1.7-0.8-3-0.8h-2.5L316.2,427.3L316.2,427.3z"/>
		<path fill="#7AB800" d="M346.4,419.1v1.9h-8.1v5.6h6.6v1.8h-6.6v5.8h8.1v1.9H336v-16.9L346.4,419.1L346.4,419.1z"/>
		<path fill="#7AB800" d="M367.3,419.1v1.9h-8.1v5.6h6.6v1.8h-6.6v5.8h8.1v1.9h-10.4v-16.9L367.3,419.1L367.3,419.1z"/>
		<path fill="#7AB800" d="M389.6,432.6c0.1,0,0.3,0.1,0.3,0.2l0.9,1c-0.7,0.8-1.5,1.4-2.5,1.9s-2.2,0.7-3.6,0.7
			c-1.2,0-2.3-0.2-3.3-0.6c-1-0.4-1.8-1-2.5-1.8c-0.7-0.8-1.2-1.7-1.6-2.7c-0.4-1-0.6-2.2-0.6-3.5s0.2-2.4,0.6-3.5
			c0.4-1,1-2,1.7-2.7c0.8-0.8,1.7-1.4,2.7-1.8c1-0.4,2.2-0.6,3.5-0.6c1.2,0,2.3,0.2,3.2,0.6c0.9,0.4,1.7,0.9,2.4,1.6l-0.7,1
			c-0.1,0.1-0.1,0.2-0.2,0.2c-0.1,0.1-0.2,0.1-0.3,0.1c-0.1,0-0.2,0-0.3-0.1s-0.3-0.2-0.4-0.3c-0.2-0.1-0.3-0.2-0.5-0.3
			c-0.2-0.1-0.5-0.3-0.8-0.3s-0.6-0.2-1-0.3c-0.4-0.1-0.8-0.1-1.3-0.1c-0.9,0-1.7,0.2-2.5,0.5c-0.8,0.3-1.4,0.8-1.9,1.3
			c-0.5,0.6-1,1.3-1.3,2.1c-0.3,0.8-0.4,1.7-0.4,2.8c0,1,0.2,2,0.4,2.8c0.3,0.8,0.7,1.5,1.2,2.1c0.5,0.6,1.1,1,1.9,1.3
			c0.7,0.3,1.5,0.4,2.3,0.4c0.5,0,1,0,1.4-0.1c0.4-0.1,0.8-0.2,1.1-0.3c0.3-0.1,0.7-0.3,1-0.5c0.3-0.2,0.6-0.4,0.9-0.7
			C389.4,432.6,389.5,432.6,389.6,432.6z"/>
		<path fill="#7AB800" d="M411.4,419.1v1.9h-8.1v5.6h6.6v1.8h-6.6v5.8h8.1v1.9H401v-16.9L411.4,419.1L411.4,419.1z"/>
	</g>
	
		<rect x="217.5" y="290" transform="matrix(-0.8011 -0.5985 0.5985 -0.8011 207.6707 704.3766)" fill="#7AB800" width="6.7" height="55.3"/>
	
		<rect x="196.6" y="308.2" transform="matrix(-0.8951 -0.4459 0.4459 -0.8951 235.4639 698.4382)" fill="#7AB800" width="6.7" height="26.6"/>
	
		<rect x="185.1" y="287.9" transform="matrix(-0.9603 -0.2789 0.2789 -0.9603 283.2292 658.0443)" fill="#7AB800" width="6.7" height="41.9"/>
	<polygon fill="#7AB800" points="174,327 167.3,326.3 170.1,299.8 176.7,300.5 	"/>
	<polygon fill="#7AB800" points="155.1,326.7 152.8,297 159.5,296.5 161.8,326.2 	"/>
	<polygon fill="#7AB800" points="143.2,329.3 138,309.6 144.5,307.9 149.7,327.6 	"/>
	
		<rect x="125.2" y="323.1" transform="matrix(-0.4219 -0.9066 0.9066 -0.4219 -108.1619 583.8641)" fill="#7AB800" width="13.7" height="6.7"/>
	<polygon fill="#7AB800" points="121.7,340.6 118.6,336.3 124,332.4 127.1,336.8 	"/>
	<polygon fill="#7AB800" points="112.8,349 97.1,333.6 101.8,328.9 117.4,344.2 	"/>
	<polygon fill="#7AB800" points="105.5,358.8 81.3,342.2 85,336.7 109.2,353.3 	"/>
	<polygon fill="#7AB800" points="100.1,369.8 84.8,363 87.5,356.9 102.8,363.7 	"/>
	<polygon fill="#7AB800" points="51.5,370.6 96.7,381.5 98.3,375 53.1,364.1 	"/>
	
		<rect x="61.9" y="386" transform="matrix(-0.9983 -5.814029e-002 5.814029e-002 -0.9983 134.8827 782.5916)" fill="#7AB800" width="33.8" height="6.7"/>
	
		<rect x="76.4" y="388" transform="matrix(-0.1209 -0.9927 0.9927 -0.1209 -312.1515 532.543)" fill="#7AB800" width="6.7" height="32.9"/>
	
		<rect x="91.6" y="411.7" transform="matrix(-0.2964 -0.9551 0.9551 -0.2964 -273.7802 629.4152)" fill="#7AB800" width="6.7" height="7.7"/>
	
		<rect x="87.6" y="418.3" transform="matrix(-0.462 -0.8869 0.8869 -0.462 -250.2331 712.419)" fill="#7AB800" width="6.7" height="27.7"/>
	
		<rect x="94.7" y="430.2" transform="matrix(-0.613 -0.7901 0.7901 -0.613 -193.5808 795.4458)" fill="#7AB800" width="6.7" height="29.9"/>
	
		<rect x="105.1" y="441.2" transform="matrix(-0.7443 -0.6678 0.6678 -0.7443 -115.1813 867.3648)" fill="#7AB800" width="6.7" height="29.1"/>
	
		<rect x="121" y="451.2" transform="matrix(-0.8516 -0.5242 0.5242 -0.8516 -9.7518 913.1041)" fill="#7AB800" width="6.7" height="13.4"/>
	<polygon fill="#7AB800" points="132.4,483.3 126.2,480.8 135.7,456.4 141.9,458.9 	"/>
	
		<rect x="144.9" y="460.8" transform="matrix(-0.9815 -0.1916 0.1916 -0.9815 203.1106 965.3571)" fill="#7AB800" width="6.7" height="24"/>
	<polygon fill="#7AB800" points="165.8,479.1 159.1,479 159.3,462.3 166,462.4 	"/>
	<polygon fill="#7AB800" points="176.9,493.8 171.5,462 178.1,460.8 183.5,492.7 	"/>
	
		<rect x="180.2" y="464.1" transform="matrix(-0.3389 -0.9408 0.9408 -0.3389 -185.499 804.6158)" fill="#7AB800" width="19.5" height="6.7"/>
	<polygon fill="#7AB800" points="194.8,454.8 219,496.2 224.8,492.8 200.6,451.5 	"/>
	<polygon fill="#7AB800" points="208.9,452.2 205.2,448.4 210.1,443.8 213.8,447.6 	"/>
	<polygon fill="#7AB800" points="230.7,453.7 214.1,440 218.3,434.8 235,448.5 	"/>
	<polygon fill="#7AB800" points="238.5,439.7 221.4,430.3 224.7,424.5 241.7,433.9 	"/>
	<polygon fill="#7AB800" points="235.1,422.2 226.9,419.4 229.1,413 237.3,415.8 	"/>
	
		<rect x="230.7" y="402.9" transform="matrix(-0.9891 -0.1474 0.1474 -0.9891 424.9394 844.0563)" fill="#7AB800" width="26" height="6.7"/>
	<polygon fill="#7AB800" points="231.7,395.5 231.5,388.9 248,388.3 248.2,395 	"/>
	
		<rect x="237" y="367.4" transform="matrix(-0.2096 -0.9778 0.9778 -0.2096 -78.7767 692.0856)" fill="#7AB800" width="6.7" height="20.9"/>
	<polygon fill="#7AB800" points="227.8,371.5 225.2,365.3 238.4,359.9 241,366.1 	"/>
	<polygon fill="#7AB800" points="222.7,360.4 219.1,354.8 254,332.4 257.6,338.1 	"/>
	<polygon fill="#7AB800" points="215.7,350.4 211.2,345.5 216.4,340.6 221,345.5 	"/>
	<g>
		<path fill="#FF0000" d="M176,388c-0.6-0.5-1.6-0.8-3-0.8H171v6.6h2.1c0.7,0,1.3-0.1,1.8-0.3c0.5-0.2,0.9-0.4,1.2-0.7
			c0.3-0.3,0.5-0.7,0.7-1.1c0.1-0.4,0.2-0.9,0.2-1.4C177,389.3,176.7,388.6,176,388z"/>
		<path fill="#FF0000" d="M205.6,395.6l-0.2-4.9l-14.8,0.4l14.5-3.1l-1-4.8l-14.5,3.1l13.7-5.6l-1.8-4.5l-13.7,5.6l12.5-8l-2.6-4.1
			l-12.5,8l10.9-10.1l-3.3-3.6l-10.8,10.1l8.9-11.9l-3.9-2.9l-8.9,11.9l6.6-13.3l-4.4-2.2l-6.6,13.3l4.2-14.2l-4.7-1.4l-4.2,14.2
			l1.6-14.7l-4.9-0.5l-1.6,15.3l-1.2-15.3l-4.9,0.4l1.1,14.8l-3.7-14.4l-4.7,1.2l3.8,14.4l-6.3-13.4l-4.4,2.1l6.3,13.4l-8.6-12.1
			l-4,2.8l8.6,12.1l-10.6-10.4l-3.4,3.5l10.6,10.4l-12.3-8.3l-2.7,4.1l12.3,8.3l-13.6-6l-2,4.5l13.6,6l-14.4-3.5l-1.1,4.8l14.4,3.5
			l-14.8-0.9l-0.3,4.9l14.8,0.9l-14.7,1.8l0.6,4.9l14.7-1.8l-14.2,4.4l1.5,4.7l14.2-4.4l-13.2,6.9l2.3,4.4l13.2-6.9l-11.8,9.1l3,3.9
			l11.7-9.1l-9.9,11.1l3.7,3.3l9.9-11.1l-7.8,12.6l4.2,2.6l7.8-12.6l-5.4,13.8l4.5,1.8l5.4-13.8l-2.8,14.6l4.8,1l2.8-14.6l-0.2,14.8
			l4.9,0.1l0.2-14.8l2.4,14.7l4.8-0.8l-2.4-14.6l5,14l4.6-1.7l-5-14l7.4,12.8l4.2-2.4l-7.4-12.8l9.6,11.3l3.7-3.2l-9.6-11.3
			l11.5,9.4l3.1-3.8L186,410l13,7.2l2.4-4.3l-13-7.2l14,4.8l1.6-4.6l-14-4.8l14.7,2.2l0.7-4.8l-14.7-2.3L205.6,395.6z M148.6,397.6
			c0.3,0.9,0.8,1.7,1.3,2.3s1.3,1.1,2,1.4c0.8,0.3,1.7,0.5,2.6,0.5c0.7,0,1.3-0.1,1.9-0.2c0.5-0.1,1.1-0.3,1.6-0.5v-3.4h-2.2
			c-0.3,0-0.6-0.1-0.8-0.3c-0.2-0.2-0.3-0.4-0.3-0.7v-2.8h7.9v9.4c-0.6,0.4-1.2,0.8-1.8,1.1c-0.6,0.3-1.3,0.5-2,0.7
			c-0.7,0.2-1.4,0.3-2.2,0.4c-0.8,0.1-1.6,0.1-2.5,0.1c-1.6,0-3.1-0.3-4.5-0.9c-1.4-0.6-2.6-1.4-3.6-2.4c-1-1-1.8-2.2-2.4-3.6
			c-0.6-1.4-0.9-2.9-0.9-4.5c0-1.7,0.3-3.2,0.8-4.6s1.3-2.6,2.4-3.6c1-1,2.3-1.8,3.7-2.4c1.5-0.6,3.1-0.8,4.9-0.8
			c0.9,0,1.8,0.1,2.6,0.2c0.8,0.2,1.6,0.3,2.3,0.6c0.7,0.3,1.3,0.6,1.9,1s1.1,0.8,1.5,1.2l-1.5,2.3c-0.1,0.2-0.3,0.4-0.5,0.5
			c-0.2,0.1-0.4,0.2-0.6,0.2c-0.3,0-0.6-0.1-1-0.3c-0.4-0.3-0.8-0.4-1.1-0.6s-0.7-0.3-1.1-0.4c-0.4-0.1-0.8-0.2-1.2-0.3
			c-0.4-0.1-0.9-0.1-1.4-0.1c-1,0-1.8,0.2-2.6,0.5s-1.4,0.8-2,1.4c-0.5,0.6-1,1.4-1.3,2.2c-0.3,0.9-0.4,1.8-0.4,2.9
			C148.1,395.6,148.3,396.7,148.6,397.6z M179.4,405.6c-0.9,0-1.5-0.3-1.9-1l-3.7-6.5c-0.2-0.3-0.3-0.5-0.6-0.6
			c-0.2-0.1-0.5-0.2-0.9-0.2H171v8.2h-5.1v-22.2h7.2c1.6,0,3,0.2,4.1,0.5c1.1,0.3,2.1,0.8,2.8,1.4c0.7,0.6,1.2,1.3,1.6,2.1
			c0.3,0.8,0.5,1.7,0.5,2.6c0,0.7-0.1,1.4-0.3,2c-0.2,0.6-0.5,1.2-0.9,1.8c-0.4,0.5-0.9,1-1.4,1.5s-1.2,0.8-1.9,1
			c0.3,0.2,0.7,0.4,1,0.6s0.6,0.6,0.8,0.9l4.7,7.7L179.4,405.6L179.4,405.6z"/>
	</g>
</g>
</svg>
