<?xml version="1.0" encoding="utf-8"?>
<!-- Generator: Adobe Illustrator 21.0.0, SVG Export Plug-In . SVG Version: 6.00 Build 0)  -->
<svg version="1.1" id="Layer_1" xmlns="http://www.w3.org/2000/svg" xmlns:xlink="http://www.w3.org/1999/xlink" x="0px" y="0px"
	 viewBox="0 0 117 119" style="enable-background:new 0 0 117 119;" xml:space="preserve">
<style type="text/css">
	.st0{fill:#63B168;}
	.st1{fill:#FEDB30;}
</style>
<title>Group 25</title>
<desc>Created with Sketch.</desc>
<g id="Page-1">
	<g id="Upload" transform="translate(-483.000000, -1390.000000)">
		<g id="Group-25" transform="translate(483.000000, 1390.000000)">
			<rect id="Rectangle-24" y="0" class="st0" width="8" height="119"/>
			<path id="Rectangle-26" class="st1" d="M19,9h75c3.3,0,6,2.7,6,6l0,0c0,3.3-2.7,6-6,6H19c-3.3,0-6-2.7-6-6l0,0
				C13,11.7,15.7,9,19,9z"/>
			<path id="Rectangle-26_1_" class="st1" d="M19,31h75c3.3,0,6,2.7,6,6l0,0c0,3.3-2.7,6-6,6H19c-3.3,0-6-2.7-6-6l0,0
				C13,33.7,15.7,31,19,31z"/>
			<path id="Rectangle-26_2_" class="st1" d="M19,53h75c3.3,0,6,2.7,6,6l0,0c0,3.3-2.7,6-6,6H19c-3.3,0-6-2.7-6-6l0,0
				C13,55.7,15.7,53,19,53z"/>
			<path id="Rectangle-26_3_" class="st1" d="M19,75h75c3.3,0,6,2.7,6,6l0,0c0,3.3-2.7,6-6,6H19c-3.3,0-6-2.7-6-6l0,0
				C13,77.7,15.7,75,19,75z"/>
			<path id="Rectangle-26_4_" class="st1" d="M19,96h75c3.3,0,6,2.7,6,6l0,0c0,3.3-2.7,6-6,6H19c-3.3,0-6-2.7-6-6l0,0
				C13,98.7,15.7,96,19,96z"/>
		</g>
	</g>
</g>
</svg>
