<?xml version="1.0" encoding="utf-8"?>
<!-- Generator: Adobe Illustrator 21.0.0, SVG Export Plug-In . SVG Version: 6.00 Build 0)  -->
<svg version="1.1" id="Layer_1" xmlns="http://www.w3.org/2000/svg" xmlns:xlink="http://www.w3.org/1999/xlink" x="0px" y="0px"
	 viewBox="0 0 595.3 468.3" style="enable-background:new 0 0 595.3 468.3;" xml:space="preserve">
<style type="text/css">
	.st0{fill:none;stroke:#68C56E;stroke-linecap:square;}
	.st1{fill:none;stroke:#FFFFFF;stroke-linecap:square;}
	.st2{fill:#F79801;}
	.st3{fill:#FFF100;}
	.st4{fill:none;stroke:#C1F3C4;stroke-linecap:square;}
	.st5{fill:none;stroke:#FFFFFF;stroke-width:2;stroke-linecap:round;stroke-linejoin:round;}
	.st6{fill:none;stroke:#C1F3C4;stroke-width:2;stroke-linecap:round;stroke-linejoin:round;stroke-dasharray:1,3;}
	.st7{fill:#DD4B39;}
</style>
<g id="Group.-5.-Copy" transform="matrix(1,0,0,1,1.01008,1.70999)">
	<path id="Line" class="st0" d="M90.8,51.6v358.8"/>
	<path id="Line1" class="st0" d="M13.3,51.6v358.8"/>
	<path id="Line.-Copy" class="st0" d="M13.3,51.6v358.8"/>
	<path id="Line2" class="st0" d="M182.9,51.6v358.8"/>
	<path id="Line3" class="st0" d="M271,51.6v358.8"/>
	<path id="Line4" class="st0" d="M359.1,51.6v358.8"/>
	<path id="Line5" class="st0" d="M447.1,51.6v358.8"/>
	<path id="Line6" class="st0" d="M535.2,51.6v358.8"/>
	<g id="Group.-4">
		<g id="Group.-3">
			<path id="Line7" class="st1" d="M7.4,50.9v361.2"/>
			<path id="Path.-2_1_" class="st2" d="M84.4,191.4l59.8-40.4l48.9,40.4l69.3-9.6l60.5,67.4l71.8-17.7l-2,180l-384,2.4V204.8
				l26.2,26.7"/>
			<path id="Path.-21" class="st3" d="M486.9,287.1l98.9-9.9v134.2L392,412.8l3-180.6L486.9,287.1z"/>
			<path id="Line8" class="st4" d="M584.7,412.2H393.2"/>
			<path id="Line9" class="st1" d="M390.4,412.2H7.4"/>
		</g>
		<path id="Path.-3_2_" class="st5" d="M394.7,231.3"/>
		<path id="Path.-3_4_" class="st5" d="M260.9,180.3"/>
		<path id="Path.-3_1_" class="st5" d="M143,152"/>
		<path id="Path.-3_3_" class="st5" d="M9.3,204.4l24.3,25.9"/>
		<path id="Path.-4_2_" class="st6" d="M391.4,228"/>
		<path id="Path.-4_1_" class="st6" d="M580.2,277.2"/>
	</g>
	<path id="Path.-5" class="st7" d="M5.3,351.7l64.6-77.4l59.8,15.7l47.4-32.6l75.3,103.2l46.1-33.5l91.8,28.1l94.5-35.4l60.4,53.4
		l39.1-40.2l-3.9,78.1l-577.3,2L5.3,351.7z"/>
</g>
</svg>
