<?xml version="1.0" encoding="UTF-8"?>
<svg width="115px" height="155px" viewBox="0 0 115 155" version="1.1" xmlns="http://www.w3.org/2000/svg" xmlns:xlink="http://www.w3.org/1999/xlink">
    <!-- Generator: Sketch 45.2 (43514) - http://www.bohemiancoding.com/sketch -->
    <title>Group 13</title>
    <desc>Created with Sketch.</desc>
    <defs></defs>
    <g id="Page-1" stroke="none" stroke-width="1" fill="none" fill-rule="evenodd">
        <g id="Upload" transform="translate(-937.000000, -1479.000000)">
            <g id="Group-13" transform="translate(937.000000, 1479.000000)">
                <path d="M11,19 C13.7614237,19 16,7.76142375 16,5 C16,2.23857625 13.7614237,0 11,0 C8.23857625,0 6,2.23857625 6,5 C6,7.76142375 8.23857625,19 11,19 Z" id="Oval-4" fill="#5DA962"></path>
                <path d="M2,107 C3.3030573,133.729045 25.3870789,155 52.4391983,155 C79.4913177,155 101.575339,133.729045 102.878397,107 L2,107 Z" id="Combined-Shape" fill="#C8F3CB"></path>
                <path d="M41.2470703,65.1388672 C46.3540862,65.1388672 50.4941406,44.3540862 50.4941406,39.2470703 C50.4941406,34.1400544 46.3540862,30 41.2470703,30 C36.1400544,30 32,34.1400544 32,39.2470703 C32,44.3540862 36.1400544,65.1388672 41.2470703,65.1388672 Z" id="Oval-4" fill="#5DA962"></path>
                <path d="M12,94 C14.7614237,94 17,82.7614237 17,80 C17,77.2385763 14.7614237,75 12,75 C9.23857625,75 7,77.2385763 7,80 C7,82.7614237 9.23857625,94 12,94 Z" id="Oval-4" fill="#5DA962" transform="translate(12.000000, 84.500000) scale(1, -1) translate(-12.000000, -84.500000) "></path>
                <rect id="Rectangle-15" fill="#C8F3CB" x="0" y="17" width="12" height="61"></rect>
                <path d="M39,153.302877 C43.1569448,154.409939 47.5247648,155 52.0304009,155 C79.0825203,155 101.166542,133.729045 102.469599,107 L76.4087974,107 C75.3227694,129.277218 59.8016103,147.76307 39,153.302877 Z" id="Combined-Shape" fill="#ADE3B1"></path>
                <rect id="Rectangle-15" fill="#89DB8E" x="12" y="17" width="12" height="61"></rect>
                <polygon id="Rectangle-16" fill="#76D07C" points="72.0019531 64 104.001953 64 114.355469 64 114.355469 79.7304688 110.367188 79.7304688 104.001953 72.1816406 104.001953 101 72.0019531 101 72.0019531 82.5117188 60 64"></polygon>
                <path d="M90,93 L79.9257812,93" id="Path-14" stroke="#5DA962" stroke-width="2"></path>
                <path d="M86,89 L79.9257812,89" id="Path-14" stroke="#5DA962" stroke-width="2"></path>
                <path d="M86,85 L79.9257812,85" id="Path-14" stroke="#5DA962" stroke-width="2"></path>
                <path d="M86,77 L79.9257812,77" id="Path-14" stroke="#5DA962" stroke-width="2"></path>
                <path d="M86,73 L79.9257812,73" id="Path-14" stroke="#5DA962" stroke-width="2"></path>
                <path d="M91,81 L79.9257812,81" id="Path-14" stroke="#5DA962" stroke-width="2"></path>
                <path d="M79.9257812,72 L79.9257812,94" id="Path-14" stroke="#5DA962" stroke-width="2"></path>
                <path d="M41.3359375,62.7265625 C35.3961589,76.7952474 32.3989258,87.3162435 32.3442383,94.2895508 C32.2895508,101.262858 35.2867839,109.624674 41.3359375,119.375" id="Path-16" stroke="#5DA962" stroke-width="2"></path>
                <path d="M41.1572266,61.3164062 C30.4977214,74.1591797 25.1451823,84.9903971 25.0996094,93.8100586 C25.03125,107.039551 30.8203125,119.771484 41.1572266,119.771484 C51.4941406,119.771484 58.2807617,111.879395 59.3256836,97.1958008 C60.0222982,87.4067383 53.9661458,75.4469401 41.1572266,61.3164062 Z" id="Path-15" stroke="#5DA962" stroke-width="2"></path>
                <path d="M42.4443359,63.1005859 C48.1500651,75.8621489 51.0335286,85.66537 51.0947266,92.5102494 C51.1865234,102.777568 49.934082,106.62739 48.1743164,111.900907 C47.0011393,115.416585 45.0911458,117.966869 42.4443359,119.551758" id="Path-17" stroke="#5DA962" stroke-width="2"></path>
                <path d="M41.9785156,63.859375 L41.9785156,120" id="Path-18" stroke="#5DA962" stroke-width="2"></path>
            </g>
        </g>
    </g>
</svg>