<?xml version="1.0" encoding="utf-8"?>
<!-- Generator: Adobe Illustrator 21.0.0, SVG Export Plug-In . SVG Version: 6.00 Build 0)  -->
<svg version="1.1" id="Layer_1" xmlns="http://www.w3.org/2000/svg" xmlns:xlink="http://www.w3.org/1999/xlink" x="0px" y="0px"
	 viewBox="0 0 115 155" style="enable-background:new 0 0 115 155;" xml:space="preserve">
<style type="text/css">
	.st0{fill:#999999;}
	.st1{fill:#C5D9F0;}
	.st2{fill:#4875A0;}
	.st3{fill:none;stroke:#999999;stroke-width:2;}
</style>
<title>Group 13</title>
<desc>Created with Sketch.</desc>
<g id="Page-1">
	<g id="Upload" transform="translate(-937.000000, -1479.000000)">
		<g id="Group-13" transform="translate(937.000000, 1479.000000)">
			<path id="Oval-4" class="st0" d="M11,19c2.8,0,5-11.2,5-14s-2.2-5-5-5S6,2.2,6,5S8.2,19,11,19z"/>
			<path id="Combined-Shape" class="st1" d="M2,107c1.3,26.7,23.4,48,50.4,48s49.1-21.3,50.4-48H2z"/>
			<path id="Oval-4_1_" class="st0" d="M41.2,65.1c5.1,0,9.2-20.8,9.2-25.9S46.4,30,41.2,30S32,34.1,32,39.2S36.1,65.1,41.2,65.1z"
				/>
			<path id="Oval-4_2_" class="st0" d="M12,75c2.8,0,5,11.2,5,14s-2.2,5-5,5s-5-2.2-5-5S9.2,75,12,75z"/>
			<rect id="Rectangle-15" y="17" class="st1" width="12" height="61"/>
			<path id="Combined-Shape_1_" class="st2" d="M39,153.3c4.2,1.1,8.5,1.7,13,1.7c27.1,0,49.1-21.3,50.4-48H76.4
				C75.3,129.3,59.8,147.8,39,153.3z"/>
			<rect id="Rectangle-15_1_" x="12" y="17" class="st2" width="12" height="61"/>
			<polygon id="Rectangle-16" class="st2" points="72,64 104,64 114.4,64 114.4,79.7 110.4,79.7 104,72.2 104,101 72,101 72,82.5 
				60,64 			"/>
			<path id="Path-14" class="st3" d="M90,93H79.9"/>
			<path id="Path-14_1_" class="st3" d="M86,89h-6.1"/>
			<path id="Path-14_2_" class="st3" d="M86,85h-6.1"/>
			<path id="Path-14_3_" class="st3" d="M86,77h-6.1"/>
			<path id="Path-14_4_" class="st3" d="M86,73h-6.1"/>
			<path id="Path-14_5_" class="st3" d="M91,81H79.9"/>
			<path id="Path-14_6_" class="st3" d="M79.9,72v22"/>
			<path id="Path-16" class="st3" d="M41.3,62.7c-5.9,14.1-8.9,24.6-9,31.6s2.9,15.3,9,25.1"/>
			<path id="Path-15" class="st3" d="M41.2,61.3C30.5,74.2,25.1,85,25.1,93.8c-0.1,13.2,5.7,26,16.1,26s17.1-7.9,18.2-22.6
				C60,87.4,54,75.4,41.2,61.3z"/>
			<path id="Path-17" class="st3" d="M42.4,63.1c5.7,12.8,8.6,22.6,8.7,29.4c0.1,10.3-1.2,14.1-2.9,19.4c-1.2,3.5-3.1,6.1-5.7,7.7"
				/>
			<path id="Path-18" class="st3" d="M42,63.9V120"/>
		</g>
	</g>
</g>
</svg>
