<?xml version="1.0" encoding="utf-8"?>
<!-- Generator: Adobe Illustrator 21.0.0, SVG Export Plug-In . SVG Version: 6.00 Build 0)  -->
<svg version="1.1" id="Layer_1" xmlns="http://www.w3.org/2000/svg" xmlns:xlink="http://www.w3.org/1999/xlink" x="0px" y="0px"
	 viewBox="0 0 595.3 454.1" style="enable-background:new 0 0 595.3 454.1;" xml:space="preserve">
<style type="text/css">
	.st0{fill:#D2EED4;}
	.st1{fill:#51B858;}
	.st2{fill:#7DDC84;}
	.st3{fill:#478A4B;}
	.st4{fill:#46BD4E;}
	.st5{fill:#7DDB84;}
</style>
<g id="Rectangle.-3" transform="matrix(1,0,0,1,-436.559,-670.027)">
	<rect x="456.8" y="738.9" class="st0" width="558.1" height="37.2"/>
</g>
<g id="Rectangle.-31" transform="matrix(1,0,0,1,-436.559,-670.027)">
	<rect x="590.7" y="811.5" class="st1" width="208.3" height="11.2"/>
</g>
<g id="Rectangle.-32" transform="matrix(1,0,0,1,-436.559,-670.027)">
	<rect x="590.7" y="830.1" class="st1" width="156.3" height="11.2"/>
</g>
<g id="Group.-2" transform="matrix(1,0,0,1,41.4407,41.5)">
	<g id="Group">
		<rect id="Rectangle.-8" x="112.7" y="159.6" class="st1" width="179.8" height="188.1"/>
		<rect id="Rectangle.-81" x="294.6" y="159.6" class="st2" width="76.5" height="107.7"/>
		<rect id="Rectangle.-82" x="294.6" y="270.4" class="st3" width="76.5" height="77.3"/>
		<rect id="Rectangle.-83" x="374" y="159.6" class="st1" width="26.4" height="72.1"/>
		<rect id="Rectangle.-84" x="374" y="234.8" class="st4" width="26.4" height="61.7"/>
	</g>
	<rect id="Rectangle.-85" x="374" y="299.6" class="st5" width="26.4" height="48.1"/>
</g>
<g id="Oval" transform="matrix(1,0,0,1,-436.559,-670.027)">
	<circle class="st5" cx="484.7" cy="759.3" r="5.6"/>
</g>
<g id="Oval1" transform="matrix(1,0,0,1,-436.559,-670.027)">
	<circle class="st5" cx="499.6" cy="759.3" r="5.6"/>
</g>
<g id="Oval2" transform="matrix(1,0,0,1,-436.559,-670.027)">
	<circle class="st5" cx="514.5" cy="759.3" r="5.6"/>
</g>
<g transform="matrix(1,0,0,1,-436.559,-670.027)">
	<path class="st5" d="M1031.8,1073.8H436.6V716.6h595.3C1031.8,835.7,1031.8,954.7,1031.8,1073.8z M458.9,739v312.5h550.6V739
		C826,739,642.4,739,458.9,739z"/>
</g>
</svg>
