<?xml version="1.0" encoding="UTF-8" standalone="no"?>
<!DOCTYPE svg PUBLIC "-//W3C//DTD SVG 1.1//EN" "http://www.w3.org/Graphics/SVG/1.1/DTD/svg11.dtd">
<svg width="100%" height="100%" viewBox="0 0 104 98" version="1.1" xmlns="http://www.w3.org/2000/svg" xmlns:xlink="http://www.w3.org/1999/xlink" xml:space="preserve" style="fill-rule:evenodd;clip-rule:evenodd;stroke-linejoin:round;stroke-miterlimit:1.41421;">
    <g id="Rectangle.-2" transform="matrix(1,0,0,1,-477.5,-1192.13)">
        <rect x="514" y="1227.5" width="22" height="36" style="fill:rgb(208,255,211);"/>
    </g>
    <g transform="matrix(1,0,0,1,-477.5,-1192.13)">
        <path d="M571.559,1201.5L571.559,1268.5L509,1268.5L509,1201.5C529.853,1201.5 550.706,1201.5 571.559,1201.5ZM515,1262.5L565.559,1262.5L565.559,1207.5L515,1207.5C515,1225.83 515,1244.17 515,1262.5Z" style="fill:rgb(125,219,132);fill-rule:nonzero;"/>
    </g>
    <g transform="matrix(1,0,0,1,-477.5,-1192.13)">
        <path d="M485.629,1287.01C485.793,1287.04 485.837,1287.04 485.993,1287.11C486.227,1287.2 486.436,1287.35 486.596,1287.54C486.717,1287.69 486.809,1287.86 486.867,1288.04C486.906,1288.16 486.93,1288.28 486.938,1288.41C486.966,1288.85 486.791,1289.29 486.468,1289.59C486.376,1289.68 486.274,1289.75 486.163,1289.81C485.998,1289.9 485.816,1289.96 485.629,1289.99C485.566,1290 485.503,1290 485.441,1290L481.441,1290C481.274,1289.99 481.23,1290 481.068,1289.95C480.824,1289.89 480.597,1289.77 480.414,1289.59C480.276,1289.46 480.164,1289.31 480.083,1289.14C479.895,1288.74 479.895,1288.26 480.083,1287.86C480.137,1287.75 480.205,1287.64 480.285,1287.54C480.405,1287.4 480.553,1287.28 480.718,1287.19C480.883,1287.1 481.066,1287.04 481.253,1287.01C481.315,1287 481.378,1287 481.441,1287L485.441,1287C485.503,1287 485.566,1287.01 485.629,1287.01ZM495.629,1287.01C495.793,1287.04 495.837,1287.04 495.993,1287.11C496.227,1287.2 496.436,1287.35 496.596,1287.54C496.879,1287.89 496.997,1288.35 496.914,1288.78C496.891,1288.9 496.852,1289.03 496.798,1289.14C496.744,1289.25 496.677,1289.36 496.596,1289.46C496.476,1289.6 496.329,1289.72 496.163,1289.81C495.998,1289.9 495.816,1289.96 495.629,1289.99C495.566,1290 495.503,1290 495.441,1290L491.441,1290C491.378,1290 491.315,1290 491.253,1289.99C491.066,1289.96 490.883,1289.9 490.718,1289.81C490.553,1289.72 490.405,1289.6 490.285,1289.46C490.002,1289.11 489.884,1288.65 489.967,1288.22C489.991,1288.1 490.03,1287.98 490.083,1287.86C490.164,1287.69 490.276,1287.54 490.414,1287.41C490.597,1287.23 490.824,1287.11 491.068,1287.05C491.23,1287.01 491.274,1287.01 491.441,1287L495.441,1287C495.503,1287 495.566,1287.01 495.629,1287.01ZM505.629,1287.01C505.793,1287.04 505.837,1287.04 505.993,1287.11C506.227,1287.2 506.436,1287.35 506.596,1287.54C506.677,1287.64 506.744,1287.75 506.798,1287.86C506.987,1288.26 506.987,1288.74 506.798,1289.14C506.744,1289.25 506.677,1289.36 506.596,1289.46C506.476,1289.6 506.329,1289.72 506.163,1289.81C505.998,1289.9 505.816,1289.96 505.629,1289.99C505.566,1290 505.503,1290 505.441,1290L501.441,1290C501.378,1290 501.315,1290 501.253,1289.99C501.066,1289.96 500.883,1289.9 500.718,1289.81C500.553,1289.72 500.405,1289.6 500.285,1289.46C500.002,1289.11 499.884,1288.65 499.967,1288.22C499.991,1288.1 500.03,1287.98 500.083,1287.86C500.164,1287.69 500.276,1287.54 500.414,1287.41C500.597,1287.23 500.824,1287.11 501.068,1287.05C501.23,1287.01 501.274,1287.01 501.441,1287L505.441,1287C505.503,1287 505.566,1287.01 505.629,1287.01ZM515.629,1287.01C515.69,1287.02 515.753,1287.03 515.814,1287.05C515.996,1287.09 516.17,1287.18 516.322,1287.29C516.424,1287.36 516.516,1287.45 516.596,1287.54C516.879,1287.89 516.997,1288.35 516.914,1288.78C516.891,1288.9 516.852,1289.03 516.798,1289.14C516.718,1289.31 516.605,1289.46 516.468,1289.59C516.284,1289.77 516.058,1289.89 515.814,1289.95C515.651,1290 515.607,1289.99 515.441,1290L511.441,1290C511.274,1289.99 511.23,1290 511.068,1289.95C510.824,1289.89 510.597,1289.77 510.414,1289.59C510.276,1289.46 510.164,1289.31 510.083,1289.14C509.895,1288.74 509.895,1288.26 510.083,1287.86C510.137,1287.75 510.205,1287.64 510.285,1287.54C510.405,1287.4 510.553,1287.28 510.718,1287.19C510.883,1287.1 511.066,1287.04 511.253,1287.01C511.315,1287 511.378,1287 511.441,1287L515.441,1287C515.503,1287 515.566,1287.01 515.629,1287.01ZM525.629,1287.01C525.69,1287.02 525.753,1287.03 525.814,1287.05C525.996,1287.09 526.17,1287.18 526.322,1287.29C526.475,1287.4 526.606,1287.54 526.707,1287.7C526.775,1287.8 526.828,1287.92 526.867,1288.04C526.906,1288.16 526.93,1288.28 526.938,1288.41C526.966,1288.85 526.791,1289.29 526.468,1289.59C526.284,1289.77 526.058,1289.89 525.814,1289.95C525.651,1290 525.607,1289.99 525.441,1290L521.441,1290C521.274,1289.99 521.23,1290 521.068,1289.95C520.824,1289.89 520.597,1289.77 520.414,1289.59C520.276,1289.46 520.164,1289.31 520.083,1289.14C519.895,1288.74 519.895,1288.26 520.083,1287.86C520.137,1287.75 520.205,1287.64 520.285,1287.54C520.405,1287.4 520.553,1287.28 520.718,1287.19C520.883,1287.1 521.066,1287.04 521.253,1287.01C521.315,1287 521.378,1287 521.441,1287L525.441,1287C525.503,1287 525.566,1287.01 525.629,1287.01ZM535.629,1287.01C535.69,1287.02 535.753,1287.03 535.814,1287.05C535.996,1287.09 536.17,1287.18 536.322,1287.29C536.681,1287.55 536.91,1287.96 536.938,1288.41C536.946,1288.53 536.938,1288.66 536.914,1288.78C536.891,1288.9 536.852,1289.03 536.798,1289.14C536.718,1289.31 536.605,1289.46 536.468,1289.59C536.284,1289.77 536.058,1289.89 535.814,1289.95C535.651,1290 535.607,1289.99 535.441,1290L531.441,1290C531.378,1290 531.315,1290 531.253,1289.99C531.066,1289.96 530.883,1289.9 530.718,1289.81C530.608,1289.75 530.506,1289.68 530.414,1289.59C530.091,1289.29 529.916,1288.85 529.944,1288.41C529.956,1288.22 530.003,1288.03 530.083,1287.86C530.164,1287.69 530.276,1287.54 530.414,1287.41C530.597,1287.23 530.824,1287.11 531.068,1287.05C531.23,1287.01 531.274,1287.01 531.441,1287L535.441,1287C535.503,1287 535.566,1287.01 535.629,1287.01ZM479.281,1279.47C479.443,1279.51 479.487,1279.51 479.639,1279.58C479.982,1279.75 480.255,1280.04 480.395,1280.39C480.441,1280.51 480.472,1280.63 480.488,1280.75C480.496,1280.82 480.496,1280.88 480.5,1280.94L480.5,1284.94C480.49,1285.11 480.495,1285.15 480.453,1285.31C480.39,1285.56 480.266,1285.78 480.093,1285.97C479.964,1286.11 479.809,1286.22 479.639,1286.3C479.237,1286.49 478.763,1286.49 478.361,1286.3C478.247,1286.24 478.141,1286.18 478.044,1286.1C477.899,1285.98 477.776,1285.83 477.686,1285.66C477.595,1285.5 477.535,1285.32 477.512,1285.13C477.504,1285.07 477.504,1285 477.5,1284.94L477.5,1280.94C477.504,1280.88 477.504,1280.82 477.512,1280.75C477.528,1280.63 477.559,1280.51 477.605,1280.39C477.769,1279.98 478.115,1279.65 478.536,1279.51C478.656,1279.48 478.78,1279.45 478.906,1279.44C478.968,1279.44 479.031,1279.44 479.094,1279.44C479.156,1279.45 479.219,1279.46 479.281,1279.47ZM535.84,1277.14C536.002,1277.19 536.046,1277.19 536.198,1277.26C536.541,1277.42 536.814,1277.71 536.954,1278.07C537,1278.18 537.032,1278.31 537.047,1278.43C537.055,1278.49 537.055,1278.56 537.059,1278.62L537.059,1282.62C537.055,1282.68 537.055,1282.74 537.047,1282.81C537.024,1282.99 536.965,1283.18 536.874,1283.34C536.783,1283.51 536.661,1283.65 536.515,1283.77C536.37,1283.89 536.202,1283.99 536.023,1284.05C535.903,1284.08 535.779,1284.11 535.653,1284.12C535.211,1284.14 534.769,1283.97 534.466,1283.64C534.294,1283.46 534.169,1283.24 534.106,1282.99C534.065,1282.83 534.07,1282.79 534.059,1282.62L534.059,1278.62C534.063,1278.56 534.063,1278.49 534.071,1278.43C534.087,1278.31 534.118,1278.18 534.165,1278.07C534.328,1277.65 534.674,1277.33 535.096,1277.19C535.215,1277.15 535.34,1277.13 535.465,1277.12C535.528,1277.12 535.591,1277.12 535.653,1277.12C535.716,1277.13 535.778,1277.14 535.84,1277.14ZM479.281,1269.47C479.342,1269.48 479.404,1269.5 479.464,1269.51C479.583,1269.55 479.697,1269.61 479.804,1269.67C480.124,1269.88 480.359,1270.2 480.453,1270.57C480.495,1270.73 480.49,1270.77 480.5,1270.94L480.5,1274.94C480.49,1275.11 480.495,1275.15 480.453,1275.31C480.39,1275.56 480.266,1275.78 480.093,1275.97C480.007,1276.06 479.91,1276.14 479.804,1276.21C479.429,1276.44 478.958,1276.5 478.536,1276.37C478.357,1276.31 478.189,1276.22 478.044,1276.1C477.899,1275.98 477.776,1275.83 477.686,1275.66C477.595,1275.5 477.535,1275.32 477.512,1275.13C477.504,1275.07 477.504,1275 477.5,1274.94L477.5,1270.94C477.504,1270.88 477.504,1270.82 477.512,1270.75C477.528,1270.63 477.559,1270.51 477.605,1270.39C477.769,1269.98 478.115,1269.65 478.536,1269.51C478.656,1269.48 478.78,1269.45 478.906,1269.44C478.968,1269.44 479.031,1269.44 479.094,1269.44C479.156,1269.45 479.219,1269.46 479.281,1269.47ZM535.84,1267.14C536.002,1267.19 536.046,1267.19 536.198,1267.26C536.541,1267.42 536.814,1267.71 536.954,1268.07C537,1268.18 537.032,1268.31 537.047,1268.43C537.055,1268.49 537.055,1268.56 537.059,1268.62L537.059,1272.62C537.055,1272.68 537.055,1272.74 537.047,1272.81C537.024,1272.99 536.965,1273.18 536.874,1273.34C536.783,1273.51 536.661,1273.65 536.515,1273.77C536.174,1274.06 535.714,1274.17 535.278,1274.09C535.155,1274.07 535.034,1274.03 534.921,1273.98C534.75,1273.9 534.595,1273.78 534.466,1273.64C534.294,1273.46 534.169,1273.24 534.106,1272.99C534.065,1272.83 534.07,1272.79 534.059,1272.62L534.059,1268.62C534.063,1268.56 534.063,1268.49 534.071,1268.43C534.087,1268.31 534.118,1268.18 534.165,1268.07C534.328,1267.65 534.674,1267.33 535.096,1267.19C535.215,1267.15 535.34,1267.13 535.465,1267.12C535.528,1267.12 535.591,1267.12 535.653,1267.12C535.716,1267.13 535.778,1267.14 535.84,1267.14ZM479.281,1259.47C479.342,1259.48 479.404,1259.5 479.464,1259.51C479.583,1259.55 479.697,1259.61 479.804,1259.67C480.124,1259.88 480.359,1260.2 480.453,1260.57C480.495,1260.73 480.49,1260.77 480.5,1260.94L480.5,1264.94C480.49,1265.11 480.495,1265.15 480.453,1265.31C480.39,1265.56 480.266,1265.78 480.093,1265.97C479.964,1266.11 479.809,1266.22 479.639,1266.3C479.237,1266.49 478.763,1266.49 478.361,1266.3C478.247,1266.24 478.141,1266.18 478.044,1266.1C477.899,1265.98 477.776,1265.83 477.686,1265.66C477.595,1265.5 477.535,1265.32 477.512,1265.13C477.504,1265.07 477.504,1265 477.5,1264.94L477.5,1260.94C477.504,1260.88 477.504,1260.82 477.512,1260.75C477.528,1260.63 477.559,1260.51 477.605,1260.39C477.769,1259.98 478.115,1259.65 478.536,1259.51C478.656,1259.48 478.78,1259.45 478.906,1259.44C478.968,1259.44 479.031,1259.44 479.094,1259.44C479.156,1259.45 479.219,1259.46 479.281,1259.47ZM535.84,1257.14C536.002,1257.19 536.046,1257.19 536.198,1257.26C536.541,1257.42 536.814,1257.71 536.954,1258.07C537,1258.18 537.032,1258.31 537.047,1258.43C537.055,1258.49 537.055,1258.56 537.059,1258.62L537.059,1262.62C537.055,1262.68 537.055,1262.74 537.047,1262.81C537.024,1262.99 536.965,1263.18 536.874,1263.34C536.783,1263.51 536.661,1263.65 536.515,1263.77C536.174,1264.06 535.714,1264.17 535.278,1264.09C535.155,1264.07 535.034,1264.03 534.921,1263.98C534.75,1263.9 534.595,1263.78 534.466,1263.64C534.294,1263.46 534.169,1263.24 534.106,1262.99C534.065,1262.83 534.07,1262.79 534.059,1262.62L534.059,1258.62C534.063,1258.56 534.063,1258.49 534.071,1258.43C534.087,1258.31 534.118,1258.18 534.165,1258.07C534.328,1257.65 534.674,1257.33 535.096,1257.19C535.215,1257.15 535.34,1257.13 535.465,1257.12C535.528,1257.12 535.591,1257.12 535.653,1257.12C535.716,1257.13 535.778,1257.14 535.84,1257.14ZM479.281,1249.47C479.342,1249.48 479.404,1249.5 479.464,1249.51C479.583,1249.55 479.697,1249.61 479.804,1249.67C480.124,1249.88 480.359,1250.2 480.453,1250.57C480.495,1250.73 480.49,1250.77 480.5,1250.94L480.5,1254.94C480.496,1255 480.496,1255.07 480.488,1255.13C480.465,1255.32 480.405,1255.5 480.314,1255.66C480.224,1255.83 480.101,1255.98 479.956,1256.1C479.859,1256.18 479.753,1256.24 479.639,1256.3C479.237,1256.49 478.763,1256.49 478.361,1256.3C478.191,1256.22 478.036,1256.11 477.907,1255.97C477.734,1255.78 477.61,1255.56 477.547,1255.31C477.505,1255.15 477.51,1255.11 477.5,1254.94L477.5,1250.94C477.504,1250.88 477.504,1250.82 477.512,1250.75C477.528,1250.63 477.559,1250.51 477.605,1250.39C477.769,1249.98 478.115,1249.65 478.536,1249.51C478.656,1249.48 478.78,1249.45 478.906,1249.44C478.968,1249.44 479.031,1249.44 479.094,1249.44C479.156,1249.45 479.219,1249.46 479.281,1249.47ZM535.84,1247.14C535.901,1247.16 535.963,1247.17 536.023,1247.19C536.142,1247.23 536.257,1247.29 536.363,1247.35C536.683,1247.56 536.918,1247.88 537.012,1248.25C537.054,1248.41 537.049,1248.45 537.059,1248.62L537.059,1252.62C537.055,1252.68 537.055,1252.74 537.047,1252.81C537.024,1252.99 536.965,1253.18 536.874,1253.34C536.66,1253.73 536.276,1254.01 535.84,1254.09C535.717,1254.12 535.591,1254.12 535.465,1254.12C535.277,1254.1 535.091,1254.06 534.921,1253.98C534.75,1253.9 534.595,1253.78 534.466,1253.64C534.294,1253.46 534.169,1253.24 534.106,1252.99C534.065,1252.83 534.07,1252.79 534.059,1252.62L534.059,1248.62C534.063,1248.56 534.063,1248.49 534.071,1248.43C534.087,1248.31 534.118,1248.18 534.165,1248.07C534.328,1247.65 534.674,1247.33 535.096,1247.19C535.215,1247.15 535.34,1247.13 535.465,1247.12C535.528,1247.12 535.591,1247.12 535.653,1247.12C535.716,1247.13 535.778,1247.14 535.84,1247.14ZM479.281,1239.47C479.443,1239.51 479.487,1239.51 479.639,1239.58C479.982,1239.75 480.255,1240.04 480.395,1240.39C480.441,1240.51 480.472,1240.63 480.488,1240.75C480.496,1240.82 480.496,1240.88 480.5,1240.94L480.5,1244.94C480.496,1245 480.496,1245.07 480.488,1245.13C480.465,1245.32 480.405,1245.5 480.314,1245.66C480.101,1246.05 479.717,1246.33 479.281,1246.41C479.157,1246.44 479.031,1246.45 478.906,1246.44C478.718,1246.43 478.532,1246.38 478.361,1246.3C478.191,1246.22 478.036,1246.11 477.907,1245.97C477.734,1245.78 477.61,1245.56 477.547,1245.31C477.505,1245.15 477.51,1245.11 477.5,1244.94L477.5,1240.94C477.504,1240.88 477.504,1240.82 477.512,1240.75C477.528,1240.63 477.559,1240.51 477.605,1240.39C477.769,1239.98 478.115,1239.65 478.536,1239.51C478.656,1239.48 478.78,1239.45 478.906,1239.44C478.968,1239.44 479.031,1239.44 479.094,1239.44C479.156,1239.45 479.219,1239.46 479.281,1239.47ZM535.84,1237.14C536.002,1237.19 536.046,1237.19 536.198,1237.26C536.541,1237.42 536.814,1237.71 536.954,1238.07C537,1238.18 537.032,1238.31 537.047,1238.43C537.055,1238.49 537.055,1238.56 537.059,1238.62L537.059,1242.62C537.055,1242.68 537.055,1242.74 537.047,1242.81C537.024,1242.99 536.965,1243.18 536.874,1243.34C536.66,1243.73 536.276,1244.01 535.84,1244.09C535.717,1244.12 535.591,1244.12 535.465,1244.12C535.277,1244.1 535.091,1244.06 534.921,1243.98C534.75,1243.9 534.595,1243.78 534.466,1243.64C534.294,1243.46 534.169,1243.24 534.106,1242.99C534.065,1242.83 534.07,1242.79 534.059,1242.62L534.059,1238.62C534.063,1238.56 534.063,1238.49 534.071,1238.43C534.087,1238.31 534.118,1238.18 534.165,1238.07C534.328,1237.65 534.674,1237.33 535.096,1237.19C535.215,1237.15 535.34,1237.13 535.465,1237.12C535.528,1237.12 535.591,1237.12 535.653,1237.12C535.716,1237.13 535.778,1237.14 535.84,1237.14ZM479.281,1229.47C479.443,1229.51 479.487,1229.51 479.639,1229.58C479.982,1229.75 480.255,1230.04 480.395,1230.39C480.441,1230.51 480.472,1230.63 480.488,1230.75C480.496,1230.82 480.496,1230.88 480.5,1230.94L480.5,1234.94C480.496,1235 480.496,1235.07 480.488,1235.13C480.465,1235.32 480.405,1235.5 480.314,1235.66C480.224,1235.83 480.101,1235.98 479.956,1236.1C479.614,1236.38 479.155,1236.5 478.719,1236.41C478.595,1236.39 478.475,1236.35 478.361,1236.3C478.191,1236.22 478.036,1236.11 477.907,1235.97C477.734,1235.78 477.61,1235.56 477.547,1235.31C477.505,1235.15 477.51,1235.11 477.5,1234.94L477.5,1230.94C477.504,1230.88 477.504,1230.82 477.512,1230.75C477.528,1230.63 477.559,1230.51 477.605,1230.39C477.769,1229.98 478.115,1229.65 478.536,1229.51C478.656,1229.48 478.78,1229.45 478.906,1229.44C478.968,1229.44 479.031,1229.44 479.094,1229.44C479.156,1229.45 479.219,1229.46 479.281,1229.47ZM535.747,1226.01C535.809,1226.02 535.872,1226.03 535.932,1226.05C536.115,1226.09 536.288,1226.18 536.441,1226.29C536.853,1226.59 537.088,1227.09 537.056,1227.59C537.048,1227.73 537.025,1227.83 536.986,1227.96C536.976,1228 536.961,1228.03 536.949,1228.06L536.954,1228.07C536.973,1228.13 536.997,1228.18 537.012,1228.25C537.054,1228.41 537.049,1228.45 537.059,1228.62L537.059,1232.62C537.055,1232.68 537.055,1232.74 537.047,1232.81C537.024,1232.99 536.965,1233.18 536.874,1233.34C536.813,1233.45 536.739,1233.55 536.653,1233.64C536.349,1233.97 535.908,1234.14 535.465,1234.12C535.277,1234.1 535.091,1234.06 534.921,1233.98C534.75,1233.9 534.595,1233.78 534.466,1233.64C534.294,1233.46 534.169,1233.24 534.106,1232.99C534.065,1232.83 534.07,1232.79 534.059,1232.62L534.059,1229L531.559,1229L531.371,1228.99C531.31,1228.98 531.247,1228.97 531.186,1228.95C531.004,1228.91 530.83,1228.82 530.678,1228.71C530.525,1228.6 530.394,1228.46 530.293,1228.3C530.055,1227.93 529.996,1227.46 530.133,1227.04C530.172,1226.92 530.225,1226.8 530.293,1226.7C530.36,1226.59 530.441,1226.49 530.532,1226.41C530.716,1226.23 530.942,1226.11 531.186,1226.05C531.349,1226.01 531.393,1226.01 531.559,1226L535.559,1226C535.622,1226 535.685,1226.01 535.747,1226.01ZM485.747,1226.01C485.911,1226.04 485.955,1226.04 486.111,1226.11C486.346,1226.2 486.555,1226.35 486.715,1226.54C486.835,1226.69 486.928,1226.86 486.986,1227.04C487.025,1227.16 487.048,1227.28 487.056,1227.41C487.064,1227.53 487.056,1227.66 487.033,1227.78C486.95,1228.22 486.671,1228.6 486.282,1228.81C486.117,1228.9 485.934,1228.96 485.747,1228.99C485.685,1229 485.622,1229 485.559,1229L481.559,1229C481.497,1229 481.434,1229 481.371,1228.99C481.184,1228.96 481.002,1228.9 480.837,1228.81C480.448,1228.6 480.169,1228.22 480.086,1227.78C480.062,1227.66 480.054,1227.53 480.062,1227.41C480.074,1227.22 480.122,1227.03 480.202,1226.86C480.282,1226.69 480.395,1226.54 480.532,1226.41C480.716,1226.23 480.942,1226.11 481.186,1226.05C481.349,1226.01 481.393,1226.01 481.559,1226L485.559,1226C485.622,1226 485.685,1226.01 485.747,1226.01ZM495.747,1226.01C495.911,1226.04 495.955,1226.04 496.111,1226.11C496.346,1226.2 496.555,1226.35 496.715,1226.54C496.795,1226.64 496.863,1226.75 496.917,1226.86C497.105,1227.26 497.105,1227.74 496.917,1228.14C496.863,1228.25 496.795,1228.36 496.715,1228.46C496.595,1228.6 496.447,1228.72 496.282,1228.81C496.117,1228.9 495.934,1228.96 495.747,1228.99C495.685,1229 495.622,1229 495.559,1229L491.559,1229C491.393,1228.99 491.349,1229 491.186,1228.95C490.942,1228.89 490.716,1228.77 490.532,1228.59C490.441,1228.51 490.36,1228.41 490.293,1228.3C490.055,1227.93 489.996,1227.46 490.133,1227.04C490.191,1226.86 490.283,1226.69 490.404,1226.54C490.524,1226.4 490.671,1226.28 490.837,1226.19C491.002,1226.1 491.184,1226.04 491.371,1226.01C491.434,1226 491.497,1226 491.559,1226L495.559,1226C495.622,1226 495.685,1226.01 495.747,1226.01ZM505.747,1226.01C505.911,1226.04 505.955,1226.04 506.111,1226.11C506.346,1226.2 506.555,1226.35 506.715,1226.54C506.835,1226.69 506.928,1226.86 506.986,1227.04C507.025,1227.16 507.048,1227.28 507.056,1227.41C507.064,1227.53 507.056,1227.66 507.033,1227.78C506.95,1228.22 506.671,1228.6 506.282,1228.81C506.117,1228.9 505.934,1228.96 505.747,1228.99C505.685,1229 505.622,1229 505.559,1229L501.559,1229C501.497,1229 501.434,1229 501.371,1228.99C501.184,1228.96 501.002,1228.9 500.837,1228.81C500.726,1228.75 500.624,1228.68 500.532,1228.59C500.209,1228.29 500.034,1227.85 500.062,1227.41C500.074,1227.22 500.122,1227.03 500.202,1226.86C500.282,1226.69 500.395,1226.54 500.532,1226.41C500.716,1226.23 500.942,1226.11 501.186,1226.05C501.349,1226.01 501.393,1226.01 501.559,1226L505.559,1226C505.622,1226 505.685,1226.01 505.747,1226.01ZM515.747,1226.01C515.911,1226.04 515.955,1226.04 516.111,1226.11C516.346,1226.2 516.555,1226.35 516.715,1226.54C516.835,1226.69 516.928,1226.86 516.986,1227.04C517.025,1227.16 517.048,1227.28 517.056,1227.41C517.064,1227.53 517.056,1227.66 517.033,1227.78C516.95,1228.22 516.671,1228.6 516.282,1228.81C516.117,1228.9 515.934,1228.96 515.747,1228.99C515.685,1229 515.622,1229 515.559,1229L511.559,1229C511.497,1229 511.434,1229 511.371,1228.99C511.184,1228.96 511.002,1228.9 510.837,1228.81C510.448,1228.6 510.169,1228.22 510.086,1227.78C510.062,1227.66 510.054,1227.53 510.062,1227.41C510.074,1227.22 510.122,1227.03 510.202,1226.86C510.282,1226.69 510.395,1226.54 510.532,1226.41C510.716,1226.23 510.942,1226.11 511.186,1226.05C511.349,1226.01 511.393,1226.01 511.559,1226L515.559,1226C515.622,1226 515.685,1226.01 515.747,1226.01ZM525.747,1226.01C525.911,1226.04 525.955,1226.04 526.111,1226.11C526.346,1226.2 526.555,1226.35 526.715,1226.54C526.795,1226.64 526.863,1226.75 526.917,1226.86C527.105,1227.26 527.105,1227.74 526.917,1228.14C526.863,1228.25 526.795,1228.36 526.715,1228.46C526.595,1228.6 526.447,1228.72 526.282,1228.81C526.117,1228.9 525.934,1228.96 525.747,1228.99C525.685,1229 525.622,1229 525.559,1229L521.559,1229C521.497,1229 521.434,1229 521.371,1228.99C521.184,1228.96 521.002,1228.9 520.837,1228.81C520.448,1228.6 520.169,1228.22 520.086,1227.78C520.062,1227.66 520.054,1227.53 520.062,1227.41C520.074,1227.22 520.122,1227.03 520.202,1226.86C520.282,1226.69 520.395,1226.54 520.532,1226.41C520.716,1226.23 520.942,1226.11 521.186,1226.05C521.349,1226.01 521.393,1226.01 521.559,1226L525.559,1226C525.622,1226 525.685,1226.01 525.747,1226.01Z" style="fill:rgb(81,184,88);fill-rule:nonzero;"/>
    </g>
</svg>
