<?xml version="1.0" encoding="utf-8"?>
<!-- Generator: Adobe Illustrator 21.0.0, SVG Export Plug-In . SVG Version: 6.00 Build 0)  -->
<svg version="1.1" id="Layer_1" xmlns="http://www.w3.org/2000/svg" xmlns:xlink="http://www.w3.org/1999/xlink" x="0px" y="0px"
	 viewBox="0 0 595.3 558" style="enable-background:new 0 0 595.3 558;" xml:space="preserve">
<style type="text/css">
	.st0{fill:#ACDBC5;}
	.st1{fill:#B4CEEC;}
	.st2{fill:#FEF160;}
	.st3{fill:#D2ECEA;}
</style>
<g transform="matrix(1,0,0,1,-477.5,-1192.13)">
	<path class="st0" d="M787.9,1205.9L1059,1477l-253.2,253.2l-271.2-271.2C619.1,1374.6,703.4,1290.3,787.9,1205.9z M805.8,1681.7
		l204.6-204.6l-222.6-222.6l-204.6,204.6C657.4,1533.3,731.7,1607.6,805.8,1681.7z"/>
</g>
<g transform="matrix(1,0,0,1,-477.5,-1192.13)">
	<path class="st1" d="M499.5,1298.6l273.2-49.3l46.1,255.1l-273.2,49.3C530.2,1468.6,514.9,1383.7,499.5,1298.6z M789.9,1484.3
		l-37.2-206.1l-224.2,40.5l37.2,206.1C640.4,1511.3,715.2,1497.8,789.9,1484.3z"/>
</g>
<g transform="matrix(1,0,0,1,-477.5,-1192.13)">
	<path class="st2" d="M629.3,1648.9c0.5,0.3,0.7,0.3,1.2,0.8c0.7,0.6,1.3,1.3,1.7,2.2c0.3,0.7,0.4,1.3,0.5,2.1c0,0.5,0,0.9-0.1,1.4
		c-0.3,1.6-1.4,3-2.9,3.7c-0.4,0.2-0.8,0.4-1.3,0.5c-0.7,0.1-1.4,0.2-2.1,0c-0.3,0-0.5-0.1-0.7-0.1l-14.2-4.2
		c-0.6-0.2-0.7-0.2-1.2-0.6c-0.8-0.4-1.5-1.1-1.9-2c-0.4-0.6-0.6-1.3-0.7-2c-0.3-1.6,0.2-3.3,1.4-4.5c0.3-0.3,0.7-0.7,1.1-0.9
		c0.6-0.4,1.2-0.7,1.9-0.8c0.7-0.1,1.4-0.2,2.1,0c0.3,0,0.5,0.1,0.7,0.1l14.1,4.2C628.9,1648.7,629.1,1648.9,629.3,1648.9z
		 M664.9,1659.5c0.5,0.3,0.7,0.3,1.2,0.8c0.7,0.6,1.3,1.3,1.7,2.2c0.6,1.5,0.6,3.3-0.2,4.7c-0.2,0.4-0.5,0.8-0.8,1.2
		c-0.3,0.3-0.7,0.7-1.1,0.9c-0.6,0.4-1.2,0.7-1.9,0.8c-0.7,0.1-1.4,0.2-2.1,0c-0.3,0-0.5-0.1-0.7-0.1l-14.2-4.2
		c-0.2-0.1-0.4-0.1-0.7-0.3c-0.6-0.3-1.2-0.7-1.7-1.2c-0.5-0.5-0.9-1.1-1.2-1.7c-0.6-1.5-0.6-3.3,0.2-4.7c0.2-0.4,0.5-0.8,0.8-1.2
		c0.5-0.5,1-0.9,1.7-1.3c0.8-0.4,1.7-0.6,2.7-0.6c0.6,0,0.8,0.1,1.4,0.2l14.2,4.2C664.4,1659.3,664.6,1659.5,664.9,1659.5z
		 M700.4,1670.1c0.5,0.3,0.7,0.3,1.2,0.8c0.7,0.6,1.3,1.3,1.7,2.2c0.2,0.5,0.3,0.9,0.4,1.3c0.3,1.6-0.2,3.3-1.4,4.5
		c-0.3,0.3-0.7,0.7-1.1,0.9c-0.6,0.4-1.2,0.7-1.9,0.8c-0.7,0.1-1.4,0.2-2.1,0c-0.3,0-0.5-0.1-0.7-0.1l-14.2-4.2
		c-0.2-0.1-0.4-0.1-0.7-0.3c-0.6-0.3-1.2-0.7-1.7-1.2c-0.5-0.5-0.9-1.1-1.2-1.7c-0.6-1.5-0.6-3.3,0.2-4.7c0.2-0.4,0.5-0.8,0.8-1.2
		c0.5-0.5,1-0.9,1.7-1.3c0.8-0.4,1.7-0.6,2.7-0.6c0.6,0,0.8,0.1,1.4,0.2l14.2,4.2C699.9,1670,700.1,1670.1,700.4,1670.1z
		 M735.9,1680.7c0.2,0.1,0.4,0.2,0.6,0.3c0.6,0.3,1.1,0.8,1.5,1.4c0.3,0.4,0.5,0.8,0.7,1.2c0.6,1.5,0.6,3.3-0.2,4.7
		c-0.2,0.4-0.5,0.8-0.8,1.2c-0.5,0.5-1,0.9-1.7,1.3c-0.9,0.4-1.7,0.6-2.7,0.6c-0.6,0-0.8-0.1-1.4-0.2l-14.2-4.2
		c-0.6-0.2-0.7-0.2-1.2-0.6c-0.8-0.4-1.5-1.1-1.9-2c-0.4-0.6-0.6-1.3-0.7-2c-0.3-1.6,0.2-3.3,1.4-4.5c0.3-0.3,0.7-0.7,1.1-0.9
		c0.6-0.4,1.2-0.7,1.9-0.8c0.7-0.1,1.4-0.2,2.1,0c0.3,0,0.5,0.1,0.7,0.1l14.2,4.2C735.5,1680.6,735.7,1680.7,735.9,1680.7z
		 M771.4,1691.4c0.2,0.1,0.4,0.2,0.6,0.3c0.6,0.3,1.1,0.8,1.5,1.4c0.4,0.5,0.7,1.2,0.9,1.8c0.1,0.4,0.2,0.9,0.2,1.3
		c0,0.5,0,0.9-0.1,1.4c-0.3,1.6-1.4,3-2.9,3.7c-0.9,0.4-1.7,0.6-2.7,0.6c-0.6,0-0.8-0.1-1.4-0.2l-14.3-4.3c-0.6-0.2-0.7-0.2-1.2-0.6
		c-0.8-0.4-1.5-1.1-1.9-2c-0.4-0.6-0.6-1.3-0.7-2c-0.3-1.6,0.2-3.3,1.4-4.5c0.3-0.3,0.7-0.7,1.1-0.9c0.6-0.4,1.2-0.7,1.9-0.8
		c0.7-0.1,1.4-0.2,2.1,0c0.3,0,0.5,0.1,0.7,0.1l14.2,4.2C771,1691.2,771.2,1691.3,771.4,1691.4z M806.9,1702
		c0.2,0.1,0.4,0.2,0.6,0.3c0.6,0.3,1.1,0.8,1.5,1.4c1,1.3,1.4,3,1,4.6c-0.1,0.4-0.3,0.9-0.5,1.3c-0.2,0.4-0.5,0.8-0.8,1.2
		c-0.5,0.5-1,0.9-1.7,1.3c-0.9,0.4-1.7,0.6-2.7,0.6c-0.6,0-0.8-0.1-1.4-0.2l-14.2-4.2c-0.2-0.1-0.4-0.1-0.7-0.3
		c-0.6-0.3-1.2-0.7-1.7-1.2c-0.3-0.3-0.6-0.7-0.8-1.1c-0.8-1.4-1-3.1-0.4-4.7c0.3-0.7,0.6-1.3,1.1-1.8c0.5-0.5,1-0.9,1.7-1.3
		c0.8-0.4,1.7-0.6,2.7-0.6c0.6,0,0.8,0.1,1.4,0.2l14.2,4.2C806.5,1701.8,806.8,1701.9,806.9,1702z M614.8,1615.4
		c0.5,0.3,0.7,0.3,1.1,0.7c1.1,1,1.7,2.3,1.8,3.7c0.1,0.5,0,0.9-0.1,1.4c-0.1,0.2-0.1,0.4-0.1,0.7l-4.2,14.2
		c-0.2,0.6-0.2,0.7-0.6,1.2c-0.5,0.8-1.2,1.5-2,2c-0.6,0.4-1.3,0.6-2,0.7c-1.6,0.3-3.3-0.2-4.5-1.4c-0.4-0.3-0.7-0.7-0.9-1
		c-0.4-0.6-0.7-1.2-0.8-1.9c-0.1-0.7-0.2-1.3-0.1-2c0.1-0.2,0.1-0.4,0.1-0.7l4.2-14.2c0.1-0.2,0.1-0.4,0.3-0.7
		c0.2-0.4,0.4-0.8,0.7-1.2c1-1.3,2.6-2.1,4.2-2.1c0.5,0,0.9,0.1,1.4,0.1c0.2,0.1,0.4,0.1,0.7,0.2
		C614.3,1615.2,614.5,1615.3,614.8,1615.4z M818.2,1667.1c0.5,0.4,0.7,0.4,1.1,0.8c1.1,0.9,1.7,2.3,1.8,3.7c0.1,0.4,0,0.9-0.1,1.4
		c-0.1,0.2-0.1,0.4-0.1,0.7l-4.2,14.2c-0.1,0.2-0.1,0.4-0.3,0.7c-0.2,0.6-0.7,1.2-1.2,1.7c-0.5,0.5-1.1,0.9-1.8,1.2
		c-0.6,0.3-1.4,0.5-2,0.5c-0.5,0-0.9-0.1-1.4-0.1c-1.6-0.4-3-1.5-3.7-2.9c-0.4-0.8-0.6-1.7-0.6-2.7c0-0.6,0.1-0.7,0.2-1.4l4.2-14.2
		c0.1-0.2,0.1-0.4,0.3-0.7c0.2-0.4,0.4-0.8,0.7-1.2c1-1.3,2.6-2.1,4.2-2.1c0.5,0,0.9,0.1,1.4,0.1c0.2,0.1,0.4,0.1,0.7,0.2
		C817.7,1666.9,818,1667.1,818.2,1667.1z M625.4,1579.9c0.2,0.1,0.4,0.3,0.6,0.3c0.4,0.3,0.7,0.6,1,0.9c0.9,1.1,1.4,2.5,1.3,3.9
		c0,0.6-0.1,0.7-0.2,1.4l-4.2,14.2c-0.2,0.6-0.2,0.7-0.6,1.2c-0.5,0.8-1.2,1.5-2,2c-0.4,0.2-0.8,0.4-1.3,0.6
		c-1.5,0.4-3.3,0.2-4.7-0.8c-0.6-0.4-1.1-0.9-1.5-1.5c-0.4-0.6-0.7-1.2-0.8-1.9c-0.1-0.7-0.2-1.3-0.1-2c0.1-0.2,0.1-0.4,0.1-0.7
		l4.2-14.2c0.1-0.2,0.1-0.4,0.3-0.7c0.2-0.4,0.4-0.8,0.7-1.2c1-1.3,2.6-2.1,4.2-2.1c0.5,0,0.9,0.1,1.4,0.1c0.2,0.1,0.4,0.1,0.7,0.2
		C624.9,1579.7,625.1,1579.7,625.4,1579.9z M828.8,1631.6c0.5,0.4,0.7,0.4,1.1,0.8c1.1,0.9,1.7,2.3,1.8,3.7c0.1,0.4,0,0.9-0.1,1.4
		c-0.1,0.2-0.1,0.4-0.1,0.7l-4.2,14.2c-0.1,0.2-0.1,0.4-0.3,0.7c-0.2,0.6-0.7,1.2-1.2,1.7c-0.5,0.5-1.1,0.9-1.8,1.2
		c-1.6,0.7-3.3,0.6-4.7-0.2c-0.4-0.2-0.8-0.4-1.1-0.7c-0.5-0.5-1-1-1.3-1.7c-0.4-0.8-0.6-1.7-0.6-2.7c0-0.6,0.1-0.7,0.2-1.4
		l4.2-14.2c0.1-0.2,0.1-0.4,0.3-0.7c0.2-0.4,0.4-0.8,0.7-1.2c1-1.3,2.6-2.1,4.2-2.1c0.5,0,0.9,0.1,1.4,0.1c0.2,0.1,0.4,0.1,0.7,0.2
		C828.3,1631.4,828.6,1631.6,828.8,1631.6z M636,1544.4c0.2,0.1,0.4,0.3,0.6,0.3c0.4,0.3,0.7,0.6,1,0.9c0.9,1.1,1.4,2.5,1.3,3.9
		c0,0.6-0.1,0.7-0.2,1.4l-4.2,14.2c-0.2,0.6-0.2,0.7-0.6,1.2c-0.5,0.8-1.2,1.5-2,2c-0.6,0.4-1.3,0.6-2,0.7c-1.6,0.3-3.3-0.2-4.5-1.4
		c-0.4-0.3-0.7-0.7-0.9-1c-0.4-0.6-0.7-1.2-0.8-1.9c-0.1-0.7-0.2-1.3-0.1-2c0.1-0.2,0.1-0.4,0.1-0.7l4.2-14.2
		c0.1-0.2,0.1-0.4,0.3-0.7c0.2-0.4,0.4-0.8,0.7-1.2c1-1.3,2.6-2.1,4.2-2.1c0.5,0,0.9,0.1,1.4,0.1c0.2,0.1,0.4,0.1,0.7,0.2
		C635.6,1544.1,635.7,1544.2,636,1544.4z M839.4,1596c0.5,0.4,0.7,0.4,1.1,0.8c1.1,0.9,1.7,2.3,1.8,3.7c0.1,0.4,0,0.9-0.1,1.4
		c-0.1,0.2-0.1,0.4-0.1,0.7l-4.2,14.2c-0.1,0.2-0.1,0.4-0.3,0.7c-0.2,0.6-0.7,1.2-1.2,1.7c-0.5,0.5-1.1,0.9-1.8,1.2
		c-1.6,0.7-3.3,0.6-4.7-0.2c-0.4-0.2-0.8-0.4-1.1-0.7c-0.5-0.5-1-1-1.3-1.7c-0.4-0.8-0.6-1.7-0.6-2.7c0-0.6,0.1-0.7,0.2-1.4
		l4.2-14.2c0.1-0.2,0.1-0.4,0.3-0.7c0.2-0.4,0.4-0.8,0.7-1.2c1-1.3,2.6-2.1,4.2-2.1c0.5,0,0.9,0.1,1.4,0.1c0.2,0.1,0.4,0.1,0.7,0.2
		C838.9,1595.9,839.2,1596,839.4,1596z M646.6,1508.8c0.2,0.1,0.4,0.3,0.6,0.3c0.4,0.3,0.7,0.6,1,0.9c0.9,1.1,1.4,2.5,1.3,3.9
		c0,0.6-0.1,0.7-0.2,1.4l-4.2,14.2c-0.1,0.2-0.1,0.4-0.3,0.7c-0.3,0.7-0.7,1.2-1.2,1.7c-0.5,0.5-1.1,0.9-1.7,1.2
		c-0.5,0.2-0.9,0.3-1.3,0.3c-1.6,0.3-3.3-0.2-4.5-1.4c-0.5-0.5-1-1-1.3-1.7c-0.4-0.9-0.6-1.7-0.6-2.7c0-0.6,0.1-0.7,0.2-1.4
		l4.2-14.2c0.1-0.2,0.1-0.4,0.3-0.7c0.2-0.4,0.4-0.8,0.7-1.2c1-1.3,2.6-2.1,4.2-2.1c0.5,0,0.9,0.1,1.4,0.1c0.2,0.1,0.4,0.1,0.7,0.2
		C646.2,1508.6,646.3,1508.7,646.6,1508.8z M850,1560.5c0.2,0.1,0.4,0.3,0.6,0.4c0.4,0.3,0.7,0.6,1,0.9c0.9,1.1,1.4,2.5,1.3,3.9
		c0,0.6-0.1,0.7-0.2,1.4l-4.2,14.2c-0.1,0.2-0.1,0.4-0.3,0.7c-0.2,0.6-0.7,1.2-1.2,1.7c-1.2,1.1-2.8,1.7-4.5,1.6
		c-0.5,0-0.9-0.1-1.3-0.3c-0.7-0.3-1.2-0.6-1.8-1.1c-0.5-0.5-1-1-1.3-1.7c-0.4-0.8-0.6-1.7-0.6-2.7c0-0.6,0.1-0.7,0.2-1.4l4.2-14.2
		c0.1-0.2,0.1-0.4,0.3-0.7c0.2-0.4,0.4-0.8,0.7-1.2c1-1.3,2.6-2.1,4.2-2.1c0.5,0,0.9,0.1,1.4,0.1c0.2,0.1,0.4,0.1,0.7,0.2
		C849.6,1560.3,849.8,1560.5,850,1560.5z M657.2,1473.3c0.5,0.3,0.7,0.3,1.1,0.7c1.1,1,1.7,2.3,1.8,3.7c0.1,0.5,0,0.9-0.1,1.4
		c-0.1,0.2-0.1,0.4-0.1,0.7l-4.2,14.2c-0.1,0.2-0.1,0.4-0.3,0.7c-0.3,0.7-0.7,1.2-1.2,1.7c-1.2,1.1-2.8,1.7-4.5,1.6
		c-0.5,0-0.9-0.1-1.3-0.3c-0.7-0.3-1.2-0.6-1.8-1.1c-0.5-0.5-1-1-1.3-1.7c-0.4-0.9-0.6-1.7-0.6-2.7c0-0.6,0.1-0.7,0.2-1.4l4.2-14.2
		c0.1-0.2,0.1-0.4,0.3-0.7c0.2-0.4,0.4-0.8,0.7-1.2c1-1.3,2.6-2.1,4.2-2.1c0.5,0,0.9,0.1,1.4,0.1c0.2,0.1,0.4,0.1,0.7,0.2
		C656.8,1473.1,656.9,1473.2,657.2,1473.3z M860.6,1525c0.5,0.4,0.7,0.4,1.1,0.8c1.1,0.9,1.7,2.3,1.8,3.7c0.1,0.4,0,0.9-0.1,1.4
		c-0.1,0.2-0.1,0.4-0.1,0.7l-4.2,14.2c-0.1,0.2-0.1,0.4-0.3,0.7c-0.2,0.6-0.7,1.2-1.2,1.7c-1.2,1.1-2.8,1.7-4.5,1.6
		c-0.5,0-0.9-0.1-1.3-0.3c-0.7-0.3-1.2-0.6-1.8-1.1s-1-1-1.3-1.7c-0.4-0.8-0.6-1.7-0.6-2.7c0-0.6,0.1-0.7,0.2-1.4l4.2-14.2
		c0.1-0.2,0.1-0.4,0.3-0.7c0.2-0.4,0.4-0.8,0.7-1.2c1-1.3,2.6-2.1,4.2-2.1c0.5,0,0.9,0.1,1.4,0.1c0.2,0.1,0.4,0.1,0.7,0.2
		C860.2,1524.8,860.4,1524.9,860.6,1525z M667.8,1437.7c0.5,0.3,0.7,0.3,1.1,0.7c1.1,1,1.7,2.3,1.8,3.7c0.1,0.5,0,0.9-0.1,1.4
		c-0.1,0.2-0.1,0.4-0.1,0.7l-4.2,14.2c-0.1,0.2-0.1,0.4-0.3,0.7c-0.3,0.7-0.7,1.2-1.2,1.7c-0.5,0.5-1.1,0.9-1.7,1.2
		c-1.5,0.6-3.3,0.6-4.7-0.2c-0.4-0.2-0.8-0.4-1.1-0.7c-0.5-0.5-1-1-1.3-1.7c-0.4-0.9-0.6-1.7-0.6-2.7c0-0.6,0.1-0.7,0.2-1.4
		l4.2-14.2c0.1-0.2,0.1-0.4,0.3-0.7c0.2-0.4,0.4-0.8,0.7-1.2c1-1.3,2.6-2.1,4.2-2.1c0.5,0,0.9,0.1,1.4,0.1c0.2,0.1,0.4,0.1,0.7,0.2
		C667.4,1437.5,667.5,1437.7,667.8,1437.7z M872.1,1485.3c0.2,0.1,0.4,0.2,0.6,0.3c0.6,0.3,1.1,0.8,1.5,1.4c1.2,1.5,1.4,3.5,0.8,5.2
		c-0.1,0.5-0.4,0.8-0.6,1.2c-0.1,0.1-0.1,0.2-0.2,0.3l0,0.1c0,0.2,0,0.4,0,0.7c0,0.6-0.1,0.7-0.2,1.4l-4.2,14.2
		c-0.1,0.2-0.1,0.4-0.3,0.7c-0.2,0.6-0.7,1.2-1.2,1.7c-0.3,0.3-0.7,0.6-1.1,0.8c-1.4,0.9-3.2,1-4.7,0.4c-0.7-0.3-1.2-0.6-1.8-1.1
		s-1-1-1.3-1.7c-0.4-0.8-0.6-1.7-0.6-2.7c0-0.6,0.1-0.7,0.2-1.4l3.8-12.8l-8.9-2.7l-0.7-0.3c-0.2-0.1-0.4-0.2-0.6-0.3
		c-0.6-0.3-1.1-0.8-1.5-1.4c-0.4-0.5-0.7-1.2-0.9-1.8c-0.5-1.6-0.2-3.3,0.8-4.6c0.3-0.4,0.6-0.8,0.9-1c0.4-0.3,0.7-0.6,1.2-0.8
		c0.9-0.4,1.7-0.6,2.7-0.6c0.6,0,0.8,0.1,1.4,0.2l14.2,4.2C871.7,1485.2,871.8,1485.3,872.1,1485.3z M694.4,1432.3
		c0.5,0.3,0.7,0.3,1.2,0.8c0.7,0.6,1.3,1.3,1.7,2.2c0.3,0.7,0.4,1.3,0.5,2.1c0,0.5,0,0.9-0.1,1.4c-0.1,0.4-0.3,0.9-0.5,1.3
		c-0.8,1.5-2.2,2.5-3.8,2.9c-0.7,0.1-1.4,0.2-2.1,0c-0.3,0-0.5-0.1-0.7-0.1l-14.2-4.2c-0.2-0.1-0.4-0.1-0.7-0.3
		c-0.6-0.3-1.2-0.7-1.7-1.2c-1.1-1.2-1.7-2.8-1.6-4.5c0.1-0.5,0.1-0.9,0.3-1.3c0.3-0.7,0.6-1.3,1.1-1.8c0.5-0.5,1-0.9,1.7-1.3
		c0.9-0.4,1.7-0.6,2.7-0.6c0.6,0,0.8,0.1,1.4,0.2l14.2,4.2C694,1432.2,694.2,1432.2,694.4,1432.3z M729.9,1442.9
		c0.5,0.3,0.7,0.3,1.2,0.8c0.7,0.6,1.3,1.3,1.7,2.2c0.2,0.5,0.3,0.9,0.4,1.3c0.3,1.6-0.2,3.3-1.4,4.5c-0.3,0.3-0.7,0.7-1.1,0.9
		c-0.6,0.4-1.2,0.7-1.9,0.8c-0.7,0.1-1.4,0.2-2.1,0c-0.3,0-0.5-0.1-0.7-0.1l-14.2-4.2c-0.6-0.2-0.7-0.2-1.2-0.6
		c-0.8-0.4-1.5-1.1-1.9-2c-0.2-0.4-0.4-0.8-0.6-1.3c-0.5-1.6-0.2-3.3,0.8-4.6c0.4-0.6,0.9-1.1,1.5-1.5c0.6-0.4,1.2-0.7,1.9-0.8
		c0.7-0.1,1.4-0.2,2.1,0c0.3,0,0.5,0.1,0.7,0.1l14.2,4.2C729.5,1442.8,729.8,1442.8,729.9,1442.9z M765.5,1453.5
		c0.5,0.3,0.7,0.3,1.2,0.8c0.7,0.6,1.3,1.3,1.7,2.2c0.3,0.7,0.4,1.3,0.5,2.1c0,0.5,0,0.9-0.1,1.4c-0.1,0.4-0.3,0.9-0.5,1.3
		c-0.8,1.5-2.2,2.5-3.8,2.9c-0.7,0.1-1.4,0.2-2.1,0c-0.3,0-0.5-0.1-0.7-0.1l-14.2-4.2c-0.2-0.1-0.4-0.1-0.7-0.3
		c-0.6-0.3-1.2-0.7-1.7-1.2c-0.3-0.3-0.6-0.7-0.8-1.1c-0.8-1.4-1-3.1-0.4-4.7c0.3-0.7,0.6-1.3,1.1-1.8c0.5-0.5,1-0.9,1.7-1.3
		c0.9-0.4,1.7-0.6,2.7-0.6c0.6,0,0.8,0.1,1.4,0.2l14.2,4.2C765.1,1453.4,765.3,1453.4,765.5,1453.5z M801,1464.1
		c0.5,0.3,0.7,0.3,1.2,0.8c0.7,0.6,1.3,1.3,1.7,2.2c0.3,0.7,0.4,1.3,0.5,2.1c0,0.5,0,0.9-0.1,1.4c-0.1,0.4-0.3,0.9-0.5,1.3
		c-0.8,1.5-2.2,2.5-3.8,2.9c-0.7,0.1-1.4,0.2-2.1,0c-0.3,0-0.5-0.1-0.7-0.1l-14.2-4.2c-0.2-0.1-0.4-0.1-0.7-0.3
		c-0.6-0.3-1.2-0.7-1.7-1.2c-1.1-1.2-1.7-2.8-1.6-4.5c0.1-0.5,0.1-0.9,0.3-1.3c0.3-0.7,0.6-1.3,1.1-1.8c0.5-0.5,1-0.9,1.7-1.3
		c0.9-0.4,1.7-0.6,2.7-0.6c0.6,0,0.8,0.1,1.4,0.2l14.2,4.2C800.6,1464,800.8,1464.1,801,1464.1z M836.6,1474.7
		c0.5,0.3,0.7,0.3,1.2,0.8c0.7,0.6,1.3,1.3,1.7,2.2c0.2,0.5,0.3,0.9,0.4,1.3c0.3,1.6-0.2,3.3-1.4,4.5c-0.3,0.3-0.7,0.7-1.1,0.9
		c-0.6,0.4-1.2,0.7-1.9,0.8c-0.7,0.1-1.4,0.2-2.1,0c-0.3,0-0.5-0.1-0.7-0.1l-14.2-4.2c-0.2-0.1-0.4-0.1-0.7-0.3
		c-0.6-0.3-1.2-0.7-1.7-1.2c-1.1-1.2-1.7-2.8-1.6-4.5c0.1-0.5,0.1-0.9,0.3-1.3c0.3-0.7,0.6-1.3,1.1-1.8c0.5-0.5,1-0.9,1.7-1.3
		c0.9-0.4,1.7-0.6,2.7-0.6c0.6,0,0.8,0.1,1.4,0.2l14.2,4.2C836.1,1474.6,836.3,1474.7,836.6,1474.7z"/>
</g>
<g transform="matrix(1,0,0,1,-477.5,-1192.13)">
	<path class="st3" d="M785.9,1593.1c0.8,0.1,1,0,1.9,0.3c1.2,0.3,2.3,0.9,3.3,1.7c0.7,0.7,1.2,1.4,1.7,2.3c0.2,0.6,0.5,1.1,0.6,1.7
		c0.5,2.1-0.1,4.3-1.5,6.1c-0.4,0.5-0.8,0.9-1.3,1.3c-0.7,0.5-1.6,1-2.5,1.2c-0.3,0.1-0.6,0.2-0.9,0.2l-19.5,2.6c-0.9,0-1,0.1-1.8,0
		c-1.2-0.1-2.4-0.5-3.4-1.4c-0.8-0.5-1.4-1.2-1.9-2c-1.2-1.8-1.5-4.1-0.8-6.2c0.2-0.5,0.4-1.2,0.8-1.7c0.5-0.8,1.1-1.4,1.9-2
		c0.7-0.5,1.6-1,2.5-1.2c0.3-0.1,0.6-0.2,0.9-0.2l19.3-2.6C785.3,1593.1,785.6,1593.1,785.9,1593.1z M834.7,1586.6
		c0.8,0.1,1,0,1.9,0.3c1.2,0.3,2.3,0.9,3.3,1.7c1.6,1.5,2.5,3.7,2.3,5.8c0,0.6-0.2,1.2-0.4,1.9c-0.2,0.5-0.4,1.2-0.8,1.7
		c-0.5,0.8-1.1,1.4-1.9,2c-0.7,0.5-1.6,1-2.5,1.2c-0.3,0.1-0.6,0.2-0.9,0.2l-19.5,2.6c-0.3,0-0.6,0.1-0.9,0c-1,0-1.8-0.2-2.8-0.5
		c-0.8-0.3-1.7-0.8-2.4-1.4c-1.6-1.5-2.5-3.7-2.3-5.8c0-0.6,0.2-1.2,0.4-1.9c0.3-0.9,0.7-1.7,1.3-2.4c0.7-1,1.8-1.7,2.9-2.2
		c0.7-0.3,1-0.3,1.8-0.5l19.5-2.6C834,1586.6,834.4,1586.6,834.7,1586.6z M883.4,1580.1c0.8,0.1,1,0,1.9,0.3
		c1.2,0.3,2.3,0.9,3.3,1.7c0.5,0.5,0.8,0.9,1.2,1.4c1.2,1.8,1.5,4.1,0.8,6.2c-0.2,0.5-0.4,1.2-0.8,1.7c-0.5,0.8-1.1,1.4-1.9,2
		c-0.7,0.5-1.6,1-2.5,1.2c-0.3,0.1-0.6,0.2-0.9,0.2l-19.5,2.6c-0.3,0-0.6,0.1-0.9,0c-1,0-1.8-0.2-2.8-0.5c-0.8-0.3-1.7-0.8-2.4-1.4
		c-1.6-1.5-2.5-3.7-2.3-5.8c0-0.6,0.2-1.2,0.4-1.9c0.3-0.9,0.7-1.7,1.3-2.4c0.7-1,1.8-1.7,2.9-2.2c0.7-0.3,1-0.3,1.8-0.5l19.5-2.6
		C882.8,1580.1,883.1,1580.2,883.4,1580.1z M932.1,1573.6c0.3,0.1,0.6,0,1,0c0.9,0.1,1.8,0.4,2.6,0.9c0.6,0.3,1,0.6,1.5,1
		c1.6,1.5,2.5,3.7,2.3,5.8c0,0.6-0.2,1.2-0.4,1.9c-0.3,0.9-0.7,1.7-1.3,2.4c-0.8,1-1.8,1.7-2.9,2.2c-0.7,0.4-1,0.3-1.8,0.5
		l-19.5,2.6c-0.9,0-1,0.1-1.8,0c-1.2-0.1-2.4-0.5-3.4-1.4c-0.8-0.5-1.4-1.2-1.9-2c-1.2-1.8-1.5-4.1-0.8-6.2c0.2-0.5,0.4-1.2,0.8-1.7
		c0.5-0.8,1.1-1.4,1.9-2c0.7-0.5,1.6-1,2.5-1.2c0.3-0.1,0.6-0.2,0.9-0.2l19.5-2.6C931.5,1573.6,931.9,1573.7,932.1,1573.6z
		 M980.9,1567.1c0.3,0.1,0.6,0,1,0c0.9,0.1,1.8,0.4,2.6,0.9c0.8,0.4,1.5,1,2.1,1.7c0.4,0.5,0.7,1,1,1.5c0.2,0.6,0.5,1.1,0.6,1.7
		c0.5,2.1-0.1,4.3-1.5,6.1c-0.8,1-1.8,1.7-2.9,2.2c-0.7,0.4-1,0.3-1.8,0.5l-19.6,2.6c-0.9,0-1,0.1-1.8,0c-1.2-0.1-2.4-0.5-3.4-1.4
		c-0.8-0.5-1.4-1.2-1.9-2c-1.2-1.8-1.5-4.1-0.8-6.2c0.2-0.5,0.4-1.2,0.8-1.7c0.5-0.8,1.1-1.4,1.9-2c0.7-0.5,1.6-1,2.5-1.2
		c0.3-0.1,0.6-0.2,0.9-0.2l19.5-2.6C980.3,1567.1,980.6,1567.2,980.9,1567.1z M1029.6,1560.7c0.3,0.1,0.6,0,1,0
		c0.9,0.1,1.8,0.4,2.6,0.9c2,1,3.3,2.9,3.7,5.1c0.1,0.6,0.2,1.2,0.2,1.8c0,0.6-0.2,1.2-0.4,1.9c-0.3,0.9-0.7,1.7-1.3,2.4
		c-0.8,1-1.8,1.7-2.9,2.2c-0.7,0.4-1,0.3-1.8,0.5l-19.5,2.6c-0.3,0-0.6,0.1-0.9,0c-1,0-1.8-0.2-2.8-0.5c-0.5-0.2-1.1-0.5-1.6-0.9
		c-1.7-1.2-2.9-3.2-3.1-5.5c0-0.9,0-1.9,0.3-2.7c0.3-0.9,0.7-1.7,1.3-2.4c0.7-1,1.8-1.7,2.9-2.2c0.7-0.3,1-0.3,1.8-0.5l19.5-2.6
		C1029,1560.7,1029.4,1560.7,1029.6,1560.7z M750.1,1560.4c0.8,0.1,1,0,1.8,0.3c1.8,0.6,3.3,1.8,4.2,3.4c0.3,0.6,0.5,1.1,0.7,1.7
		c0,0.3,0.1,0.6,0.2,0.9l2.6,19.5c0,0.9,0.1,1,0,1.8c-0.2,1.2-0.6,2.4-1.4,3.5c-0.5,0.8-1.2,1.4-2,1.9c-1.8,1.2-4.1,1.5-6.2,0.8
		c-0.6-0.2-1.2-0.4-1.7-0.7c-0.8-0.5-1.4-1.1-2-1.9c-0.5-0.7-1-1.5-1.2-2.4c0-0.3-0.1-0.6-0.2-0.9l-2.6-19.5c0-0.3-0.1-0.6,0-0.9
		c0-0.6,0.1-1.2,0.2-1.8c0.5-2.1,2-3.9,3.9-4.9c0.6-0.2,1.2-0.4,1.7-0.6c0.3,0,0.6-0.1,0.9-0.1
		C749.5,1560.4,749.7,1560.5,750.1,1560.4z M1024.3,1512.4c0.8,0.2,1.1,0.1,1.8,0.4c1.8,0.5,3.3,1.8,4.2,3.4
		c0.3,0.5,0.5,1.1,0.7,1.7c0,0.3,0.1,0.6,0.2,0.9l2.6,19.5c0,0.3,0.1,0.6,0,0.9c0,0.9-0.2,1.8-0.5,2.7c-0.3,0.9-0.8,1.7-1.5,2.4
		c-0.6,0.7-1.4,1.3-2.2,1.7c-0.6,0.2-1.2,0.4-1.7,0.6c-2.1,0.4-4.4-0.2-6.1-1.5c-1-0.7-1.7-1.8-2.2-2.9c-0.3-0.7-0.3-0.9-0.5-1.8
		l-2.6-19.5c0-0.3-0.1-0.6,0-0.9c0-0.6,0.1-1.2,0.2-1.8c0.5-2.1,2-3.9,3.9-4.9c0.6-0.2,1.2-0.4,1.7-0.6c0.3,0,0.6-0.1,0.9-0.1
		C1023.7,1512.4,1024,1512.4,1024.3,1512.4z M743.6,1511.7c0.3,0.1,0.6,0.1,0.9,0.1c0.6,0.1,1.2,0.4,1.7,0.6c1.7,0.8,3.1,2.2,3.7,4
		c0.3,0.7,0.3,0.9,0.5,1.8l2.6,19.5c0,0.9,0.1,1,0,1.8c-0.2,1.2-0.6,2.4-1.4,3.5c-0.4,0.5-0.7,1-1.3,1.4c-1.6,1.3-3.9,2-6.1,1.6
		c-0.9-0.1-1.8-0.5-2.6-1c-0.8-0.5-1.4-1.1-2-1.9c-0.5-0.7-1-1.5-1.2-2.4c0-0.3-0.1-0.6-0.2-0.9l-2.6-19.5c0-0.3-0.1-0.6,0-0.9
		c0-0.6,0.1-1.2,0.2-1.8c0.5-2.1,2-3.9,3.9-4.9c0.6-0.2,1.2-0.4,1.7-0.6c0.3,0,0.6-0.1,0.9-0.1
		C743,1511.7,743.3,1511.7,743.6,1511.7z M1017.8,1463.7c0.8,0.2,1.1,0.1,1.8,0.4c1.8,0.5,3.3,1.8,4.2,3.4c0.3,0.5,0.5,1.1,0.7,1.7
		c0,0.3,0.1,0.6,0.2,0.9l2.6,19.5c0,0.3,0.1,0.6,0,0.9c0,0.9-0.2,1.8-0.5,2.7c-0.3,0.9-0.8,1.7-1.5,2.4c-1.5,1.7-3.7,2.5-5.8,2.3
		c-0.6,0-1.2-0.1-1.8-0.3c-0.9-0.3-1.7-0.7-2.4-1.3c-1-0.7-1.7-1.8-2.2-2.9c-0.3-0.7-0.3-0.9-0.5-1.8l-2.6-19.5c0-0.3-0.1-0.6,0-0.9
		c0-0.6,0.1-1.2,0.2-1.8c0.5-2.1,2-3.9,3.9-4.9c0.6-0.2,1.2-0.4,1.7-0.6c0.3,0,0.6-0.1,0.9-0.1
		C1017.2,1463.7,1017.5,1463.7,1017.8,1463.7z M737.1,1463c0.3,0.1,0.6,0.1,0.9,0.1c0.6,0.1,1.2,0.4,1.7,0.6c1.7,0.8,3.1,2.2,3.7,4
		c0.3,0.7,0.3,0.9,0.5,1.8l2.6,19.5c0,0.9,0.1,1,0,1.8c-0.2,1.2-0.6,2.4-1.4,3.5c-0.5,0.8-1.2,1.4-2,1.9c-1.8,1.2-4.1,1.5-6.2,0.8
		c-0.6-0.2-1.2-0.4-1.7-0.7c-0.8-0.5-1.4-1.1-2-1.9c-0.5-0.7-1-1.5-1.2-2.4c0-0.3-0.1-0.6-0.2-0.9l-2.6-19.5c0-0.3-0.1-0.6,0-0.9
		c0-0.6,0.1-1.2,0.2-1.8c0.5-2.1,2-3.9,3.9-4.9c0.6-0.2,1.2-0.4,1.7-0.6c0.3,0,0.6-0.1,0.9-0.1
		C736.5,1462.9,736.8,1462.9,737.1,1463z M1011.3,1414.9c0.8,0.2,1.1,0.1,1.8,0.4c1.8,0.5,3.3,1.8,4.2,3.4c0.3,0.5,0.5,1.1,0.7,1.7
		c0,0.3,0.1,0.6,0.2,0.9l2.6,19.5c0,0.3,0.1,0.6,0,0.9c0,0.9-0.2,1.8-0.5,2.7c-0.3,0.9-0.8,1.7-1.5,2.4c-1.5,1.7-3.7,2.5-5.8,2.3
		c-0.6,0-1.2-0.1-1.8-0.3c-0.9-0.3-1.7-0.7-2.4-1.3c-1-0.7-1.7-1.8-2.2-2.9c-0.3-0.7-0.3-0.9-0.5-1.8l-2.6-19.5c0-0.3-0.1-0.6,0-0.9
		c0-0.6,0.1-1.2,0.2-1.8c0.5-2.1,2-3.9,3.9-4.9c0.6-0.2,1.2-0.4,1.7-0.6c0.3,0,0.6-0.1,0.9-0.1
		C1010.7,1415,1011,1414.9,1011.3,1414.9z M730.6,1414.2c0.3,0.1,0.6,0.1,0.9,0.1c0.6,0.1,1.2,0.4,1.7,0.6c1.7,0.8,3.1,2.2,3.7,4
		c0.3,0.7,0.3,0.9,0.5,1.8l2.6,19.5c0,0.3,0.1,0.6,0,0.9c0,0.9-0.2,1.8-0.5,2.7c-0.3,0.9-0.8,1.7-1.4,2.4c-0.5,0.5-0.9,0.8-1.4,1.1
		c-1.8,1.2-4.1,1.5-6.2,0.8c-0.9-0.3-1.7-0.7-2.4-1.3c-1-0.8-1.7-1.8-2.2-3c-0.3-0.7-0.3-0.9-0.5-1.8l-2.6-19.5c0-0.3-0.1-0.6,0-0.9
		c0-0.6,0.1-1.2,0.2-1.8c0.5-2.1,2-3.9,3.9-4.9c0.6-0.2,1.2-0.4,1.7-0.6c0.3,0,0.6-0.1,0.9-0.1
		C730,1414.2,730.3,1414.2,730.6,1414.2z M1004.8,1366.2c0.3,0.1,0.6,0.1,0.9,0.1c0.6,0.1,1.2,0.4,1.7,0.6c1.7,0.8,3.1,2.2,3.7,4
		c0.3,0.7,0.3,0.9,0.5,1.8l2.6,19.5c0,0.3,0.1,0.6,0,0.9c0,0.9-0.2,1.8-0.5,2.7c-0.8,2-2.5,3.6-4.5,4.3c-0.6,0.2-1.2,0.3-1.8,0.4
		c-0.9,0-1.8,0-2.7-0.3s-1.7-0.7-2.4-1.3c-1-0.7-1.7-1.8-2.2-2.9c-0.3-0.7-0.3-0.9-0.5-1.8l-2.6-19.5c0-0.3-0.1-0.6,0-0.9
		c0-0.6,0.1-1.2,0.2-1.8c0.5-2.1,2-3.9,3.9-4.9c0.6-0.2,1.2-0.4,1.7-0.6c0.3,0,0.6-0.1,0.9-0.1
		C1004.2,1366.2,1004.6,1366.2,1004.8,1366.2z M724.1,1365.5c0.8,0.1,1,0,1.8,0.3c1.8,0.6,3.3,1.8,4.2,3.4c0.3,0.6,0.5,1.1,0.7,1.7
		c0,0.3,0.1,0.6,0.2,0.9l2.6,19.5c0,0.3,0.1,0.6,0,0.9c0,0.9-0.2,1.8-0.5,2.7c-0.8,2-2.5,3.6-4.5,4.3c-0.6,0.2-1.2,0.3-1.8,0.4
		c-0.9,0-1.8,0-2.7-0.3c-0.9-0.3-1.7-0.7-2.4-1.3c-1-0.8-1.7-1.8-2.2-3c-0.3-0.7-0.3-0.9-0.5-1.8l-2.6-19.5c0-0.3-0.1-0.6,0-0.9
		c0-0.6,0.1-1.2,0.2-1.8c0.5-2.1,2-3.9,3.9-4.9c0.6-0.2,1.2-0.4,1.7-0.6c0.3,0,0.6-0.1,0.9-0.1
		C723.5,1365.5,723.8,1365.4,724.1,1365.5z M998.3,1317.4c0.8,0.2,1.1,0.1,1.8,0.4c1.8,0.5,3.3,1.8,4.2,3.4c0.3,0.5,0.5,1.1,0.7,1.7
		c0,0.3,0.1,0.6,0.2,0.9l2.6,19.5c0,0.3,0.1,0.6,0,0.9c0,0.9-0.2,1.8-0.5,2.7c-0.8,2-2.5,3.6-4.5,4.3c-0.6,0.2-1.2,0.3-1.8,0.4
		c-0.9,0-1.8,0-2.7-0.3s-1.7-0.7-2.4-1.3c-1-0.7-1.7-1.8-2.2-2.9c-0.3-0.7-0.3-0.9-0.5-1.8l-2.6-19.5c0-0.3-0.1-0.6,0-0.9
		c0-0.6,0.1-1.2,0.2-1.8c0.5-2.1,2-3.9,3.9-4.9c0.6-0.2,1.2-0.4,1.7-0.6c0.3,0,0.6-0.1,0.9-0.1
		C997.7,1317.5,998.1,1317.4,998.3,1317.4z M717.7,1316.7c0.8,0.1,1,0,1.8,0.3c1.8,0.6,3.3,1.8,4.2,3.4c0.3,0.6,0.5,1.1,0.7,1.7
		c0,0.3,0.1,0.6,0.2,0.9l2.6,19.5c0,0.3,0.1,0.6,0,0.9c0,0.9-0.2,1.8-0.5,2.7c-0.3,0.9-0.8,1.7-1.4,2.4c-1.5,1.6-3.7,2.5-5.8,2.3
		c-0.6,0-1.2-0.1-1.8-0.3c-0.9-0.3-1.7-0.7-2.4-1.3c-1-0.8-1.7-1.8-2.2-3c-0.3-0.7-0.3-0.9-0.5-1.8l-2.6-19.5c0-0.3-0.1-0.6,0-0.9
		c0-0.6,0.1-1.2,0.2-1.8c0.5-2.1,2-3.9,3.9-4.9c0.6-0.2,1.2-0.4,1.7-0.6c0.3,0,0.6-0.1,0.9-0.1
		C717,1316.7,717.3,1316.7,717.7,1316.7z M990.7,1263.2c0.4,0,0.6,0,1,0c0.9,0.1,1.8,0.4,2.6,0.9c2.2,1.2,3.7,3.5,3.8,5.9
		c0.1,0.7,0,1.2-0.1,1.8c-0.1,0.2,0,0.4-0.1,0.5l0,0.1c0.1,0.2,0.2,0.5,0.4,0.8c0.3,0.7,0.3,0.9,0.5,1.8l2.6,19.5
		c0,0.3,0.1,0.6,0,0.9c0,0.9-0.2,1.8-0.5,2.7c-0.2,0.5-0.5,1.1-0.9,1.6c-1.2,1.8-3.3,3-5.5,3.1c-0.9,0-1.8,0-2.7-0.3
		c-0.9-0.3-1.7-0.7-2.4-1.3c-1-0.7-1.7-1.8-2.2-2.9c-0.3-0.7-0.3-0.9-0.5-1.8l-2.3-17.6l-12.2,1.6l-0.9,0c-0.3-0.1-0.6,0-1,0
		c-0.9-0.1-1.8-0.4-2.6-0.9c-0.8-0.4-1.5-1-2.1-1.7c-1.4-1.6-2-3.9-1.6-6c0.1-0.6,0.3-1.2,0.6-1.7c0.3-0.6,0.5-1.1,1-1.6
		c0.8-1,1.8-1.7,2.9-2.2c0.7-0.3,1-0.3,1.8-0.5l19.5-2.6C990.1,1263.3,990.3,1263.2,990.7,1263.2z M746.9,1295.6
		c0.8,0.1,1,0,1.9,0.3c1.2,0.3,2.3,0.9,3.3,1.7c0.7,0.7,1.2,1.4,1.7,2.3c0.2,0.6,0.5,1.1,0.6,1.7c0.1,0.6,0.2,1.2,0.2,1.8
		c-0.1,2.2-1.3,4.2-3,5.5c-0.7,0.5-1.6,1-2.5,1.2c-0.3,0.1-0.6,0.2-0.9,0.2l-19.5,2.6c-0.3,0-0.6,0.1-0.9,0c-1,0-1.8-0.2-2.8-0.5
		c-2-0.8-3.6-2.5-4.3-4.5c-0.2-0.6-0.3-1.2-0.3-1.8c0-0.9,0-1.9,0.3-2.7c0.3-0.9,0.7-1.7,1.3-2.4c0.8-1,1.8-1.7,2.9-2.2
		c0.7-0.3,1-0.3,1.8-0.5l19.5-2.6C746.3,1295.7,746.6,1295.7,746.9,1295.6z M795.6,1289.1c0.8,0.1,1,0,1.9,0.3
		c1.2,0.3,2.3,0.9,3.3,1.7c0.5,0.5,0.8,0.9,1.2,1.4c1.2,1.8,1.5,4.1,0.8,6.2c-0.2,0.5-0.4,1.2-0.8,1.7c-0.5,0.8-1.1,1.4-1.9,2
		c-0.7,0.5-1.6,1-2.5,1.2c-0.3,0.1-0.6,0.2-0.9,0.2l-19.4,2.6c-0.9,0-1,0.1-1.8,0c-1.2-0.1-2.4-0.5-3.4-1.4c-0.5-0.4-1-0.7-1.4-1.3
		c-1.4-1.6-2-3.9-1.6-6c0.1-0.9,0.5-1.8,1-2.7c0.5-0.8,1.1-1.4,1.9-2c0.7-0.5,1.6-1,2.5-1.2c0.3-0.1,0.6-0.2,0.9-0.2l19.5-2.6
		C795,1289.2,795.4,1289.2,795.6,1289.1z M844.4,1282.6c0.8,0.1,1,0,1.9,0.3c1.2,0.3,2.3,0.9,3.3,1.7c0.7,0.7,1.2,1.4,1.7,2.3
		c0.2,0.6,0.5,1.1,0.6,1.7c0.1,0.6,0.2,1.2,0.2,1.8c-0.1,2.2-1.3,4.2-3,5.5c-0.7,0.5-1.6,1-2.5,1.2c-0.3,0.1-0.6,0.2-0.9,0.2
		L826,1300c-0.3,0-0.6,0.1-0.9,0c-1,0-1.8-0.2-2.8-0.5c-0.5-0.2-1.1-0.5-1.6-0.9c-1.7-1.2-2.9-3.2-3.1-5.5c0-0.9,0-1.9,0.3-2.7
		c0.3-0.9,0.7-1.7,1.3-2.4c0.8-1,1.8-1.7,2.9-2.2c0.7-0.3,1-0.3,1.8-0.5l19.5-2.6C843.8,1282.7,844.1,1282.7,844.4,1282.6z
		 M893.2,1276.2c0.8,0.1,1,0,1.9,0.3c1.2,0.3,2.3,0.9,3.3,1.7c0.7,0.7,1.2,1.4,1.7,2.3c0.2,0.6,0.5,1.1,0.6,1.7
		c0.1,0.6,0.2,1.2,0.2,1.8c-0.1,2.2-1.3,4.2-3,5.5c-0.7,0.5-1.6,1-2.5,1.2c-0.3,0.1-0.6,0.2-0.9,0.2l-19.5,2.6c-0.3,0-0.6,0.1-0.9,0
		c-1,0-1.8-0.2-2.8-0.5c-2-0.8-3.6-2.5-4.3-4.5c-0.2-0.6-0.3-1.2-0.3-1.8c0-0.9,0-1.9,0.3-2.7c0.3-0.9,0.7-1.7,1.3-2.4
		c0.8-1,1.8-1.7,2.9-2.2c0.7-0.3,1-0.3,1.8-0.5l19.5-2.6C892.6,1276.2,892.9,1276.2,893.2,1276.2z M942,1269.7c0.8,0.1,1,0,1.9,0.3
		c1.2,0.3,2.3,0.9,3.3,1.7c0.5,0.5,0.8,0.9,1.2,1.4c1.2,1.8,1.5,4.1,0.8,6.2c-0.2,0.5-0.4,1.2-0.8,1.7c-0.5,0.8-1.1,1.4-1.9,2
		c-0.7,0.5-1.6,1-2.5,1.2c-0.3,0.1-0.6,0.2-0.9,0.2l-19.5,2.6c-0.3,0-0.6,0.1-0.9,0c-1,0-1.8-0.2-2.8-0.5c-2-0.8-3.6-2.5-4.3-4.5
		c-0.2-0.6-0.3-1.2-0.3-1.8c0-0.9,0-1.9,0.3-2.7c0.3-0.9,0.7-1.7,1.3-2.4c0.8-1,1.8-1.7,2.9-2.2c0.7-0.3,1-0.3,1.8-0.5l19.5-2.6
		C941.3,1269.8,941.6,1269.7,942,1269.7z"/>
</g>
</svg>
