<?xml version="1.0" encoding="utf-8"?>
<!-- Generator: Adobe Illustrator 21.0.0, SVG Export Plug-In . SVG Version: 6.00 Build 0)  -->
<svg version="1.1" id="Layer_1" xmlns="http://www.w3.org/2000/svg" xmlns:xlink="http://www.w3.org/1999/xlink" x="0px" y="0px"
	 viewBox="0 0 595.3 841.9" style="enable-background:new 0 0 595.3 841.9;" xml:space="preserve">
<style type="text/css">
	.st0{fill:#FFF100;}
	.st1{fill:#5CB85C;}
	.st2{fill:#B2D78D;}
</style>
<g id="Rectangle.-2" transform="matrix(1,0,0,1,-477.5,-1192.13)">
	<rect x="686.4" y="1535.1" class="st0" width="125.9" height="206.1"/>
</g>
<g transform="matrix(1,0,0,1,-477.5,-1192.13)">
	<path class="st1" d="M1015.9,1386.2v383.5H657.8v-383.5C777.2,1386.2,896.5,1386.2,1015.9,1386.2z M692.1,1735.4h289.4v-314.8
		H692.1C692.1,1525.5,692.1,1630.5,692.1,1735.4z"/>
</g>
<g transform="matrix(1,0,0,1,-477.5,-1192.13)">
	<path class="st2" d="M524,1875.7c0.9,0.2,1.2,0.2,2.1,0.6c1.3,0.5,2.5,1.4,3.5,2.5c0.7,0.9,1.2,1.8,1.6,2.9
		c0.2,0.7,0.4,1.4,0.4,2.1c0.2,2.5-0.8,5-2.7,6.8c-0.5,0.5-1.1,0.9-1.7,1.3c-0.9,0.5-2,0.9-3.1,1c-0.4,0.1-0.7,0.1-1.1,0.1h-22.9
		c-1-0.1-1.2,0-2.1-0.3c-1.4-0.3-2.7-1-3.7-2.1c-0.8-0.7-1.4-1.6-1.9-2.6c-1.1-2.3-1.1-5,0-7.3c0.3-0.6,0.7-1.3,1.2-1.8
		c0.7-0.8,1.5-1.5,2.5-2c0.9-0.5,2-0.9,3.1-1c0.4-0.1,0.7-0.1,1.1-0.1H523C523.3,1875.6,523.7,1875.7,524,1875.7z M581.3,1875.7
		c0.9,0.2,1.2,0.2,2.1,0.6c1.3,0.5,2.5,1.4,3.5,2.5c1.6,2,2.3,4.6,1.8,7.1c-0.1,0.7-0.4,1.4-0.7,2.1c-0.3,0.6-0.7,1.3-1.2,1.8
		c-0.7,0.8-1.5,1.5-2.5,2c-0.9,0.5-2,0.9-3.1,1c-0.4,0.1-0.7,0.1-1.1,0.1h-22.9c-0.4,0-0.7,0-1.1-0.1c-1.1-0.2-2.1-0.5-3.1-1
		c-0.9-0.5-1.8-1.2-2.5-2c-1.6-2-2.3-4.6-1.8-7.1c0.1-0.7,0.4-1.4,0.7-2.1c0.5-1,1.1-1.8,1.9-2.6c1-1,2.3-1.7,3.7-2.1
		c0.9-0.2,1.2-0.2,2.1-0.3h22.9C580.5,1875.6,580.9,1875.7,581.3,1875.7z M638.5,1875.7c0.9,0.2,1.2,0.2,2.1,0.6
		c1.3,0.5,2.5,1.4,3.5,2.5c0.5,0.6,0.8,1.2,1.2,1.8c1.1,2.3,1.1,5,0,7.3c-0.3,0.6-0.7,1.3-1.2,1.8c-0.7,0.8-1.5,1.5-2.5,2
		c-0.9,0.5-2,0.9-3.1,1c-0.4,0.1-0.7,0.1-1.1,0.1h-22.9c-0.4,0-0.7,0-1.1-0.1c-1.1-0.2-2.1-0.5-3.1-1c-0.9-0.5-1.8-1.2-2.5-2
		c-1.6-2-2.3-4.6-1.8-7.1c0.1-0.7,0.4-1.4,0.7-2.1c0.5-1,1.1-1.8,1.9-2.6c1-1,2.3-1.7,3.7-2.1c0.9-0.2,1.2-0.2,2.1-0.3h22.9
		C637.8,1875.6,638.1,1875.7,638.5,1875.7z M695.7,1875.7c0.3,0.1,0.7,0.1,1.1,0.2c1,0.2,2,0.7,2.9,1.4c0.6,0.4,1.1,0.9,1.6,1.4
		c1.6,2,2.3,4.6,1.8,7.1c-0.1,0.7-0.4,1.4-0.7,2.1c-0.5,1-1.1,1.8-1.9,2.6c-1.1,1-2.3,1.7-3.7,2.1c-0.9,0.3-1.2,0.2-2.1,0.3h-22.9
		c-1-0.1-1.2,0-2.1-0.3c-1.4-0.3-2.7-1-3.7-2.1c-0.8-0.7-1.4-1.6-1.9-2.6c-1.1-2.3-1.1-5,0-7.3c0.3-0.6,0.7-1.3,1.2-1.8
		c0.7-0.8,1.5-1.5,2.5-2c0.9-0.5,2-0.9,3.1-1c0.4-0.1,0.7-0.1,1.1-0.1h22.9C695,1875.6,695.4,1875.7,695.7,1875.7z M753,1875.7
		c0.3,0.1,0.7,0.1,1.1,0.2c1,0.2,2,0.7,2.9,1.4c0.9,0.6,1.6,1.4,2.2,2.3c0.4,0.6,0.7,1.3,0.9,1.9c0.2,0.7,0.4,1.4,0.4,2.1
		c0.2,2.5-0.8,5-2.7,6.8c-1.1,1-2.3,1.7-3.7,2.1c-0.9,0.3-1.2,0.2-2.1,0.3H729c-1-0.1-1.2,0-2.1-0.3c-1.4-0.3-2.7-1-3.7-2.1
		c-0.8-0.7-1.4-1.6-1.9-2.6c-1.1-2.3-1.1-5,0-7.3c0.3-0.6,0.7-1.3,1.2-1.8c0.7-0.8,1.5-1.5,2.5-2c0.9-0.5,2-0.9,3.1-1
		c0.4-0.1,0.7-0.1,1.1-0.1h22.9C752.3,1875.6,752.6,1875.7,753,1875.7z M810.2,1875.7c0.3,0.1,0.7,0.1,1.1,0.2c1,0.2,2,0.7,2.9,1.4
		c2.1,1.5,3.4,3.8,3.5,6.4c0,0.7,0,1.4-0.1,2.1c-0.1,0.7-0.4,1.4-0.7,2.1c-0.5,1-1.1,1.8-1.9,2.6c-1.1,1-2.3,1.7-3.7,2.1
		c-0.9,0.3-1.2,0.2-2.1,0.3h-22.9c-0.4,0-0.7,0-1.1-0.1c-1.1-0.2-2.1-0.5-3.1-1c-0.6-0.3-1.2-0.7-1.7-1.3c-1.8-1.7-2.9-4.2-2.7-6.8
		c0.1-1.1,0.3-2.2,0.8-3.1c0.5-1,1.1-1.8,1.9-2.6c1-1,2.3-1.7,3.7-2.1c0.9-0.2,1.2-0.2,2.1-0.3h22.9
		C809.5,1875.6,809.9,1875.7,810.2,1875.7z M487.7,1832.5c0.9,0.2,1.2,0.2,2,0.6c2,1,3.5,2.6,4.3,4.6c0.3,0.7,0.4,1.4,0.5,2.1
		c0,0.4,0,0.7,0.1,1.1v22.9c-0.1,1,0,1.2-0.3,2.1c-0.4,1.4-1.1,2.7-2.1,3.8c-0.7,0.8-1.6,1.4-2.6,1.9c-2.3,1.1-5,1.1-7.3,0
		c-0.7-0.3-1.3-0.7-1.8-1.1c-0.8-0.7-1.5-1.5-2-2.5c-0.5-0.9-0.9-1.9-1-3c0-0.3,0-0.7-0.1-1.1v-22.9c0-0.3,0-0.7,0.1-1.1
		c0.1-0.7,0.3-1.4,0.5-2.1c0.9-2.3,2.9-4.2,5.3-5c0.7-0.2,1.4-0.3,2.1-0.4c0.4,0,0.7,0,1.1,0C487,1832.4,487.3,1832.5,487.7,1832.5z
		 M811.4,1819.2c0.9,0.3,1.2,0.3,2,0.7c2,0.9,3.5,2.6,4.3,4.6c0.3,0.6,0.4,1.4,0.5,2.1c0,0.3,0,0.7,0.1,1.1v22.9
		c0,0.3,0,0.7-0.1,1.1c-0.1,1-0.5,2.1-1,3c-0.5,1-1.2,1.8-2.1,2.5c-0.8,0.7-1.8,1.3-2.8,1.6c-0.7,0.2-1.4,0.3-2.1,0.4
		c-2.5,0.1-5.1-0.9-6.8-2.7c-1-1-1.7-2.3-2.1-3.7c-0.2-0.9-0.2-1.1-0.3-2.1v-22.9c0-0.3,0-0.7,0.1-1.1c0.1-0.7,0.3-1.4,0.5-2.1
		c0.9-2.4,2.9-4.2,5.3-5c0.7-0.2,1.4-0.3,2.1-0.4c0.4,0,0.7,0,1.1,0C810.7,1819.1,811.1,1819.2,811.4,1819.2z M487.7,1775.3
		c0.3,0.1,0.7,0.2,1,0.2c0.7,0.2,1.3,0.6,1.9,0.9c1.8,1.2,3.2,3,3.7,5.2c0.2,0.9,0.2,1.1,0.3,2.1v22.9c-0.1,1,0,1.2-0.3,2.1
		c-0.4,1.4-1.1,2.7-2.1,3.8c-0.5,0.5-1,1-1.7,1.4c-2.1,1.3-4.8,1.7-7.3,0.9c-1-0.3-2-0.9-2.8-1.5c-0.8-0.7-1.5-1.5-2-2.5
		c-0.5-0.9-0.9-1.9-1-3c0-0.3,0-0.7-0.1-1.1v-22.9c0-0.3,0-0.7,0.1-1.1c0.1-0.7,0.3-1.4,0.5-2.1c0.9-2.3,2.9-4.2,5.3-5
		c0.7-0.2,1.4-0.3,2.1-0.4c0.4,0,0.7,0,1.1,0C487,1775.2,487.3,1775.2,487.7,1775.3z M811.4,1762c0.9,0.3,1.2,0.3,2,0.7
		c2,0.9,3.5,2.6,4.3,4.6c0.3,0.6,0.4,1.4,0.5,2.1c0,0.3,0,0.7,0.1,1.1v22.9c0,0.3,0,0.7-0.1,1.1c-0.1,1-0.5,2.1-1,3
		c-0.5,1-1.2,1.8-2.1,2.5c-2,1.7-4.6,2.3-7.1,1.8c-0.7-0.1-1.4-0.3-2-0.6c-1-0.5-1.9-1.1-2.6-1.9c-1-1-1.7-2.3-2.1-3.7
		c-0.2-0.9-0.2-1.1-0.3-2.1v-22.9c0-0.3,0-0.7,0.1-1.1c0.1-0.7,0.3-1.4,0.5-2.1c0.9-2.4,2.9-4.2,5.3-5c0.7-0.2,1.4-0.3,2.1-0.4
		c0.4,0,0.7,0,1.1,0C810.7,1761.9,811.1,1762,811.4,1762z M487.7,1718.1c0.3,0.1,0.7,0.2,1,0.2c0.7,0.2,1.3,0.6,1.9,0.9
		c1.8,1.2,3.2,3,3.7,5.2c0.2,0.9,0.2,1.1,0.3,2.1v22.9c-0.1,1,0,1.2-0.3,2.1c-0.4,1.4-1.1,2.7-2.1,3.8c-0.7,0.8-1.6,1.4-2.6,1.9
		c-2.3,1.1-5,1.1-7.3,0c-0.7-0.3-1.3-0.7-1.8-1.1c-0.8-0.7-1.5-1.5-2-2.5c-0.5-0.9-0.9-1.9-1-3c0-0.3,0-0.7-0.1-1.1v-22.9
		c0-0.3,0-0.7,0.1-1.1c0.1-0.7,0.3-1.4,0.5-2.1c0.9-2.3,2.9-4.2,5.3-5c0.7-0.2,1.4-0.3,2.1-0.4c0.4,0,0.7,0,1.1,0
		C487,1717.9,487.3,1718,487.7,1718.1z M811.4,1704.7c0.9,0.3,1.2,0.3,2,0.7c2,0.9,3.5,2.6,4.3,4.6c0.3,0.6,0.4,1.4,0.5,2.1
		c0,0.3,0,0.7,0.1,1.1v22.9c0,0.3,0,0.7-0.1,1.1c-0.1,1-0.5,2.1-1,3c-0.5,1-1.2,1.8-2.1,2.5c-2,1.7-4.6,2.3-7.1,1.8
		c-0.7-0.1-1.4-0.3-2-0.6c-1-0.5-1.9-1.1-2.6-1.9c-1-1-1.7-2.3-2.1-3.7c-0.2-0.9-0.2-1.1-0.3-2.1v-22.9c0-0.3,0-0.7,0.1-1.1
		c0.1-0.7,0.3-1.4,0.5-2.1c0.9-2.4,2.9-4.2,5.3-5c0.7-0.2,1.4-0.3,2.1-0.4c0.4,0,0.7,0,1.1,0
		C810.7,1704.7,811.1,1704.7,811.4,1704.7z M487.7,1660.8c0.3,0.1,0.7,0.2,1,0.2c0.7,0.2,1.3,0.6,1.9,0.9c1.8,1.2,3.2,3,3.7,5.2
		c0.2,0.9,0.2,1.1,0.3,2.1v22.9c0,0.3,0,0.7-0.1,1.1c-0.1,1.1-0.5,2.1-1,3c-0.5,1-1.2,1.8-2,2.5c-0.6,0.5-1.2,0.8-1.8,1.1
		c-2.3,1.1-5,1.1-7.3,0c-1-0.5-1.9-1.1-2.6-1.9c-1-1.1-1.7-2.3-2.1-3.8c-0.2-0.9-0.2-1.1-0.3-2.1v-22.9c0-0.3,0-0.7,0.1-1.1
		c0.1-0.7,0.3-1.4,0.5-2.1c0.9-2.3,2.9-4.2,5.3-5c0.7-0.2,1.4-0.3,2.1-0.4c0.4,0,0.7,0,1.1,0C487,1660.7,487.3,1660.8,487.7,1660.8z
		 M811.4,1647.5c0.3,0.1,0.7,0.2,1,0.3c0.7,0.2,1.3,0.6,1.9,0.9c1.8,1.2,3.2,3,3.7,5.2c0.2,0.9,0.2,1.1,0.3,2.1v22.9
		c0,0.3,0,0.7-0.1,1.1c-0.1,1-0.5,2.1-1,3c-1.2,2.2-3.4,3.8-5.9,4.3c-0.7,0.2-1.4,0.2-2.1,0.2c-1.1-0.1-2.1-0.3-3.1-0.8
		c-1-0.5-1.9-1.1-2.6-1.9c-1-1-1.7-2.3-2.1-3.7c-0.2-0.9-0.2-1.1-0.3-2.1v-22.9c0-0.3,0-0.7,0.1-1.1c0.1-0.7,0.3-1.4,0.5-2.1
		c0.9-2.4,2.9-4.2,5.3-5c0.7-0.2,1.4-0.3,2.1-0.4c0.4,0,0.7,0,1.1,0C810.7,1647.4,811.1,1647.5,811.4,1647.5z M487.7,1603.6
		c0.9,0.2,1.2,0.2,2,0.6c2,1,3.5,2.6,4.3,4.6c0.3,0.7,0.4,1.4,0.5,2.1c0,0.4,0,0.7,0.1,1.1v22.9c0,0.3,0,0.7-0.1,1.1
		c-0.1,1.1-0.5,2.1-1,3c-1.2,2.2-3.4,3.8-5.9,4.3c-0.7,0.2-1.4,0.2-2.1,0.2c-1.1-0.1-2.1-0.3-3.1-0.8c-1-0.5-1.9-1.1-2.6-1.9
		c-1-1.1-1.7-2.3-2.1-3.8c-0.2-0.9-0.2-1.1-0.3-2.1V1612c0-0.3,0-0.7,0.1-1.1c0.1-0.7,0.3-1.4,0.5-2.1c0.9-2.3,2.9-4.2,5.3-5
		c0.7-0.2,1.4-0.3,2.1-0.4c0.4,0,0.7,0,1.1,0C487,1603.5,487.3,1603.5,487.7,1603.6z M811.4,1590.2c0.9,0.3,1.2,0.3,2,0.7
		c2,0.9,3.5,2.6,4.3,4.6c0.3,0.6,0.4,1.4,0.5,2.1c0,0.3,0,0.7,0.1,1.1v22.9c0,0.3,0,0.7-0.1,1.1c-0.1,1-0.5,2.1-1,3
		c-1.2,2.2-3.4,3.8-5.9,4.3c-0.7,0.2-1.4,0.2-2.1,0.2c-1.1-0.1-2.1-0.3-3.1-0.8c-1-0.5-1.9-1.1-2.6-1.9c-1-1-1.7-2.3-2.1-3.7
		c-0.2-0.9-0.2-1.1-0.3-2.1v-22.9c0-0.3,0-0.7,0.1-1.1c0.1-0.7,0.3-1.4,0.5-2.1c0.9-2.4,2.9-4.2,5.3-5c0.7-0.2,1.4-0.3,2.1-0.4
		c0.4,0,0.7,0,1.1,0C810.7,1590.2,811.1,1590.2,811.4,1590.2z M487.7,1546.3c0.9,0.2,1.2,0.2,2,0.6c2,1,3.5,2.6,4.3,4.6
		c0.3,0.7,0.4,1.4,0.5,2.1c0,0.4,0,0.7,0.1,1.1v22.9c0,0.3,0,0.7-0.1,1.1c-0.1,1.1-0.5,2.1-1,3c-0.5,1-1.2,1.8-2,2.5
		c-2,1.6-4.6,2.3-7.1,1.8c-0.7-0.1-1.4-0.3-2-0.6c-1-0.5-1.9-1.1-2.6-1.9c-1-1.1-1.7-2.3-2.1-3.8c-0.2-0.9-0.2-1.1-0.3-2.1v-22.9
		c0-0.3,0-0.7,0.1-1.1c0.1-0.7,0.3-1.4,0.5-2.1c0.9-2.3,2.9-4.2,5.3-5c0.7-0.2,1.4-0.3,2.1-0.4c0.4,0,0.7,0,1.1,0
		C487,1546.2,487.3,1546.3,487.7,1546.3z M810.9,1526.5c0.4,0.1,0.7,0.1,1.1,0.2c1,0.2,2,0.7,2.9,1.4c2.4,1.7,3.7,4.6,3.5,7.4
		c0,0.8-0.2,1.4-0.4,2.1c-0.1,0.2-0.1,0.4-0.2,0.6l0,0.1c0.1,0.3,0.2,0.6,0.3,1c0.2,0.9,0.2,1.1,0.3,2.1v22.9c0,0.3,0,0.7-0.1,1.1
		c-0.1,1-0.5,2.1-1,3c-0.3,0.6-0.8,1.2-1.3,1.7c-1.7,1.9-4.3,2.9-6.8,2.7c-1.1-0.1-2.1-0.3-3.1-0.8c-1-0.5-1.9-1.1-2.6-1.9
		c-1-1-1.7-2.3-2.1-3.7c-0.2-0.9-0.2-1.1-0.3-2.1v-20.7h-14.3l-1.1-0.1c-0.3-0.1-0.7-0.1-1.1-0.2c-1-0.2-2-0.7-2.9-1.4
		c-0.9-0.6-1.6-1.4-2.2-2.3c-1.4-2.1-1.7-4.8-0.9-7.2c0.2-0.7,0.5-1.4,0.9-1.9c0.4-0.6,0.8-1.2,1.4-1.7c1.1-1,2.3-1.7,3.7-2.1
		c0.9-0.2,1.2-0.2,2.1-0.3h22.9C810.2,1526.5,810.5,1526.5,810.9,1526.5z M524.7,1526.5c0.9,0.2,1.2,0.2,2.1,0.6
		c1.3,0.5,2.5,1.4,3.5,2.5c0.7,0.9,1.2,1.8,1.6,2.9c0.2,0.7,0.4,1.4,0.4,2.1c0,0.7,0,1.4-0.1,2.1c-0.5,2.5-2.1,4.7-4.3,5.9
		c-0.9,0.5-2,0.9-3.1,1c-0.4,0.1-0.7,0.1-1.1,0.1h-22.9c-0.4,0-0.7,0-1.1-0.1c-1.1-0.2-2.1-0.5-3.1-1c-2.2-1.2-3.8-3.4-4.3-5.9
		c-0.1-0.7-0.2-1.4-0.1-2.1c0.1-1.1,0.3-2.2,0.8-3.1c0.5-1,1.1-1.8,1.9-2.6c1.1-1,2.3-1.7,3.7-2.1c0.9-0.2,1.2-0.2,2.1-0.3h22.9
		C524,1526.5,524.3,1526.5,524.7,1526.5z M581.9,1526.5c0.9,0.2,1.2,0.2,2.1,0.6c1.3,0.5,2.5,1.4,3.5,2.5c0.5,0.6,0.8,1.2,1.2,1.8
		c1.1,2.3,1.1,5,0,7.3c-0.3,0.6-0.7,1.3-1.2,1.8c-0.7,0.8-1.5,1.5-2.5,2c-0.9,0.5-2,0.9-3.1,1c-0.4,0.1-0.7,0.1-1.1,0.1H558
		c-1-0.1-1.2,0-2.1-0.3c-1.4-0.3-2.7-1-3.7-2.1c-0.5-0.5-1-1-1.4-1.7c-1.4-2.1-1.7-4.8-0.9-7.2c0.3-1,0.9-2,1.6-2.9
		c0.7-0.8,1.5-1.5,2.5-2c0.9-0.5,2-0.9,3.1-1c0.4-0.1,0.7-0.1,1.1-0.1h22.9C581.2,1526.5,581.6,1526.5,581.9,1526.5z M639.2,1526.5
		c0.9,0.2,1.2,0.2,2.1,0.6c1.3,0.5,2.5,1.4,3.5,2.5c0.7,0.9,1.2,1.8,1.6,2.9c0.2,0.7,0.4,1.4,0.4,2.1c0,0.7,0,1.4-0.1,2.1
		c-0.5,2.5-2.1,4.7-4.3,5.9c-0.9,0.5-2,0.9-3.1,1c-0.4,0.1-0.7,0.1-1.1,0.1h-22.9c-0.4,0-0.7,0-1.1-0.1c-1.1-0.2-2.1-0.5-3.1-1
		c-0.6-0.3-1.2-0.7-1.7-1.3c-1.8-1.7-2.9-4.2-2.7-6.8c0.1-1.1,0.3-2.2,0.8-3.1c0.5-1,1.1-1.8,1.9-2.6c1.1-1,2.3-1.7,3.7-2.1
		c0.9-0.2,1.2-0.2,2.1-0.3h22.9C638.5,1526.5,638.8,1526.5,639.2,1526.5z M696.4,1526.5c0.9,0.2,1.2,0.2,2.1,0.6
		c1.3,0.5,2.5,1.4,3.5,2.5c0.7,0.9,1.2,1.8,1.6,2.9c0.2,0.7,0.4,1.4,0.4,2.1c0,0.7,0,1.4-0.1,2.1c-0.5,2.5-2.1,4.7-4.3,5.9
		c-0.9,0.5-2,0.9-3.1,1c-0.4,0.1-0.7,0.1-1.1,0.1h-22.9c-0.4,0-0.7,0-1.1-0.1c-1.1-0.2-2.1-0.5-3.1-1c-2.2-1.2-3.8-3.4-4.3-5.9
		c-0.1-0.7-0.2-1.4-0.1-2.1c0.1-1.1,0.3-2.2,0.8-3.1c0.5-1,1.1-1.8,1.9-2.6c1.1-1,2.3-1.7,3.7-2.1c0.9-0.2,1.2-0.2,2.1-0.3h22.9
		C695.7,1526.5,696.1,1526.5,696.4,1526.5z M753.7,1526.5c0.9,0.2,1.2,0.2,2.1,0.6c1.3,0.5,2.5,1.4,3.5,2.5c0.5,0.6,0.8,1.2,1.2,1.8
		c1.1,2.3,1.1,5,0,7.3c-0.3,0.6-0.7,1.3-1.2,1.8c-0.7,0.8-1.5,1.5-2.5,2c-0.9,0.5-2,0.9-3.1,1c-0.4,0.1-0.7,0.1-1.1,0.1h-22.9
		c-0.4,0-0.7,0-1.1-0.1c-1.1-0.2-2.1-0.5-3.1-1c-2.2-1.2-3.8-3.4-4.3-5.9c-0.1-0.7-0.2-1.4-0.1-2.1c0.1-1.1,0.3-2.2,0.8-3.1
		c0.5-1,1.1-1.8,1.9-2.6c1.1-1,2.3-1.7,3.7-2.1c0.9-0.2,1.2-0.2,2.1-0.3h22.9C752.9,1526.5,753.3,1526.5,753.7,1526.5z"/>
</g>
</svg>
