<?xml version="1.0" encoding="UTF-8"?>
<svg width="186px" height="154px" viewBox="0 0 186 154" version="1.1" xmlns="http://www.w3.org/2000/svg" xmlns:xlink="http://www.w3.org/1999/xlink">
    <!-- Generator: Sketch 45.2 (43514) - http://www.bohemiancoding.com/sketch -->
    <title>Group 12</title>
    <desc>Created with Sketch.</desc>
    <defs></defs>
    <g id="Page-1" stroke="none" stroke-width="1" fill="none" fill-rule="evenodd">
        <g id="Upload" transform="translate(-507.000000, -1403.000000)">
            <g id="Group-12" transform="translate(508.000000, 1401.000000)">
                <g id="Group-15" transform="translate(67.000000, 0.000000)" stroke-linecap="square" stroke="#7DDB84" stroke-width="2">
                    <g id="Group-14" transform="translate(6.500000, 7.000000) rotate(45.000000) translate(-6.500000, -7.000000) translate(2.000000, 3.000000)">
                        <g id="Group-7" transform="translate(0.230769, 0.000000)">
                            <path d="M4,0.256410256 L4,7.40641026" id="Line"></path>
                            <path d="M7.76923077,4.03024068 L0.619230674,4.03024068" id="Line"></path>
                        </g>
                    </g>
                </g>
                <g id="Group-15" transform="translate(172.000000, 14.000000)" stroke-linecap="square" stroke="#7DDB84" stroke-width="2">
                    <g id="Group-14">
                        <g id="Group-7" transform="translate(0.230769, 0.000000)">
                            <path d="M4,0.256410256 L4,7.40641026" id="Line"></path>
                            <path d="M7.76923077,4.03024068 L0.619230674,4.03024068" id="Line"></path>
                        </g>
                    </g>
                </g>
                <g id="Group-15" transform="translate(0.000000, 89.000000)" stroke-linecap="square" stroke="#7DDB84" stroke-width="2">
                    <g id="Group-14">
                        <g id="Group-7" transform="translate(0.230769, 0.000000)">
                            <path d="M4,0.256410256 L4,7.40641026" id="Line"></path>
                            <path d="M7.76923077,4.03024068 L0.619230674,4.03024068" id="Line"></path>
                        </g>
                    </g>
                </g>
                <g id="Group-15" transform="translate(144.000000, 147.000000)" stroke-linecap="square" stroke="#7DDB84" stroke-width="2">
                    <g id="Group-14">
                        <g id="Group-7" transform="translate(0.230769, 0.000000)">
                            <path d="M4,0.256410256 L4,7.40641026" id="Line"></path>
                            <path d="M7.76923077,4.03024068 L0.619230674,4.03024068" id="Line"></path>
                        </g>
                    </g>
                </g>
                <circle id="Oval-3" fill="#76D07C" cx="121" cy="67" r="36"></circle>
                <circle id="Oval" stroke="#7DDB84" stroke-width="2" cx="180" cy="100" r="4"></circle>
                <circle id="Oval" stroke="#7DDB84" stroke-width="2" cx="37" cy="151" r="4"></circle>
                <circle id="Oval" stroke="#7DDB84" stroke-width="2" cx="43" cy="40.5" r="4"></circle>
                <g id="Group-11" transform="translate(85.168027, 75.398654) rotate(14.271873) translate(-85.168027, -75.398654) translate(23.168027, 62.898654)">
                    <rect id="Rectangle-14" fill="#C8F3CB" x="0" y="0" width="124" height="25"></rect>
                    <rect id="Rectangle-3" fill="#47AC4D" x="4" y="19" width="1" height="6"></rect>
                    <rect id="Rectangle-3" fill="#47AC4D" x="12" y="19" width="1" height="6"></rect>
                    <rect id="Rectangle-3" fill="#47AC4D" x="8" y="22" width="1" height="3"></rect>
                    <rect id="Rectangle-3" fill="#47AC4D" x="20" y="19" width="1" height="6"></rect>
                    <rect id="Rectangle-3" fill="#47AC4D" x="16" y="22" width="1" height="3"></rect>
                    <rect id="Rectangle-3" fill="#47AC4D" x="28" y="19" width="1" height="6"></rect>
                    <rect id="Rectangle-3" fill="#47AC4D" x="24" y="22" width="1" height="3"></rect>
                    <rect id="Rectangle-3" fill="#47AC4D" x="36" y="19" width="1" height="6"></rect>
                    <rect id="Rectangle-3" fill="#47AC4D" x="32" y="22" width="1" height="3"></rect>
                    <rect id="Rectangle-3" fill="#47AC4D" x="44" y="19" width="1" height="6"></rect>
                    <rect id="Rectangle-3" fill="#47AC4D" x="40" y="22" width="1" height="3"></rect>
                    <rect id="Rectangle-3" fill="#47AC4D" x="52" y="19" width="1" height="6"></rect>
                    <rect id="Rectangle-3" fill="#47AC4D" x="48" y="22" width="1" height="3"></rect>
                    <rect id="Rectangle-3" fill="#47AC4D" x="60" y="19" width="1" height="6"></rect>
                    <rect id="Rectangle-3" fill="#47AC4D" x="56" y="22" width="1" height="3"></rect>
                    <rect id="Rectangle-3" fill="#47AC4D" x="68" y="19" width="1" height="6"></rect>
                    <rect id="Rectangle-3" fill="#47AC4D" x="64" y="22" width="1" height="3"></rect>
                    <rect id="Rectangle-3" fill="#47AC4D" x="68" y="19" width="1" height="6"></rect>
                    <rect id="Rectangle-3" fill="#47AC4D" x="76" y="19" width="1" height="6"></rect>
                    <rect id="Rectangle-3" fill="#47AC4D" x="72" y="22" width="1" height="3"></rect>
                    <rect id="Rectangle-3" fill="#47AC4D" x="84" y="19" width="1" height="6"></rect>
                    <rect id="Rectangle-3" fill="#47AC4D" x="80" y="22" width="1" height="3"></rect>
                    <rect id="Rectangle-3" fill="#47AC4D" x="92" y="19" width="1" height="6"></rect>
                    <rect id="Rectangle-3" fill="#47AC4D" x="88" y="22" width="1" height="3"></rect>
                    <rect id="Rectangle-3" fill="#47AC4D" x="100" y="19" width="1" height="6"></rect>
                    <rect id="Rectangle-3" fill="#47AC4D" x="96" y="22" width="1" height="3"></rect>
                    <rect id="Rectangle-3" fill="#47AC4D" x="108" y="19" width="1" height="6"></rect>
                    <rect id="Rectangle-3" fill="#47AC4D" x="104" y="22" width="1" height="3"></rect>
                    <rect id="Rectangle-3" fill="#47AC4D" x="116" y="19" width="1" height="6"></rect>
                    <rect id="Rectangle-3" fill="#47AC4D" x="112" y="22" width="1" height="3"></rect>
                    <rect id="Rectangle-3" fill="#47AC4D" x="120" y="22" width="1" height="3"></rect>
                </g>
                <path d="M74.8706124,75.5541286 L102.321511,111.068728 L102.321511,111.068728 C103.672524,112.816601 103.350805,115.328744 101.602932,116.679757 C100.902427,117.22121 100.042076,117.514954 99.1567071,117.514954 L47,117.514954 L47,117.514954 C44.790861,117.514954 43,115.724093 43,113.514954 C43,112.698256 43.249992,111.901127 43.7163792,111.230696 L68.4221878,75.7160957 L68.4221878,75.7160957 C69.6837486,73.9026021 72.1765729,73.4551721 73.9900666,74.7167329 C74.3245149,74.9493926 74.6214557,75.2317822 74.8706124,75.5541286 Z" id="Rectangle-6" fill="#5DA962"></path>
            </g>
        </g>
    </g>
</svg>