<?xml version="1.0" encoding="utf-8"?>
<!-- Generator: Adobe Illustrator 21.0.0, SVG Export Plug-In . SVG Version: 6.00 Build 0)  -->
<svg version="1.1" id="Layer_1" xmlns="http://www.w3.org/2000/svg" xmlns:xlink="http://www.w3.org/1999/xlink" x="0px" y="0px"
	 viewBox="0 0 186 154" style="enable-background:new 0 0 186 154;" xml:space="preserve">
<style type="text/css">
	.st0{fill:#FCEF3E;}
	.st1{fill:#F8A696;}
	.st2{font-family:'Cabin-Bold';}
	.st3{font-size:72px;}
	.st4{letter-spacing:-1;}
</style>
<polygon class="st0" points="129.9,124.2 90.2,105.3 52.1,127.3 57.8,83.6 25.1,54.2 68.4,46.2 86.3,6 107.3,44.6 151.1,49.2 
	120.8,81.2 "/>
<polygon class="st0" points="25.5,25 29.5,26.9 33.3,24.7 32.8,29.1 36,32 31.7,32.8 29.9,36.9 27.8,33 23.4,32.5 26.4,29.3 "/>
<polygon class="st0" points="86,117.7 92.6,120.9 99,117.2 98,124.5 103.5,129.3 96.3,130.7 93.3,137.4 89.8,130.9 82.5,130.2 
	87.6,124.9 "/>
<polygon class="st0" points="119.2,28.5 123.4,30.5 127.5,28.1 126.9,32.8 130.4,35.9 125.8,36.7 123.9,41 121.6,36.9 117,36.4 
	120.2,33 "/>
<title>Group 12</title>
<desc>Created with Sketch.</desc>
<text transform="matrix(0.9835 -0.181 0.181 0.9835 29.6673 112.0188)" class="st1 st2 st3 st4">100!</text>
</svg>
