<?xml version="1.0" encoding="utf-8"?>
<!-- Generator: Adobe Illustrator 21.0.0, SVG Export Plug-In . SVG Version: 6.00 Build 0)  -->
<svg version="1.1" id="Layer_1" xmlns="http://www.w3.org/2000/svg" xmlns:xlink="http://www.w3.org/1999/xlink" x="0px" y="0px"
	 viewBox="0 0 186 154" style="enable-background:new 0 0 186 154;" xml:space="preserve">
<style type="text/css">
	.st0{fill:#FFFFFF;stroke:#AAA5A6;stroke-width:2;stroke-linecap:square;}
	.st1{fill:#FFFFFF;stroke:#AAA5A6;stroke-width:2;}
	.st2{fill:#EC7346;}
	.st3{fill:#AAA5A6;}
	.st4{fill:#FFFFFF;}
	.st5{fill:#D13B54;}
	.st6{font-family:'MyriadPro-Regular';}
	.st7{font-size:12px;}
</style>
<title>Group 12</title>
<desc>Created with Sketch.</desc>
<g id="Page-1">
	<g id="Upload" transform="translate(-507.000000, -1403.000000)">
		<g id="Group-12" transform="translate(508.000000, 1401.000000)">
			<g id="Group-15" transform="translate(67.000000, 0.000000)">
				
					<g id="Group-14" transform="translate(6.500000, 7.000000) rotate(45.000000) translate(-6.500000, -7.000000) translate(2.000000, 3.000000)">
					<g id="Group-7" transform="translate(0.230769, 0.000000)">
						<path id="Line" class="st0" d="M4,0.3v7.1"/>
						<path id="Line_1_" class="st0" d="M7.8,4H0.6"/>
					</g>
				</g>
			</g>
			<g id="Group-15_1_" transform="translate(172.000000, 14.000000)">
				<g id="Group-14_1_">
					<g id="Group-7_1_" transform="translate(0.230769, 0.000000)">
						<path id="Line_2_" class="st0" d="M4,0.3v7.1"/>
						<path id="Line_3_" class="st0" d="M7.8,4H0.6"/>
					</g>
				</g>
			</g>
			<g id="Group-15_2_" transform="translate(0.000000, 89.000000)">
				<g id="Group-14_2_">
					<g id="Group-7_2_" transform="translate(0.230769, 0.000000)">
						<path id="Line_4_" class="st0" d="M4,0.3v7.1"/>
						<path id="Line_5_" class="st0" d="M7.8,4H0.6"/>
					</g>
				</g>
			</g>
			<g id="Group-15_3_" transform="translate(144.000000, 147.000000)">
				<g id="Group-14_3_">
					<g id="Group-7_3_" transform="translate(0.230769, 0.000000)">
						<path id="Line_6_" class="st0" d="M4,0.3v7.1"/>
						<path id="Line_7_" class="st0" d="M7.8,4H0.6"/>
					</g>
				</g>
			</g>
			<circle id="Oval" class="st1" cx="180" cy="100" r="4"/>
			<circle id="Oval_1_" class="st1" cx="37" cy="151" r="4"/>
		</g>
	</g>
</g>
<circle id="Oval-3" class="st2" cx="125" cy="70" r="36"/>
<circle id="Oval_2_" class="st1" cx="47" cy="43.5" r="4"/>
<g id="Group-11" transform="translate(85.168027, 75.398654) rotate(14.271873) translate(-85.168027, -75.398654) translate(23.168027, 62.898654)">
	
		<rect id="Rectangle-14" x="54.1" y="-47.6" transform="matrix(4.454186e-06 1 -1 4.454186e-06 81.0424 -52.2323)" class="st3" width="25" height="124"/>
	
		<rect id="Rectangle-3" x="6.1" y="23.4" transform="matrix(4.454186e-06 1 -1 4.454186e-06 33.0425 14.7676)" class="st4" width="6" height="1"/>
	
		<rect id="Rectangle-3_1_" x="14.1" y="23.4" transform="matrix(4.454186e-06 1 -1 4.454186e-06 41.0425 6.7676)" class="st4" width="6" height="1"/>
	
		<rect id="Rectangle-3_2_" x="11.6" y="24.9" transform="matrix(4.454186e-06 1 -1 4.454186e-06 38.5425 12.2676)" class="st4" width="3" height="1"/>
	
		<rect id="Rectangle-3_3_" x="22.1" y="23.4" transform="matrix(4.454186e-06 1 -1 4.454186e-06 49.0426 -1.2323)" class="st4" width="6" height="1"/>
	
		<rect id="Rectangle-3_4_" x="19.6" y="24.9" transform="matrix(4.454186e-06 1 -1 4.454186e-06 46.5425 4.2676)" class="st4" width="3" height="1"/>
	
		<rect id="Rectangle-3_5_" x="30.1" y="23.4" transform="matrix(4.454186e-06 1 -1 4.454186e-06 57.0425 -9.2322)" class="st4" width="6" height="1"/>
	
		<rect id="Rectangle-3_6_" x="27.6" y="24.9" transform="matrix(4.454186e-06 1 -1 4.454186e-06 54.5424 -3.7323)" class="st4" width="3" height="1"/>
	
		<rect id="Rectangle-3_7_" x="38.1" y="23.4" transform="matrix(4.454186e-06 1 -1 4.454186e-06 65.0424 -17.2322)" class="st4" width="6" height="1"/>
	
		<rect id="Rectangle-3_8_" x="35.6" y="24.9" transform="matrix(4.454186e-06 1 -1 4.454186e-06 62.5425 -11.7322)" class="st4" width="3" height="1"/>
	
		<rect id="Rectangle-3_9_" x="46.1" y="23.4" transform="matrix(4.454186e-06 1 -1 4.454186e-06 73.0424 -25.2323)" class="st4" width="6" height="1"/>
	
		<rect id="Rectangle-3_10_" x="43.6" y="24.9" transform="matrix(4.454186e-06 1 -1 4.454186e-06 70.5424 -19.7322)" class="st4" width="3" height="1"/>
	
		<rect id="Rectangle-3_11_" x="54.1" y="23.4" transform="matrix(4.454186e-06 1 -1 4.454186e-06 81.0424 -33.2323)" class="st4" width="6" height="1"/>
	
		<rect id="Rectangle-3_12_" x="51.6" y="24.9" transform="matrix(4.454186e-06 1 -1 4.454186e-06 78.5424 -27.7323)" class="st4" width="3" height="1"/>
	
		<rect id="Rectangle-3_13_" x="62.1" y="23.4" transform="matrix(4.454186e-06 1 -1 4.454186e-06 89.0424 -41.2323)" class="st4" width="6" height="1"/>
	
		<rect id="Rectangle-3_14_" x="59.6" y="24.9" transform="matrix(4.454186e-06 1 -1 4.454186e-06 86.5424 -35.7323)" class="st4" width="3" height="1"/>
	
		<rect id="Rectangle-3_15_" x="70.1" y="23.4" transform="matrix(4.454186e-06 1 -1 4.454186e-06 97.0424 -49.2323)" class="st4" width="6" height="1"/>
	
		<rect id="Rectangle-3_16_" x="67.6" y="24.9" transform="matrix(4.454186e-06 1 -1 4.454186e-06 94.5424 -43.7323)" class="st4" width="3" height="1"/>
	
		<rect id="Rectangle-3_17_" x="70.1" y="23.4" transform="matrix(4.454186e-06 1 -1 4.454186e-06 97.0424 -49.2323)" class="st4" width="6" height="1"/>
	
		<rect id="Rectangle-3_18_" x="78.1" y="23.4" transform="matrix(4.454186e-06 1 -1 4.454186e-06 105.0424 -57.2323)" class="st4" width="6" height="1"/>
	
		<rect id="Rectangle-3_19_" x="75.6" y="24.9" transform="matrix(4.454186e-06 1 -1 4.454186e-06 102.5424 -51.7323)" class="st4" width="3" height="1"/>
	
		<rect id="Rectangle-3_20_" x="86.1" y="23.4" transform="matrix(4.454186e-06 1 -1 4.454186e-06 113.0423 -65.2322)" class="st4" width="6" height="1"/>
	
		<rect id="Rectangle-3_21_" x="83.6" y="24.9" transform="matrix(4.454186e-06 1 -1 4.454186e-06 110.5423 -59.7322)" class="st4" width="3" height="1"/>
	
		<rect id="Rectangle-3_22_" x="94.1" y="23.4" transform="matrix(4.454186e-06 1 -1 4.454186e-06 121.0422 -73.2322)" class="st4" width="6" height="1"/>
	
		<rect id="Rectangle-3_23_" x="91.6" y="24.9" transform="matrix(4.454186e-06 1 -1 4.454186e-06 118.5422 -67.7322)" class="st4" width="3" height="1"/>
	
		<rect id="Rectangle-3_24_" x="102.1" y="23.4" transform="matrix(4.454186e-06 1 -1 4.454186e-06 129.0422 -81.2323)" class="st4" width="6" height="1"/>
	
		<rect id="Rectangle-3_25_" x="99.6" y="24.9" transform="matrix(4.454186e-06 1 -1 4.454186e-06 126.5422 -75.7323)" class="st4" width="3" height="1"/>
	
		<rect id="Rectangle-3_26_" x="110.1" y="23.4" transform="matrix(4.454186e-06 1 -1 4.454186e-06 137.0422 -89.2323)" class="st4" width="6" height="1"/>
	
		<rect id="Rectangle-3_27_" x="107.6" y="24.9" transform="matrix(4.454186e-06 1 -1 4.454186e-06 134.5422 -83.7323)" class="st4" width="3" height="1"/>
	
		<rect id="Rectangle-3_28_" x="118.1" y="23.4" transform="matrix(4.454186e-06 1 -1 4.454186e-06 145.0422 -97.2323)" class="st4" width="6" height="1"/>
	
		<rect id="Rectangle-3_29_" x="115.6" y="24.9" transform="matrix(4.454186e-06 1 -1 4.454186e-06 142.5422 -91.7323)" class="st4" width="3" height="1"/>
	
		<rect id="Rectangle-3_30_" x="123.6" y="24.9" transform="matrix(4.454186e-06 1 -1 4.454186e-06 150.5422 -99.7323)" class="st4" width="3" height="1"/>
</g>
<path id="Rectangle-6" class="st5" d="M78.9,78.6l27.5,35.5l0,0c1.4,1.7,1,4.3-0.7,5.6c-0.7,0.5-1.6,0.8-2.4,0.8H51l0,0
	c-2.2,0-4-1.8-4-4c0-0.8,0.2-1.6,0.7-2.3l24.7-35.5l0,0c1.3-1.8,3.8-2.3,5.6-1C78.3,77.9,78.6,78.2,78.9,78.6z"/>
<text transform="matrix(1 0 0 1 80.6401 84.9452)" class="st6 st7">          </text>
</svg>
