<?xml version="1.0" encoding="utf-8"?>
<!-- Generator: Adobe Illustrator 21.0.0, SVG Export Plug-In . SVG Version: 6.00 Build 0)  -->
<svg version="1.1" id="Layer_1" xmlns="http://www.w3.org/2000/svg" xmlns:xlink="http://www.w3.org/1999/xlink" x="0px" y="0px"
	 viewBox="0 0 76.6 76.4" style="enable-background:new 0 0 76.6 76.4;" xml:space="preserve">
<style type="text/css">
	.st0{fill:#CCCFE9;}
	.st1{opacity:0.7;fill:#E568A7;enable-background:new    ;}
	.st2{fill:#D01B64;}
</style>
<title>performance</title>
<path class="st0" d="M38.4,76.4l-0.3-0.1L10.6,65.1L0,38.7l11.4-28L39.1,0l26.6,11l10.9,27.2L65.7,64.8l-0.3,0.1L38.4,76.4z
	 M11.8,64l26.6,10.8l26.1-11.2L75,38.3L64.5,12.2L39,1.6L12.6,11.9l-11,26.8L11.8,64z"/>
<path class="st0" d="M37.7,68.2l-21.9-8.9L7.5,38.5l9-22l21.7-8.4l20.9,8.7l8.6,21.4L59.2,59L37.7,68.2z M17,58.1l20.7,8.4L58,57.9
	l8.1-19.7L58,17.9L38.2,9.7l-20.6,8L9.1,38.5L17,58.1z"/>
<path class="st0" d="M37.7,59.9l-15.8-6.4l-6.1-15.1l6.5-15.9L38,16.4l15.2,6.3l6.2,15.5l-6.2,15.1L37.7,59.9z M23,52.3l14.7,6
	L52,52.2l5.7-14L52,23.8L38,18l-14.6,5.7l-6,14.8L23,52.3z"/>
<path class="st0" d="M37.6,51.7l-9.8-4L24,38.3l4-9.9l9.8-3.8l9.4,3.9l3.9,9.6l-3.8,9.4L37.6,51.7z M28.9,46.5l8.7,3.5l8.5-3.6
	l3.4-8.3l-3.4-8.5l-8.3-3.4l-8.6,3.4l-3.6,8.7L28.9,46.5z"/>
<polygon class="st1" points="37.2,37.6 24,61.5 44.4,48 64.8,29.8 38.5,5.5 23.8,28.6 "/>
<path class="st2" d="M24.8,28.4l13.3,8.9l-12,21.9c20-13.2,19.8-13.5,37.6-29.4l-25-23.1L24.8,28.4z M65.9,29.8
	C45.2,48.3,45.2,48.4,22,63.7l0,0l14.2-25.9l-13.4-9L38.3,4.3L65.9,29.8z"/>
</svg>
