<?xml version="1.0" encoding="utf-8"?>
<!-- Generator: Adobe Illustrator 21.0.0, SVG Export Plug-In . SVG Version: 6.00 Build 0)  -->
<svg version="1.1" id="Layer_1" xmlns="http://www.w3.org/2000/svg" xmlns:xlink="http://www.w3.org/1999/xlink" x="0px" y="0px"
	 viewBox="0 0 129 127.2" style="enable-background:new 0 0 129 127.2;" xml:space="preserve">
<style type="text/css">
	.st0{fill:#5F7BBD;}
	.st1{fill:#B3E1E9;}
	.st2{fill:#4B8CCA;}
	.st3{fill:#7F7BBA;}
	.st4{fill:#89DB8E;}
	.st5{fill:#84D3E6;}
	.st6{fill:#7ACED6;}
	.st7{fill:#478A4B;}
	.st8{fill:#A1DCEC;}
	.st9{fill:#37499F;}
</style>
<title>pipelines</title>
<g id="Page-1">
	<g id="Landing-Page">
		<g id="Group-13">
			<g id="Group-11">
				<rect id="Rectangle-13" x="6.8" y="85.1" class="st0" width="115" height="15"/>
				<circle id="Oval-3" class="st1" cx="7.5" cy="92.6" r="7.5"/>
				<circle id="Oval-3-2" class="st1" cx="121.5" cy="92.6" r="7.5"/>
			</g>
			<g id="Group-11-2">
				<rect id="Rectangle-13-2" x="10" y="56.1" class="st2" width="65.2" height="15"/>
				<circle id="Oval-3-3" class="st3" cx="9.5" cy="63.6" r="7.5"/>
				<circle id="Oval-3-4" class="st4" cx="74.5" cy="63.6" r="7.5"/>
			</g>
			<g id="Group-11-2_1_">
				
					<rect id="Rectangle-13-2_1_" x="70" y="42" transform="matrix(0.8517 -0.5241 0.5241 0.8517 -11.5523 58.2194)" class="st5" width="54.2" height="15"/>
				
					<rect id="Rectangle-13-2_2_" x="90" y="50.6" transform="matrix(0.5064 -0.8623 0.8623 0.5064 -19.5733 122.813)" class="st6" width="14.9" height="55.8"/>
				
					<ellipse id="Oval-3-3_1_" transform="matrix(0.8517 -0.5241 0.5241 0.8517 -0.5219 68.3585)" class="st7" cx="120.5" cy="35.1" rx="6.2" ry="7.5"/>
				
					<ellipse id="Oval-3-4_1_" transform="matrix(0.8517 -0.5241 0.5241 0.8517 -22.7645 47.9131)" class="st8" cx="73.3" cy="64.2" rx="7.7" ry="7.5"/>
			</g>
			<g id="Group-11-3">
				<rect id="Rectangle-13-3" x="32.5" y="27.1" class="st9" width="89.2" height="15"/>
				<circle id="Oval-3-5" class="st1" cx="32.5" cy="34.6" r="7.5"/>
				<circle id="Oval-3-6" class="st1" cx="121.5" cy="34.6" r="7.5"/>
				<circle id="Oval-3-6_1_" class="st1" cx="121.5" cy="92.6" r="7.5"/>
			</g>
		</g>
	</g>
</g>
</svg>
