<?xml version="1.0" encoding="utf-8"?>
<!-- Generator: Adobe Illustrator 21.0.0, SVG Export Plug-In . SVG Version: 6.00 Build 0)  -->
<svg version="1.1" id="Layer_1" xmlns="http://www.w3.org/2000/svg" xmlns:xlink="http://www.w3.org/1999/xlink" x="0px" y="0px"
	 viewBox="0 0 129 85" style="enable-background:new 0 0 129 85;" xml:space="preserve">
<style type="text/css">
	.st0{fill:#3C8DBC;}
	.st1{fill:#97C0DE;fill-opacity:0.5;}
	.st2{fill:#42A5F5;fill-opacity:0.2;}
	.st3{fill:#337AB7;fill-opacity:0.7;stroke:#337AB7;stroke-miterlimit:10;}
	.st4{fill:none;stroke:#33485D;}
</style>
<title>Group 16</title>
<desc>Created with Sketch.</desc>
<g id="Page-1">
	<g id="Upload" transform="translate(-163.000000, -1450.000000)">
		<g id="Group-16" transform="translate(163.000000, 1450.000000)">
			<circle id="Oval-2" class="st0" cx="52.5" cy="46.5" r="4.5"/>
			<circle id="Oval-2_1_" class="st0" cx="37.5" cy="80.5" r="4.5"/>
			<circle id="Oval-2_2_" class="st0" cx="8" cy="21" r="3"/>
			<circle id="Oval-2_3_" class="st0" cx="126" cy="50" r="3"/>
			<polygon id="Path-11" class="st1" points="3,56.3 7.6,21.4 126.7,50.5 			"/>
			<circle id="Oval-2_4_" class="st0" cx="92.5" cy="34.5" r="2.5"/>
			<circle id="Oval-2_5_" class="st0" cx="2.5" cy="56.5" r="2.5"/>
			<circle id="Oval-2_6_" class="st0" cx="62.5" cy="4.5" r="2.5"/>
			<polygon id="Path-12" class="st2" points="8.5,21 92.5,35 52.1,46.8 			"/>
			<polygon id="Path-13" class="st3" points="87,75.8 93.3,33.8 52.2,46.3 			"/>
			<circle id="Oval-2_7_" class="st0" cx="86.5" cy="74.5" r="2.5"/>
			<polyline id="Path-10" class="st4" points="8,20.7 52.8,46.5 92.9,34.4 96.2,0.9 62.3,4.4 126.5,50.3 86.9,75.2 52.8,46.5 
				2.6,56.8 126.5,49.8 96.2,0.3 37.2,81.2 2.3,56.5 7.3,21.6 92.9,34.6 37.2,81.2 7.6,21.2 124.5,49.4 92.9,33.9 86.9,75.2 
				2.6,56.5 52.5,46.8 62.3,4.4 7.6,21.2 			"/>
		</g>
	</g>
</g>
</svg>
