<?xml version="1.0" encoding="UTF-8"?>
<svg width="129px" height="85px" viewBox="0 0 129 85" version="1.1" xmlns="http://www.w3.org/2000/svg" xmlns:xlink="http://www.w3.org/1999/xlink">
    <!-- Generator: Sketch 45.2 (43514) - http://www.bohemiancoding.com/sketch -->
    <title>Group 16</title>
    <desc>Created with Sketch.</desc>
    <defs></defs>
    <g id="Page-1" stroke="none" stroke-width="1" fill="none" fill-rule="evenodd">
        <g id="Upload" transform="translate(-163.000000, -1450.000000)">
            <g id="Group-16" transform="translate(163.000000, 1450.000000)">
                <circle id="Oval-2" fill="#7DDB84" cx="52.5" cy="46.5" r="4.5"></circle>
                <circle id="Oval-2" fill="#7DDB84" cx="37.5" cy="80.5" r="4.5"></circle>
                <circle id="Oval-2" fill="#7DDB84" cx="8" cy="21" r="3"></circle>
                <circle id="Oval-2" fill="#7DDB84" cx="126" cy="50" r="3"></circle>
                <polygon id="Path-11" fill-opacity="0.5" fill="#C1E8C4" points="3.04785156 56.34375 7.61230469 21.3984375 126.741211 50.4785156"></polygon>
                <circle id="Oval-2" fill="#7DDB84" cx="92.5" cy="34.5" r="2.5"></circle>
                <circle id="Oval-2" fill="#7DDB84" cx="2.5" cy="56.5" r="2.5"></circle>
                <circle id="Oval-2" fill="#7DDB84" cx="62.5" cy="4.5" r="2.5"></circle>
                <polygon id="Path-12" fill-opacity="0.2" fill="#00E62A" points="8.45019531 20.9833984 92.4873047 35.0332031 52.0673828 46.7871094"></polygon>
                <polygon id="Path-13" fill-opacity="0.7" fill="#37B160" points="86.9990234 75.8383789 93.2646484 33.7978516 52.2050781 46.3481445"></polygon>
                <circle id="Oval-2" fill="#7DDB84" cx="86.5" cy="74.5" r="2.5"></circle>
                <polyline id="Path-10" stroke="#7DDB84" points="8.00805664 20.7226563 52.8347168 46.4897461 92.8740234 34.375 96.2387695 0.869873047 62.328125 4.40917969 126.478516 50.3183594 86.8925781 75.1884766 52.8347168 46.4897461 2.58691406 56.7568359 126.478516 49.7878418 96.2387695 0.300048828 37.2412109 81.2285156 2.26538086 56.5405273 7.26171875 21.5996094 92.8740234 34.6367188 37.2412109 81.2285156 7.62329102 21.2282715 124.509766 49.4069824 92.8740234 33.873291 86.8925781 75.1884766 2.6484375 56.5405273 52.4677734 46.8056641 62.328125 4.40917969 7.62329102 21.2282715"></polyline>
            </g>
        </g>
    </g>
</svg>