<?xml version="1.0" encoding="utf-8"?>
<!-- Generator: Adobe Illustrator 21.0.0, SVG Export Plug-In . SVG Version: 6.00 Build 0)  -->
<svg version="1.1" id="Layer_1" xmlns="http://www.w3.org/2000/svg" xmlns:xlink="http://www.w3.org/1999/xlink" x="0px" y="0px"
	 viewBox="0 0 116.7 116.7" style="enable-background:new 0 0 116.7 116.7;" xml:space="preserve">
<style type="text/css">
	.st0{fill:#C9D3DE;}
	.st1{fill:#E9E9E9;}
	.st2{filter:url(#Adobe_OpacityMaskFilter);}
	.st3{fill:#FFFFFF;}
	.st4{mask:url(#mask-2);}
	.st5{filter:url(#Adobe_OpacityMaskFilter_1_);}
	.st6{mask:url(#mask-4);}
	.st7{filter:url(#Adobe_OpacityMaskFilter_2_);}
	.st8{mask:url(#mask-6);}
	.st9{filter:url(#Adobe_OpacityMaskFilter_3_);}
	.st10{mask:url(#mask-8);}
	.st11{filter:url(#Adobe_OpacityMaskFilter_4_);}
	.st12{mask:url(#mask-10);}
	.st13{filter:url(#Adobe_OpacityMaskFilter_5_);}
	.st14{mask:url(#mask-12);}
	.st15{fill:#F4F4F4;}
	.st16{fill:#FFDEC7;}
	.st17{fill:#B10C3F;}
	.st18{fill:#B10E0D;}
	.st19{fill:#B1977F;}
	.st20{fill:#B1982A;}
	.st21{fill:#B17500;}
	.st22{fill:#B19C26;}
	.st23{fill:#478A4B;}
</style>
<desc>Created with Sketch.</desc>
<g id="soccer" transform="translate(-21.000000, 0.000000)">
	<g id="Page-1">
		<g id="Upload">
			<g id="Group-24">
				<path id="Rectangle-25" class="st0" d="M70.2,19h22c1.4,0,2.5,1.1,2.5,2.5l0,0c0,1.4-1.1,2.5-2.5,2.5h-22
					c-1.4,0-2.5-1.1-2.5-2.5l0,0C67.7,20.1,68.8,19,70.2,19z"/>
				<g id="Group-17" transform="translate(81.000000, 0.000000)">
					<g id="Oval-6">
						<circle id="path-1" class="st1" cx="27.2" cy="29.5" r="29.5"/>
					</g>
					<g id="Path-19-Clipped">
						<g id="path-1_2_">
						</g>
						<defs>
							<filter id="Adobe_OpacityMaskFilter" filterUnits="userSpaceOnUse" x="17.7" y="21" width="19.6" height="17.5">
								<feColorMatrix  type="matrix" values="1 0 0 0 0  0 1 0 0 0  0 0 1 0 0  0 0 0 1 0"/>
							</filter>
						</defs>
						<mask maskUnits="userSpaceOnUse" x="17.7" y="21" width="19.6" height="17.5" id="mask-2">
							<g class="st2">
								<circle id="path-1_1_" class="st3" cx="27.2" cy="29.5" r="29.5"/>
							</g>
						</mask>
						<polygon id="Path-19" class="st4" points="21,21 32.7,21 37.2,31.4 29.1,38.5 17.7,31.4 						"/>
					</g>
					<g id="Path-19-Clipped_1_">
						<g id="path-1_3_">
						</g>
						<defs>
							<filter id="Adobe_OpacityMaskFilter_1_" filterUnits="userSpaceOnUse" x="31.7" y="-3.1" width="19.5" height="17.6">
								<feColorMatrix  type="matrix" values="1 0 0 0 0  0 1 0 0 0  0 0 1 0 0  0 0 0 1 0"/>
							</filter>
						</defs>
						<mask maskUnits="userSpaceOnUse" x="31.7" y="-3.1" width="19.5" height="17.6" id="mask-4">
							<g class="st5">
								<circle id="path-3" class="st3" cx="27.2" cy="29.5" r="29.5"/>
							</g>
						</mask>
						<polygon id="Path-19_1_" class="st6" points="34.9,-2.9 46.6,-3.1 51.2,7.2 43.3,14.5 31.7,7.5 						"/>
					</g>
					<g id="Path-19-Clipped_2_">
						<g id="path-1_4_">
						</g>
						<defs>
							<filter id="Adobe_OpacityMaskFilter_2_" filterUnits="userSpaceOnUse" x="-0.8" y="0.6" width="18.5" height="19.3">
								<feColorMatrix  type="matrix" values="1 0 0 0 0  0 1 0 0 0  0 0 1 0 0  0 0 0 1 0"/>
							</filter>
						</defs>
						<mask maskUnits="userSpaceOnUse" x="-0.8" y="0.6" width="18.5" height="19.3" id="mask-6">
							<g class="st7">
								<circle id="path-5" class="st3" cx="27.2" cy="29.5" r="29.5"/>
							</g>
						</mask>
						<polygon id="Path-19_2_" class="st8" points="-0.8,15 1,3.5 12,0.6 17.7,9.7 8.9,19.9 						"/>
					</g>
					<g id="Path-19-Clipped_3_">
						<g id="path-1_5_">
						</g>
						<defs>
							<filter id="Adobe_OpacityMaskFilter_3_" filterUnits="userSpaceOnUse" x="-5.8" y="31.5" width="18.1" height="19.3">
								<feColorMatrix  type="matrix" values="1 0 0 0 0  0 1 0 0 0  0 0 1 0 0  0 0 0 1 0"/>
							</filter>
						</defs>
						<mask maskUnits="userSpaceOnUse" x="-5.8" y="31.5" width="18.1" height="19.3" id="mask-8">
							<g class="st9">
								<circle id="path-7" class="st3" cx="27.2" cy="29.5" r="29.5"/>
							</g>
						</mask>
						<polygon id="Path-19_3_" class="st10" points="4.6,50.7 -5.8,45.4 -5.1,34.1 5.3,31.5 12.3,43 						"/>
					</g>
					<g id="Path-19-Clipped_4_">
						<g id="path-1_6_">
						</g>
						<defs>
							<filter id="Adobe_OpacityMaskFilter_4_" filterUnits="userSpaceOnUse" x="18.6" y="49.9" width="19.2" height="17">
								<feColorMatrix  type="matrix" values="1 0 0 0 0  0 1 0 0 0  0 0 1 0 0  0 0 0 1 0"/>
							</filter>
						</defs>
						<mask maskUnits="userSpaceOnUse" x="18.6" y="49.9" width="19.2" height="17" id="mask-10">
							<g class="st11">
								<circle id="path-9" class="st3" cx="27.2" cy="29.5" r="29.5"/>
							</g>
						</mask>
						<polygon id="Path-19_4_" class="st12" points="37.9,60.4 28.2,66.9 18.6,60.8 21.4,50.4 34.9,49.9 						"/>
					</g>
					<g id="Path-19-Clipped_5_">
						<g id="path-1_7_">
						</g>
						<defs>
							<filter id="Adobe_OpacityMaskFilter_5_" filterUnits="userSpaceOnUse" x="44.6" y="26.9" width="19.2" height="17">
								<feColorMatrix  type="matrix" values="1 0 0 0 0  0 1 0 0 0  0 0 1 0 0  0 0 0 1 0"/>
							</filter>
						</defs>
						<mask maskUnits="userSpaceOnUse" x="44.6" y="26.9" width="19.2" height="17" id="mask-12">
							<g class="st13">
								<circle id="path-11" class="st3" cx="27.2" cy="29.5" r="29.5"/>
							</g>
						</mask>
						<polygon id="Path-19_5_" class="st14" points="63.9,37.4 54.2,43.9 44.6,37.8 47.4,27.4 60.9,26.9 						"/>
					</g>
				</g>
				<path id="Rectangle-25_1_" class="st15" d="M63.2,28h37c1.4,0,2.5,1.1,2.5,2.5l0,0c0,1.4-1.1,2.5-2.5,2.5h-37
					c-1.4,0-2.5-1.1-2.5-2.5l0,0C60.7,29.1,61.8,28,63.2,28z"/>
				<path id="Rectangle-25_2_" class="st3" d="M65.2,39h22c1.4,0,2.5,1.1,2.5,2.5l0,0c0,1.4-1.1,2.5-2.5,2.5h-22
					c-1.4,0-2.5-1.1-2.5-2.5l0,0C62.7,40.1,63.8,39,65.2,39z"/>
				
					<g id="Group-23" transform="translate(49.341365, 65.914338) rotate(-24.000000) translate(-49.341365, -65.914338) translate(16.841365, 17.914338)">
					<g id="Group-22" transform="translate(11.000000, 37.000000)">
						<path id="Path-20" class="st16" d="M5.1,2l0,31c-3.7,4.4-5.6,8-5.7,10.7c-0.1,2.7-0.1,5.7-0.1,9.1l27.9,0l0-53.4L5.1,2z"/>
						<polygon id="Path-21" class="st17" points="27.7,51 27.7,56.5 -1.2,56.5 -1.2,51 						"/>
					</g>
					
						<g id="Group-21" transform="translate(32.500000, 33.314431) rotate(-48.000000) translate(-32.500000, -33.314431) translate(3.000000, 17.314431)">
						<g id="Group-18" transform="translate(0.000000, 0.000000)">
							<path id="Combined-Shape" class="st18" d="M57.3,4.5c-0.2-2.1-2-3.7-4.1-3.7l0,0l-49.8,0l0,0c-2.2,0-3.9,1.7-4.1,3.8l0,0
								l0,1.1l58,0L57.3,4.5L57.3,4.5z"/>
							<path id="Rectangle-13" class="st19" d="M6-2.2L6-2.2c1.4,0,2.6,1.2,2.6,2.6v1C8.6,2.8,7.4,4,6,4l0,0C4.6,4,3.4,2.8,3.4,1.4
								l0-1C3.4-1.1,4.6-2.2,6-2.2z"/>
							<path id="Rectangle-13_1_" class="st19" d="M13.2-2.2L13.2-2.2c1.4,0,2.6,1.2,2.6,2.6v1c0,1.4-1.2,2.6-2.6,2.6h0
								c-1.4,0-2.6-1.2-2.6-2.6v-1C10.6-1.1,11.8-2.2,13.2-2.2z"/>
							<path id="Rectangle-13_2_" class="st19" d="M44.1-2.2L44.1-2.2c1.4,0,2.6,1.2,2.6,2.6v1c0,1.4-1.2,2.6-2.6,2.6h0
								c-1.4,0-2.6-1.2-2.6-2.6l0-1C41.5-1.1,42.7-2.2,44.1-2.2z"/>
							<path id="Rectangle-13_3_" class="st19" d="M51.3-2.2L51.3-2.2c1.4,0,2.6,1.2,2.6,2.6v1c0,1.4-1.2,2.6-2.6,2.6h0
								c-1.4,0-2.6-1.2-2.6-2.6v-1C48.8-1.1,49.9-2.2,51.3-2.2z"/>
							<path id="Rectangle-13_4_" class="st19" d="M36.9-2.2L36.9-2.2c1.4,0,2.6,1.2,2.6,2.6v1c0,1.4-1.2,2.6-2.6,2.6h0
								c-1.4,0-2.6-1.2-2.6-2.6v-1C34.3-1.1,35.5-2.2,36.9-2.2z"/>
						</g>
						<g id="Group-19" transform="translate(0.000000, 7.000000)">
							<path id="Rectangle-19" class="st20" d="M4.8-0.2l47,0c3,0,5.5,2.5,5.5,5.5l0,0c0,3-2.5,5.5-5.5,5.5l-47,0
								c-3,0-5.5-2.5-5.5-5.5l0,0C-0.7,2.2,1.7-0.2,4.8-0.2z"/>
							<polygon id="Rectangle-20" class="st21" points="-0.7,-1.2 25.3,-1.5 57.3,-1.5 57.3,5.8 -0.7,5.8 							"/>
						</g>
						<path id="Rectangle-23" class="st22" d="M32.6,14.5L32.6,14.5c1.9,2,1.8,5.2-0.2,7.1L28,25.7c-2,1.9-5.2,1.8-7.1-0.2l0,0
							c-1.9-2-1.8-5.2,0.2-7.1l4.4-4.1C27.6,12.4,30.7,12.5,32.6,14.5z"/>
						<g id="Group-20" transform="translate(0.000000, 7.000000)">
							<path id="Rectangle-19_1_" d="M4.8-0.5l15,0c3,0,5.5,2.5,5.5,5.5l0,0c0,3-2.5,5.5-5.5,5.5l-15,0c-3,0-5.5-2.5-5.5-5.5l0,0
								C-0.7,2,1.7-0.5,4.8-0.5z"/>
							
								<rect id="Rectangle-20_1_" x="-0.7" y="-1.5" transform="matrix(-1 2.186378e-06 -2.186378e-06 -1 24.5567 4.0151)" width="26" height="7"/>
						</g>
						<path id="Rectangle-22" class="st3" d="M32.8,13.8l11,0c1.9,0,3.5,1.6,3.5,3.5l0,0c0,1.9-1.6,3.5-3.5,3.5l-11,0
							c-1.9,0-3.5-1.6-3.5-3.5l0,0C29.3,15.3,30.8,13.8,32.8,13.8z"/>
						<path id="Rectangle-21" class="st23" d="M36.4,9.3L36.4,9.3c0.8,0,1.5,0.7,1.5,1.5l0,6c0,0.8-0.7,1.5-1.5,1.5l0,0
							c-0.8,0-1.5-0.7-1.5-1.5l0-6C34.9,10,35.6,9.3,36.4,9.3z"/>
						<path id="Rectangle-21_1_" class="st23" d="M41.4,9.3L41.4,9.3c0.8,0,1.5,0.7,1.5,1.5l0,6c0,0.8-0.7,1.5-1.5,1.5l0,0
							c-0.8,0-1.5-0.7-1.5-1.5l0-6C39.9,10,40.6,9.3,41.4,9.3z"/>
					</g>
				</g>
			</g>
		</g>
	</g>
</g>
</svg>
