<?xml version="1.0" encoding="utf-8"?>
<!-- Generator: Adobe Illustrator 21.0.0, SVG Export Plug-In . SVG Version: 6.00 Build 0)  -->
<svg version="1.1" id="Layer_1" xmlns="http://www.w3.org/2000/svg" xmlns:xlink="http://www.w3.org/1999/xlink" x="0px" y="0px"
	 viewBox="0 0 115 112" style="enable-background:new 0 0 115 112;" xml:space="preserve">
<style type="text/css">
	.st0{fill:#F9EE48;}
	.st1{fill:#FFFACD;}
	.st2{font-family:'MyriadPro-Regular';}
	.st3{font-size:54px;}
</style>
<title>Group 12</title>
<desc>Created with Sketch.</desc>
<g id="Page-1">
	<g id="Upload" transform="translate(-974.000000, -1611.000000)">
		<g id="Group-12" transform="translate(974.000000, 1611.000000)">
			<polygon id="Star" class="st0" points="57.5,13.4 52.1,16.2 53.2,10.3 48.8,6.2 54.8,5.3 57.5,0 60.2,5.3 66.2,6.2 61.8,10.3 
				62.9,16.2 			"/>
			<polygon id="Star_1_" class="st0" points="81.5,20.1 76.1,22.9 77.1,17 72.8,12.9 78.8,12 81.5,6.7 84.1,12 90.1,12.9 85.8,17 
				86.8,22.9 			"/>
			<polygon id="Star_2_" class="st0" points="100.1,37.6 94.8,40.4 95.8,34.5 91.4,30.3 97.4,29.5 100.1,24.2 102.8,29.5 
				108.8,30.3 104.4,34.5 105.5,40.4 			"/>
			<polygon id="Star_3_" class="st0" points="106.3,60.9 101,63.7 102,57.8 97.7,53.7 103.6,52.8 106.3,47.5 109,52.8 115,53.7 
				110.7,57.8 111.7,63.7 			"/>
			<polygon id="Star_4_" class="st0" points="100.1,85.9 94.8,88.7 95.8,82.8 91.4,78.7 97.4,77.8 100.1,72.5 102.8,77.8 
				108.8,78.7 104.4,82.8 105.5,88.7 			"/>
			<polygon id="Star_5_" class="st0" points="82.4,103.4 77,106.2 78,100.3 73.7,96.2 79.7,95.3 82.4,90 85,95.3 91,96.2 
				86.7,100.3 87.7,106.2 			"/>
			<polygon id="Star_6_" class="st0" points="57.5,109.2 52.1,112 53.2,106.1 48.8,102 54.8,101.1 57.5,95.8 60.2,101.1 66.2,102 
				61.8,106.1 62.9,112 			"/>
			<polygon id="Star_7_" class="st0" points="32.6,103.4 27.3,106.2 28.3,100.3 24,96.2 30,95.3 32.6,90 35.3,95.3 41.3,96.2 
				37,100.3 38,106.2 			"/>
			<polygon id="Star_8_" class="st0" points="14.9,85.9 9.5,88.7 10.6,82.8 6.2,78.7 12.2,77.8 14.9,72.5 17.6,77.8 23.6,78.7 
				19.2,82.8 20.2,88.7 			"/>
			<polygon id="Star_9_" class="st0" points="8.7,61.7 3.3,64.5 4.3,58.7 0,54.5 6,53.7 8.7,48.3 11.4,53.7 17.3,54.5 13,58.7 
				14,64.5 			"/>
			<polygon id="Star_10_" class="st0" points="15.8,37.6 10.4,40.4 11.4,34.5 7.1,30.3 13.1,29.5 15.8,24.2 18.5,29.5 24.4,30.3 
				20.1,34.5 21.1,40.4 			"/>
			<polygon id="Star_11_" class="st0" points="32.6,20.1 27.3,22.9 28.3,17 24,12.9 30,12 32.6,6.7 35.3,12 41.3,12.9 37,17 
				38,22.9 			"/>
		</g>
	</g>
</g>
<text transform="matrix(1 0 0 1 46.9531 77.7484)" class="st1 st2 st3">?</text>
</svg>
