<?xml version="1.0" encoding="UTF-8"?>
<svg width="115px" height="112px" viewBox="0 0 115 112" version="1.1" xmlns="http://www.w3.org/2000/svg" xmlns:xlink="http://www.w3.org/1999/xlink">
    <!-- Generator: Sketch 45.2 (43514) - http://www.bohemiancoding.com/sketch -->
    <title>Group 12</title>
    <desc>Created with Sketch.</desc>
    <defs></defs>
    <g id="Page-1" stroke="none" stroke-width="1" fill="none" fill-rule="evenodd">
        <g id="Upload" transform="translate(-974.000000, -1611.000000)">
            <g id="Group-12" transform="translate(974.000000, 1611.000000)">
                <polygon id="Star" fill="#C8F3CB" points="57.5 13.4269362 52.1405841 16.1930371 53.1641415 10.3343413 48.8282829 6.1851898 54.8202921 5.33041759 57.5 0 60.1797079 5.33041759 66.1717171 6.1851898 61.8358585 10.3343413 62.8594159 16.1930371"></polygon>
                <polygon id="Star" fill="#76D07C" points="81.470248 20.0917684 76.1108321 22.8578693 77.1343895 16.9991735 72.7985309 12.850022 78.79054 11.9952498 81.470248 6.6648322 84.1499559 11.9952498 90.141965 12.850022 85.8061065 16.9991735 86.8296639 22.8578693"></polygon>
                <polygon id="Star" fill="#C8F3CB" points="100.113774 37.5869529 94.7543583 40.3530538 95.7779157 34.494358 91.4420571 30.3452065 97.4340663 29.4904343 100.113774 24.1600167 102.793482 29.4904343 108.785491 30.3452065 104.449633 34.494358 105.47319 40.3530538"></polygon>
                <polygon id="Star" fill="#89DB8E" points="106.328283 60.9138656 100.968867 63.6799665 101.992424 57.8212707 97.6565659 53.6721192 103.648575 52.817347 106.328283 47.4869294 109.007991 52.817347 115 53.6721192 110.664141 57.8212707 111.687699 63.6799665"></polygon>
                <polygon id="Star" fill="#B8F5BC" points="100.113774 85.9069863 94.7543583 88.6730873 95.7779157 82.8143914 91.4420571 78.66524 97.4340663 77.8104678 100.113774 72.4800502 102.793482 77.8104678 108.785491 78.66524 104.449633 82.8143914 105.47319 88.6730873"></polygon>
                <polygon id="Star" fill="#5DA962" points="82.358035 103.402171 76.9986191 106.168272 78.0221764 100.309576 73.6863179 96.1604245 79.678327 95.3056523 82.358035 89.9752347 85.0377429 95.3056523 91.029752 96.1604245 86.6938935 100.309576 87.7174508 106.168272"></polygon>
                <polygon id="Star" fill="#C8F3CB" points="57.5 109.233899 52.1405841 112 53.1641415 106.141304 48.8282829 101.992153 54.8202921 101.13738 57.5 95.8069629 60.1797079 101.13738 66.1717171 101.992153 61.8358585 106.141304 62.8594159 112"></polygon>
                <polygon id="Star" fill="#95DC9A" points="32.641965 103.402171 27.2825492 106.168272 28.3061065 100.309576 23.970248 96.1604245 29.9622571 95.3056523 32.641965 89.9752347 35.321673 95.3056523 41.3136821 96.1604245 36.9778236 100.309576 38.0013809 106.168272"></polygon>
                <polygon id="Star" fill="#C8F3CB" points="14.8862258 85.9069863 9.52680991 88.6730873 10.5503673 82.8143914 6.21450874 78.66524 12.2065179 77.8104678 14.8862258 72.4800502 17.5659337 77.8104678 23.5579429 78.66524 19.2220843 82.8143914 20.2456417 88.6730873"></polygon>
                <polygon id="Star" fill="#76D07C" points="8.67171706 61.7469696 3.31230118 64.5130706 4.33585853 58.6543747 -3.10862447e-15 54.5052233 5.99200912 53.650451 8.67171706 48.3200335 11.351425 53.650451 17.3434341 54.5052233 13.0075756 58.6543747 14.0311329 64.5130706"></polygon>
                <polygon id="Star" fill="#5DA962" points="15.7740128 37.5869529 10.4145969 40.3530538 11.4381542 34.494358 7.1022957 30.3452065 13.0943048 29.4904343 15.7740128 24.1600167 18.4537207 29.4904343 24.4457298 30.3452065 20.1098713 34.494358 21.1334286 40.3530538"></polygon>
                <polygon id="Star" fill="#90DA94" points="32.641965 20.0917684 27.2825492 22.8578693 28.3061065 16.9991735 23.970248 12.850022 29.9622571 11.9952498 32.641965 6.6648322 35.321673 11.9952498 41.3136821 12.850022 36.9778236 16.9991735 38.0013809 22.8578693"></polygon>
                <g id="Group" transform="translate(33.000000, 48.000000)">
                    <polygon id="Fill-1765" fill="#5DA962" points="49.5733898 26.0307379 0.577235937 26.0307379 0.577235937 12.2505696 49.5733898 12.2505696"></polygon>
                    <polygon id="Fill-1766" fill="#95E39A" points="0.577235937 12.2502634 6.70175517 0.00122490385 43.4488706 0.00122490385 49.5733898 12.2502634"></polygon>
                    <polygon id="Fill-1767" fill="#5DA962" points="4.40506046 10.7191336 8.99844988 1.53235471 41.1521758 1.53235471 45.7455653 10.7191336"></polygon>
                    <path d="M38.0899162,6.12574413 C38.0899162,6.54833596 37.7469431,6.89130904 37.3243513,6.89130904 C36.9017595,6.89130904 36.5587864,6.54833596 36.5587864,6.12574413 C36.5587864,5.70315231 36.9017595,5.36017923 37.3243513,5.36017923 C37.7469431,5.36017923 38.0899162,5.70315231 38.0899162,6.12574413" id="Fill-1768" fill="#C2FCF5"></path>
                    <path d="M13.5918393,6.12574413 C13.5918393,6.54833596 13.2488662,6.89130904 12.8262744,6.89130904 C12.4036826,6.89130904 12.0607095,6.54833596 12.0607095,6.12574413 C12.0607095,5.70315231 12.4036826,5.36017923 12.8262744,5.36017923 C13.2488662,5.36017923 13.5918393,5.70315231 13.5918393,6.12574413" id="Fill-1769" fill="#C2FCF5"></path>
                    <polygon id="Fill-1772" fill="#C8F3CB" points="49.5733898 15.3128292 0.577235937 15.3128292 0.577235937 13.7816994 49.5733898 13.7816994"></polygon>
                    <polygon id="Fill-1773" fill="#C8F3CB" points="49.5733898 18.3750888 0.577235937 18.3750888 0.577235937 16.843959 49.5733898 16.843959"></polygon>
                    <polygon id="Fill-1774" fill="#C8F3CB" points="49.5733898 21.4373484 0.577235937 21.4373484 0.577235937 19.9062186 49.5733898 19.9062186"></polygon>
                    <polygon id="Fill-1775" fill="#C8F3CB" points="49.5733898 24.4996081 0.577235937 24.4996081 0.577235937 22.9684782 49.5733898 22.9684782"></polygon>
                    <polygon id="Fill-1776" fill="#76D07C" points="0.577235937 13.7813932 17.0575516 13.7813932 18.5886814 12.2502634 0.577235937 12.2502634"></polygon>
                    <polygon id="Fill-1777" fill="#76D07C" points="0.577235937 16.8436528 13.995292 16.8436528 15.5264218 15.312523 0.577235937 15.312523"></polygon>
                    <polygon id="Fill-1778" fill="#76D07C" points="0.577235937 24.4993018 0.577235937 26.0304316 4.80851316 26.0304316 6.33964297 24.4993018"></polygon>
                    <polygon id="Fill-1779" fill="#76D07C" points="0.577235937 19.9059124 10.9330324 19.9059124 12.4641622 18.3747826 0.577235937 18.3747826"></polygon>
                    <polygon id="Fill-1780" fill="#76D07C" points="0.577235937 22.968172 7.87077278 22.968172 9.40190258 21.4370422 0.577235937 21.4370422"></polygon>
                    <polygon id="Fill-1781" fill="#C8F3CB" points="0.577235937 12.2502634 18.5886814 12.2502634 20.1198112 10.7191336 4.40506046 10.7191336 8.99844988 1.53235471 29.3065901 1.53235471 30.8377199 0.00122490385 6.70175517 0.00122490385"></polygon>
                    <path d="M12.8262744,6.89130904 C12.4036826,6.89130904 12.0607095,6.54833596 12.0607095,6.12574413 C12.0607095,5.70315231 12.4036826,5.36017923 12.8262744,5.36017923 C13.2488662,5.36017923 13.5918393,5.70315231 13.5918393,6.12574413 C13.5918393,6.54833596 13.2488662,6.89130904 12.8262744,6.89130904 M20.4819234,6.12574413 C20.4819234,4.01125387 22.5382308,2.29791962 25.0753129,2.29791962 C26.0942797,2.29791962 27.0320968,2.57735081 27.7938338,3.04511096 L29.3065901,1.53235471 L8.99844988,1.53235471 L4.40506046,10.7191336 L20.1198112,10.7191336 L21.9296067,8.90933813 C21.0400203,8.2119085 20.4819234,7.22432977 20.4819234,6.12574413" id="Fill-1782" fill="#76D07C"></path>
                    <path d="M12.8262744,5.36017923 C12.4036826,5.36017923 12.0607095,5.70315231 12.0607095,6.12574413 C12.0607095,6.54833596 12.4036826,6.89130904 12.8262744,6.89130904 C13.2488662,6.89130904 13.5918393,6.54833596 13.5918393,6.12574413 C13.5918393,5.70315231 13.2488662,5.36017923 12.8262744,5.36017923" id="Fill-1783" fill="#FFFFFF"></path>
                    <polygon id="Fill-1787" fill="#FFFFFF" points="0.577235937 15.312523 15.5264218 15.312523 17.0575516 13.7813932 0.577235937 13.7813932"></polygon>
                    <polygon id="Fill-1788" fill="#FFFFFF" points="0.577235937 18.3747826 12.4641622 18.3747826 13.995292 16.8436528 0.577235937 16.8436528"></polygon>
                    <polygon id="Fill-1789" fill="#FFFFFF" points="0.577235937 21.4370422 9.40190258 21.4370422 10.9330324 19.9059124 0.577235937 19.9059124"></polygon>
                    <polygon id="Fill-1790" fill="#FFFFFF" points="0.577235937 24.4993018 6.33964297 24.4993018 7.87077278 22.968172 0.577235937 22.968172"></polygon>
                    <polygon id="Path-7" fill="#76D07C" points="17.4629541 3.93062254 20.0512214 10.7104324 29.2357574 1.64607669 17.8560164 2.30286259"></polygon>
                </g>
                <text id="€" font-family="Overpass-Regular, Overpass" font-size="10" font-weight="normal" fill="#FFFFFF">
                    <tspan x="55" y="58">€</tspan>
                </text>
            </g>
        </g>
    </g>
</svg>