<?xml version="1.0" encoding="utf-8"?>
<!-- Generator: Adobe Illustrator 21.0.0, SVG Export Plug-In . SVG Version: 6.00 Build 0)  -->
<svg version="1.1" id="Layer_1" xmlns="http://www.w3.org/2000/svg" xmlns:xlink="http://www.w3.org/1999/xlink" x="0px" y="0px"
	 viewBox="0 0 100 94" style="enable-background:new 0 0 100 94;" xml:space="preserve">
<style type="text/css">
	.st0{fill:#0D560F;}
	.st1{fill:#D3D3D3;}
	.st2{fill:#911836;}
	.st3{fill:#DD4B39;}
	.st4{fill:#FFFFFF;}
	.st5{fill:#CED7F3;}
	.st6{fill:#42A5F5;}
	.st7{fill:#AA8755;}
	.st8{fill:#408344;}
	.st9{fill:#82CD87;}
	.st10{fill:#68B06D;}
</style>
<title>Group</title>
<desc>Created with Sketch.</desc>
<g id="Page-1">
	<g id="Upload" transform="translate(-526.000000, -1616.000000)">
		<g id="Group" transform="translate(526.000000, 1616.000000)">
			<path id="Fill-308" class="st0" d="M100,93.2H0.6v-0.1c0-3.4,2.8-6.1,6.1-6.1h87.1C97.2,86.9,100,89.7,100,93.2L100,93.2z"/>
			<polygon id="Fill-309" class="st1" points="93.8,31.1 6.8,31.1 6.8,86.9 93.8,86.9 			"/>
			<path id="Fill-310" class="st2" d="M14.8,31.1c0,3.4-3.2,6.2-7.1,6.2c-3.9,0-7.1-2.8-7.1-6.2H14.8z"/>
			<path id="Fill-311" class="st1" d="M29,31.1c0,3.4-3.2,6.2-7.1,6.2c-3.9,0-7.1-2.8-7.1-6.2H29z"/>
			<path id="Fill-312" class="st2" d="M43.2,31.1c0,3.4-3.2,6.2-7.1,6.2c-3.9,0-7.1-2.8-7.1-6.2H43.2z"/>
			<path id="Fill-313" class="st1" d="M57.4,31.1c0,3.4-3.2,6.2-7.1,6.2c-3.9,0-7.1-2.8-7.1-6.2H57.4z"/>
			<path id="Fill-314" class="st1" d="M85.8,31.1c0,3.4-3.2,6.2-7.1,6.2c-3.9,0-7.1-2.8-7.1-6.2H85.8z"/>
			<path id="Fill-315" class="st2" d="M71.6,31.1c0,3.4-3.2,6.2-7.1,6.2c-3.9,0-7.1-2.8-7.1-6.2H71.6z"/>
			<path id="Fill-316" class="st2" d="M100,31.1c0,3.4-3.2,6.2-7.1,6.2c-3.9,0-7.1-2.8-7.1-6.2H100z"/>
			<polygon id="Fill-317" class="st3" points="0.6,31.1 14.8,31.1 27.2,0 14.8,0 			"/>
			<polygon id="Fill-318" class="st4" points="14.8,31.1 29,31.1 37.9,0 27.2,0 			"/>
			<polygon id="Fill-319" class="st3" points="29,31.1 43.2,31.1 48.5,0 37.9,0 			"/>
			<polygon id="Fill-320" class="st4" points="43.2,31.1 57.4,31.1 57.4,0 48.5,0 			"/>
			<polygon id="Fill-321" class="st3" points="100,31.1 85.8,31.1 76.9,0 87.6,0 			"/>
			<polygon id="Fill-322" class="st4" points="85.8,31.1 71.6,31.1 66.3,0 76.9,0 			"/>
			<polygon id="Fill-323" class="st3" points="71.6,31.1 57.4,31.1 57.4,0 66.3,0 			"/>
			<polygon id="Fill-324" class="st5" points="56.5,68.3 13,68.3 13,43.5 56.5,43.5 			"/>
			<polygon id="Fill-325" class="st6" points="56.5,68.3 13,68.3 56.5,43.5 			"/>
			<polygon id="Fill-326" class="st7" points="87.6,43.5 65.8,43.5 65.8,63.7 87.6,63.7 			"/>
			<polygon id="Fill-327" class="st7" points="87.6,68.3 65.8,68.3 65.8,86.9 87.6,86.9 			"/>
			<path id="Fill-328" class="st8" d="M54.9,76.1c0.4-5.1-5.3-8.7-11.5-8.7c-3.6,0-6.8,1.2-8.9,3c-1-1.8-2.6-3-4.4-3
				c-1.7,0-3.2,1.1-4.2,2.7c-1.2-3-4-5.1-7.4-5.1c-3.9,0-7.1,2.9-7.8,6.7c-0.6-0.5-1.2-0.8-1.9-0.8c-2.1,0-3.7,2.4-3.5,5.2H54.9z"/>
			<polygon id="Fill-329" class="st9" points="55,86.9 5.3,86.9 5.3,76.1 55,76.1 			"/>
			<polygon id="Fill-330" class="st10" points="55,79.2 5.3,79.2 5.3,76.1 55,76.1 			"/>
		</g>
	</g>
</g>
</svg>
