<?xml version="1.0" encoding="UTF-8"?>
<svg width="100px" height="94px" viewBox="0 0 100 94" version="1.1" xmlns="http://www.w3.org/2000/svg" xmlns:xlink="http://www.w3.org/1999/xlink">
    <!-- Generator: Sketch 45.2 (43514) - http://www.bohemiancoding.com/sketch -->
    <title>Group</title>
    <desc>Created with Sketch.</desc>
    <defs></defs>
    <g id="Page-1" stroke="none" stroke-width="1" fill="none" fill-rule="evenodd">
        <g id="Upload" transform="translate(-526.000000, -1616.000000)">
            <g id="Group" transform="translate(526.000000, 1616.000000)">
                <path d="M99.9852449,93.1567383 L0.618057373,93.1567383 L0.618057373,93.0946338 C0.618057373,89.6990707 3.37083899,86.9462891 6.7664021,86.9462891 L93.8369001,86.9462891 C97.2324633,86.9462891 99.9852449,89.6990707 99.9852449,93.0946338 L99.9852449,93.1567383 Z" id="Fill-308" fill="#C8F3CB"></path>
                <polygon id="Fill-309" fill="#C8F3CB" points="93.7747957 31.0522461 6.82850659 31.0522461 6.82850659 86.9462891 93.7747957 86.9462891"></polygon>
                <path d="M14.8134364,31.0522461 C14.8134364,34.4819667 11.635239,37.2626953 7.71489296,37.2626953 C3.7960995,37.2626953 0.617902112,34.4819667 0.617902112,31.0522461 L14.8134364,31.0522461 Z" id="Fill-310" fill="#5DA962"></path>
                <path d="M29.0086602,31.0522461 C29.0086602,34.4819667 25.8304628,37.2626953 21.9116693,37.2626953 C17.9913233,37.2626953 14.8131259,34.4819667 14.8131259,31.0522461 L29.0086602,31.0522461 Z" id="Fill-311" fill="#96D99A"></path>
                <path d="M43.2040392,31.0522461 C43.2040392,34.4819667 40.0258418,37.2626953 36.1054958,37.2626953 C32.1867023,37.2626953 29.0085049,34.4819667 29.0085049,31.0522461 L43.2040392,31.0522461 Z" id="Fill-312" fill="#5DA962"></path>
                <path d="M57.399263,31.0522461 C57.399263,34.4819667 54.2210656,37.2626953 50.3022722,37.2626953 C46.3819261,37.2626953 43.2037287,34.4819667 43.2037287,31.0522461 L57.399263,31.0522461 Z" id="Fill-313" fill="#96D99A"></path>
                <path d="M85.7898658,31.0522461 C85.7898658,34.4819667 82.6116684,37.2626953 78.692875,37.2626953 C74.7725289,37.2626953 71.5943315,34.4819667 71.5943315,31.0522461 L85.7898658,31.0522461 Z" id="Fill-314" fill="#96D99A"></path>
                <path d="M71.5946421,31.0522461 C71.5946421,34.4819667 68.4164447,37.2626953 64.4976512,37.2626953 C60.5773051,37.2626953 57.3991078,34.4819667 57.3991078,31.0522461 L71.5946421,31.0522461 Z" id="Fill-315" fill="#5DA962"></path>
                <path d="M99.9852449,31.0522461 C99.9852449,34.4819667 96.8070475,37.2626953 92.888254,37.2626953 C88.967908,37.2626953 85.7897106,34.4819667 85.7897106,31.0522461 L99.9852449,31.0522461 Z" id="Fill-316" fill="#5DA962"></path>
                <polygon id="Fill-317" fill="#89DB8E" points="0.618057373 31.0522461 14.8135917 31.0522461 27.2344901 0 14.8135917 0"></polygon>
                <polygon id="Fill-318" fill="#FFFFFF" points="14.8134364 31.0522461 29.0089707 31.0522461 37.8805974 0 27.2343349 0"></polygon>
                <polygon id="Fill-319" fill="#89DB8E" points="29.0086602 31.0522461 43.2041945 31.0522461 48.5265495 0 37.8802869 0"></polygon>
                <polygon id="Fill-320" fill="#FFFFFF" points="43.2040392 31.0522461 57.3995735 31.0522461 57.3995735 0 48.5263942 0"></polygon>
                <polygon id="Fill-321" fill="#89DB8E" points="99.9852449 31.0522461 85.7897106 31.0522461 76.9180839 0 87.5643464 0"></polygon>
                <polygon id="Fill-322" fill="#FFFFFF" points="85.7898658 31.0522461 71.5943315 31.0522461 66.2719766 0 76.9182391 0"></polygon>
                <polygon id="Fill-323" fill="#89DB8E" points="71.5946421 31.0522461 57.3991078 31.0522461 57.3991078 0 66.2707345 0"></polygon>
                <polygon id="Fill-324" fill="#98D49C" points="56.5121003 68.3149414 13.0389558 68.3149414 13.0389558 43.4731445 56.5121003 43.4731445"></polygon>
                <polygon id="Fill-325" fill="#63B968" points="56.5121003 68.3149414 13.0389558 68.3149414 56.5121003 43.4731445"></polygon>
                <polygon id="Fill-326" fill="#76D07C" points="87.5643464 43.4731445 65.8277742 43.4731445 65.8277742 63.6571045 87.5643464 63.6571045"></polygon>
                <polygon id="Fill-327" fill="#76D07C" points="87.5643464 68.3149414 65.8277742 68.3149414 65.8277742 86.9462891 87.5643464 86.9462891"></polygon>
                <path d="M54.9253306,76.0780029 C55.3290098,71.019592 49.6386857,67.3445587 43.4251312,67.3445587 C39.8184128,67.3445587 36.5998475,68.5307545 34.4851896,70.3861262 C33.5225699,68.5509385 31.9280371,67.3445587 30.1176912,67.3445587 C28.4206859,67.3445587 26.9270729,68.4189664 25.9520323,70.0616302 C24.7472052,67.0837198 21.9043721,64.9876932 18.5833344,64.9876932 C14.7018036,64.9876932 11.47237,67.8522629 10.7550631,71.6452948 C10.1976753,71.163985 9.53781506,70.8798569 8.82516602,70.8798569 C6.72137634,70.8798569 5.08958081,73.2708799 5.31315698,76.0780029 L54.9253306,76.0780029 Z" id="Fill-328" fill="#408344"></path>
                <polygon id="Fill-329" fill="#82CD87" points="54.959488 86.9462891 5.27589429 86.9462891 5.27589429 76.0780029 54.959488 76.0780029"></polygon>
                <polygon id="Fill-330" fill="#68B06D" points="54.959488 79.1832275 5.27589429 79.1832275 5.27589429 76.0780029 54.959488 76.0780029"></polygon>
            </g>
        </g>
    </g>
</svg>