<?xml version="1.0" encoding="utf-8"?>
<!-- Generator: Adobe Illustrator 21.0.0, SVG Export Plug-In . SVG Version: 6.00 Build 0)  -->
<svg version="1.1" id="Layer_1" xmlns="http://www.w3.org/2000/svg" xmlns:xlink="http://www.w3.org/1999/xlink" x="0px" y="0px"
	 viewBox="0 0 595.3 430.1" style="enable-background:new 0 0 595.3 430.1;" xml:space="preserve">
<style type="text/css">
	.st0{fill:#51B858;}
	.st1{fill:#7DDC84;}
	.st2{fill:#478A4B;}
	.st3{fill:#7DDB84;}
</style>
<g id="Rectangle.-8" transform="matrix(1,0,0,1,-398,-186)">
	<rect x="398" y="248" class="st0" width="403.3" height="306.1"/>
</g>
<g id="Rectangle.-81" transform="matrix(1,0,0,1,-398,-186)">
	<rect x="813" y="248" class="st1" width="124.4" height="170.1"/>
</g>
<g id="Rectangle.-82" transform="matrix(1,0,0,1,-398,-186)">
	<rect x="813" y="428.3" class="st2" width="124.4" height="125.9"/>
</g>
<g id="Rectangle.-83" transform="matrix(1,0,0,1,-398,-186)">
	<rect x="949.1" y="248" class="st0" width="42.9" height="108.9"/>
</g>
<g id="Rectangle.-84" transform="matrix(1,0,0,1,-398,-186)">
	<rect x="949.1" y="370.4" class="st2" width="42.9" height="95.2"/>
</g>
<g id="Rectangle.-85" transform="matrix(1,0,0,1,-398,-186)">
	<rect x="949.1" y="475.9" class="st3" width="42.9" height="78.2"/>
</g>
</svg>
