<?xml version="1.0" encoding="UTF-8" standalone="no"?>
<!-- Generated by graphviz version 2.38.0 (20140413.2041)
 -->

<!-- Title: G Pages: 1 -->

<svg
   xmlns:dc="http://purl.org/dc/elements/1.1/"
   xmlns:cc="http://creativecommons.org/ns#"
   xmlns:rdf="http://www.w3.org/1999/02/22-rdf-syntax-ns#"
   xmlns:svg="http://www.w3.org/2000/svg"
   xmlns="http://www.w3.org/2000/svg"
   xmlns:sodipodi="http://sodipodi.sourceforge.net/DTD/sodipodi-0.dtd"
   xmlns:inkscape="http://www.inkscape.org/namespaces/inkscape"
   width="833pt"
   height="641pt"
   viewBox="0.00 0.00 832.58 640.75"
   id="svg4630"
   version="1.1"
   inkscape:version="0.48.4 r9943 custom"
   sodipodi:docname="links_d1.8.svg"
   inkscape:export-filename="/Users/mynarzjindrich/Dropbox/Public/pracovni/OpenBudgets.eu/2016-06-review/img/links_d1.8.png"
   inkscape:export-xdpi="89.971916"
   inkscape:export-ydpi="89.971916">
  <metadata
     id="metadata4818">
    <rdf:RDF>
      <cc:Work
         rdf:about="">
        <dc:format>image/svg+xml</dc:format>
        <dc:type
           rdf:resource="http://purl.org/dc/dcmitype/StillImage" />
        <dc:title />
      </cc:Work>
    </rdf:RDF>
  </metadata>
  <defs
     id="defs4816">
    <filter
       inkscape:collect="always"
       id="filter6072">
      <feGaussianBlur
         inkscape:collect="always"
         stdDeviation="6.607441"
         id="feGaussianBlur6074" />
    </filter>
    <filter
       inkscape:collect="always"
       id="filter6076"
       x="-0.14378642"
       width="1.2875728"
       y="-0.14378642"
       height="1.2875728">
      <feGaussianBlur
         inkscape:collect="always"
         stdDeviation="6.607441"
         id="feGaussianBlur6078" />
    </filter>
    <filter
       inkscape:collect="always"
       id="filter6080"
       x="-0.15592031"
       width="1.3118406"
       y="-0.15592031"
       height="1.3118406">
      <feGaussianBlur
         inkscape:collect="always"
         stdDeviation="10.04718"
         id="feGaussianBlur6082" />
    </filter>
    <filter
       inkscape:collect="always"
       id="filter6084"
       x="-0.14032243"
       width="1.2806449"
       y="-0.14032243"
       height="1.2806449">
      <feGaussianBlur
         inkscape:collect="always"
         stdDeviation="11.694822"
         id="feGaussianBlur6086" />
    </filter>
    <filter
       inkscape:collect="always"
       id="filter6088"
       x="-0.20472213"
       width="1.4094443"
       y="-0.20472213"
       height="1.4094443">
      <feGaussianBlur
         inkscape:collect="always"
         stdDeviation="6.607441"
         id="feGaussianBlur6090" />
    </filter>
    <filter
       inkscape:collect="always"
       id="filter6092"
       x="-0.11553069"
       width="1.2310614"
       y="-0.11553069"
       height="1.2310614">
      <feGaussianBlur
         inkscape:collect="always"
         stdDeviation="6.607441"
         id="feGaussianBlur6094" />
    </filter>
    <filter
       inkscape:collect="always"
       id="filter6096"
       x="-0.12304936"
       width="1.2460987"
       y="-0.12304936"
       height="1.2460987">
      <feGaussianBlur
         inkscape:collect="always"
         stdDeviation="10.748464"
         id="feGaussianBlur6098" />
    </filter>
    <filter
       inkscape:collect="always"
       id="filter6100"
       x="-0.11555746"
       width="1.2311149"
       y="-0.11555746"
       height="1.2311149">
      <feGaussianBlur
         inkscape:collect="always"
         stdDeviation="6.607441"
         id="feGaussianBlur6102" />
    </filter>
    <filter
       inkscape:collect="always"
       id="filter6104">
      <feGaussianBlur
         inkscape:collect="always"
         stdDeviation="6.607441"
         id="feGaussianBlur6106" />
    </filter>
    <filter
       inkscape:collect="always"
       id="filter6108"
       x="-0.14253948"
       width="1.285079"
       y="-0.14253948"
       height="1.285079">
      <feGaussianBlur
         inkscape:collect="always"
         stdDeviation="9.4151478"
         id="feGaussianBlur6110" />
    </filter>
    <filter
       inkscape:collect="always"
       id="filter6112"
       x="-0.12989026"
       width="1.2597805"
       y="-0.12989026"
       height="1.2597805">
      <feGaussianBlur
         inkscape:collect="always"
         stdDeviation="8.613359"
         id="feGaussianBlur6114" />
    </filter>
    <filter
       color-interpolation-filters="sRGB"
       inkscape:collect="always"
       id="filter7677"
       x="-0.28645188"
       width="1.5729038"
       y="-0.28645188"
       height="1.5729038">
      <feGaussianBlur
         inkscape:collect="always"
         stdDeviation="6.3258125"
         id="feGaussianBlur7679" />
    </filter>
  </defs>
  <sodipodi:namedview
     pagecolor="#ffffff"
     bordercolor="#666666"
     borderopacity="1"
     objecttolerance="10"
     gridtolerance="10"
     guidetolerance="10"
     inkscape:pageopacity="0"
     inkscape:pageshadow="2"
     inkscape:window-width="1280"
     inkscape:window-height="732"
     id="namedview4814"
     showgrid="false"
     inkscape:zoom="1.4544517"
     inkscape:cx="577.17897"
     inkscape:cy="430.51625"
     inkscape:window-x="1"
     inkscape:window-y="23"
     inkscape:window-maximized="0"
     inkscape:current-layer="layer2" />
  <g
     inkscape:groupmode="layer"
     id="layer1"
     inkscape:label="Background"
     style="display:inline"
     sodipodi:insensitive="true">
    <rect
       style="fill:#ffffff;fill-opacity:1;stroke:none"
       id="rect6270"
       width="832.67511"
       height="640.75"
       x="-0.047554933"
       y="1.1368684e-13" />
  </g>
  <g
     inkscape:groupmode="layer"
     id="layer2"
     inkscape:label="Foreground"
     style="display:inline">
    <ellipse
       transform="translate(448.427,289.513)"
       style="opacity:0.31606218;fill:#000000;fill-opacity:1;stroke:none;filter:url(#filter6072)"
       sodipodi:ry="89.689903"
       sodipodi:rx="89.689903"
       sodipodi:cy="14.224"
       sodipodi:cx="-187.67999"
       d="m -97.990089,14.224 c 0,49.534366 -40.155541,89.6899 -89.689901,89.6899 -49.53437,0 -89.68991,-40.155534 -89.68991,-89.6899 0,-49.534366 40.15554,-89.689903 89.68991,-89.689903 49.53436,0 89.689901,40.155537 89.689901,89.689903 z"
       id="ellipse5698"
       ry="89.689903"
       rx="89.689903"
       cy="14.224"
       cx="-187.67999" />
    <ellipse
       transform="translate(448.427,289.513)"
       style="opacity:0.31606218;fill:#000000;fill-opacity:1;stroke:none;filter:url(#filter6076)"
       sodipodi:ry="55.143799"
       sodipodi:rx="55.143799"
       sodipodi:cy="-221.866"
       sodipodi:cx="-125.952"
       d="m -70.808205,-221.866 c 0,30.45508 -24.688719,55.1438 -55.143795,55.1438 -30.45508,0 -55.1438,-24.68872 -55.1438,-55.1438 0,-30.45508 24.68872,-55.1438 55.1438,-55.1438 30.455076,0 55.143795,24.68872 55.143795,55.1438 z"
       id="ellipse5700"
       ry="55.143799"
       rx="55.143799"
       cy="-221.866"
       cx="-125.952" />
    <ellipse
       transform="matrix(0.65764137,0,0,0.65764137,517.77778,281.78286)"
       style="opacity:0.31606218;fill:#000000;fill-opacity:1;stroke:none;filter:url(#filter6080)"
       sodipodi:ry="77.3255"
       sodipodi:rx="77.3255"
       sodipodi:cy="13.3833"
       sodipodi:cx="283.173"
       d="m 360.4985,13.3833 c 0,42.705695 -34.6198,77.3255 -77.3255,77.3255 -42.70569,0 -77.3255,-34.619805 -77.3255,-77.3255 0,-42.705695 34.61981,-77.325501 77.3255,-77.325501 42.7057,0 77.3255,34.619806 77.3255,77.325501 z"
       id="ellipse5702"
       ry="77.3255"
       rx="77.3255"
       cy="13.3833"
       cx="283.173" />
    <ellipse
       transform="matrix(0.56498857,0,0,0.56498857,403.6269,344.56702)"
       style="opacity:0.31606218;fill:#000000;fill-opacity:1;stroke:none;filter:url(#filter6084)"
       sodipodi:ry="100.011"
       sodipodi:rx="100.011"
       sodipodi:cy="247.23199"
       sodipodi:cx="-121.299"
       d="m -21.288002,247.23199 c 0,55.23456 -44.776451,100.01101 -100.010998,100.01101 -55.23455,0 -100.01101,-44.77645 -100.01101,-100.01101 0,-55.23455 44.77646,-100.011 100.01101,-100.011 55.234547,0 100.010998,44.77645 100.010998,100.011 z"
       id="ellipse5704"
       ry="100.011"
       rx="100.011"
       cy="247.23199"
       cx="-121.299" />
    <ellipse
       transform="translate(448.427,289.513)"
       style="opacity:0.31606218;fill:#000000;fill-opacity:1;stroke:none;filter:url(#filter6088)"
       sodipodi:ry="38.730202"
       sodipodi:rx="38.730202"
       sodipodi:cy="-215.033"
       sodipodi:cx="300.66"
       d="m 339.39021,-215.033 c 0,21.3901 -17.34011,38.7302 -38.73021,38.7302 -21.3901,0 -38.7302,-17.3401 -38.7302,-38.7302 0,-21.3901 17.3401,-38.73021 38.7302,-38.73021 21.3901,0 38.73021,17.34011 38.73021,38.73021 z"
       id="ellipse5706"
       ry="38.730202"
       rx="38.730202"
       cy="-215.033"
       cx="300.66" />
    <ellipse
       transform="translate(448.427,289.513)"
       style="opacity:0.31606218;fill:#000000;fill-opacity:1;stroke:none;filter:url(#filter6092)"
       sodipodi:ry="68.630501"
       sodipodi:rx="68.630501"
       sodipodi:cy="-216.948"
       sodipodi:cx="80.331902"
       d="m 148.9624,-216.948 c 0,37.90358 -30.72692,68.6305 -68.630498,68.6305 -37.903579,0 -68.630501,-30.72692 -68.630501,-68.6305 0,-37.90358 30.726922,-68.6305 68.630501,-68.6305 37.903578,0 68.630498,30.72692 68.630498,68.6305 z"
       id="ellipse5708"
       ry="68.630501"
       rx="68.630501"
       cy="-216.948"
       cx="80.331902" />
    <ellipse
       transform="matrix(0.61473349,0,0,0.61473349,350.49469,340.99516)"
       style="opacity:0.31606218;fill:#000000;fill-opacity:1;stroke:none;filter:url(#filter6096)"
       sodipodi:ry="104.821"
       sodipodi:rx="104.821"
       sodipodi:cy="199.453"
       sodipodi:cx="-339.767"
       d="m -234.946,199.453 c 0,57.89104 -46.92996,104.821 -104.821,104.821 -57.89104,0 -104.821,-46.92996 -104.821,-104.821 0,-57.89104 46.92996,-104.820996 104.821,-104.820996 57.89104,0 104.821,46.929956 104.821,104.820996 z"
       id="ellipse5710"
       ry="104.821"
       rx="104.821"
       cy="199.453"
       cx="-339.767" />
    <ellipse
       transform="translate(448.427,289.513)"
       style="opacity:0.31606218;fill:#000000;fill-opacity:1;stroke:none;filter:url(#filter6100)"
       sodipodi:ry="68.614601"
       sodipodi:rx="68.614601"
       sodipodi:cy="7.6911302"
       sodipodi:cx="36.195"
       d="m 104.8096,7.6911302 c 0,37.8947978 -30.719802,68.6146008 -68.6146,68.6146008 -37.8947981,0 -68.614601,-30.719803 -68.614601,-68.6146008 0,-37.8947982 30.7198029,-68.6146012 68.614601,-68.6146012 37.894798,0 68.6146,30.719803 68.6146,68.6146012 z"
       id="ellipse5712"
       ry="68.614601"
       rx="68.614601"
       cy="7.6911302"
       cx="36.195" />
    <ellipse
       transform="translate(448.427,289.513)"
       style="opacity:0.31606218;fill:#000000;fill-opacity:1;stroke:none;filter:url(#filter6104)"
       sodipodi:ry="80.232498"
       sodipodi:rx="80.232498"
       sodipodi:cy="235.62601"
       sodipodi:cx="82.404198"
       d="m 162.6367,235.62601 c 0,44.31118 -35.92132,80.2325 -80.232502,80.2325 -44.311185,0 -80.2324985,-35.92132 -80.2324985,-80.2325 0,-44.31119 35.9213135,-80.2325 80.2324985,-80.2325 44.311182,0 80.232502,35.92131 80.232502,80.2325 z"
       id="ellipse5714"
       ry="80.232498"
       rx="80.232498"
       cy="235.62601"
       cx="82.404198" />
    <ellipse
       transform="matrix(0.70178835,0,0,0.70178835,513.55963,352.96046)"
       style="opacity:0.31606218;fill:#000000;fill-opacity:1;stroke:none;filter:url(#filter6108)"
       sodipodi:ry="79.263496"
       sodipodi:rx="79.263496"
       sodipodi:cy="241.508"
       sodipodi:cx="301.022"
       d="m 380.2855,241.508 c 0,43.77602 -35.48748,79.26349 -79.2635,79.26349 -43.77602,0 -79.26349,-35.48747 -79.26349,-79.26349 0,-43.77602 35.48747,-79.2635 79.26349,-79.2635 43.77602,0 79.2635,35.48748 79.2635,79.2635 z"
       id="ellipse5716"
       ry="79.263496"
       rx="79.263496"
       cy="241.508"
       cx="301.022" />
    <ellipse
       transform="matrix(0.76711548,0,0,0.76711548,390.36192,257.10838)"
       style="opacity:0.31606218;fill:#000000;fill-opacity:1;stroke:none;filter:url(#filter6112)"
       sodipodi:ry="79.575104"
       sodipodi:rx="79.575104"
       sodipodi:cy="-172.58701"
       sodipodi:cx="-340.95599"
       d="m -261.38089,-172.58701 c 0,43.94812 -35.62699,79.575108 -79.5751,79.575108 -43.94812,0 -79.57511,-35.626988 -79.57511,-79.575108 0,-43.94811 35.62699,-79.5751 79.57511,-79.5751 43.94811,0 79.5751,35.62699 79.5751,79.5751 z"
       id="ellipse5718"
       ry="79.575104"
       rx="79.575104"
       cy="-172.58701"
       cx="-340.95599" />
    <ellipse
       cx="-187.67999"
       cy="14.224"
       rx="89.689903"
       ry="89.689903"
       id="ellipse4647"
       d="m -97.990089,14.224 c 0,49.534366 -40.155541,89.6899 -89.689901,89.6899 -49.53437,0 -89.68991,-40.155534 -89.68991,-89.6899 0,-49.534366 40.15554,-89.689903 89.68991,-89.689903 49.53436,0 89.689901,40.155537 89.689901,89.689903 z"
       sodipodi:cx="-187.67999"
       sodipodi:cy="14.224"
       sodipodi:rx="89.689903"
       sodipodi:ry="89.689903"
       style="fill:#ffffff;fill-opacity:1;stroke:#000000;stroke-width:1.59937596;stroke-miterlimit:4;stroke-dasharray:none"
       transform="translate(448.427,289.513)" />
    <path
       d="m 158.084,178.613 c 14.562,17.7478 30.547,37.2299 45.477,55.4265"
       id="path4654"
       inkscape:connector-curvature="0"
       style="fill:none;stroke:#000000" />
    <ellipse
       cx="-125.952"
       cy="-221.866"
       rx="55.143799"
       ry="55.143799"
       id="ellipse4659"
       d="m -70.808205,-221.866 c 0,30.45508 -24.688719,55.1438 -55.143795,55.1438 -30.45508,0 -55.1438,-24.68872 -55.1438,-55.1438 0,-30.45508 24.68872,-55.1438 55.1438,-55.1438 30.455076,0 55.143795,24.68872 55.143795,55.1438 z"
       sodipodi:cx="-125.952"
       sodipodi:cy="-221.866"
       sodipodi:rx="55.143799"
       sodipodi:ry="55.143799"
       style="fill:#ffffff;fill-opacity:1;stroke:#000000;stroke-width:1.59937596;stroke-miterlimit:4;stroke-dasharray:none"
       transform="translate(448.427,289.513)" />
    <text
       x="322.47501"
       y="71.847"
       font-size="14.00"
       id="text4661"
       style="font-size:19.19251251px;font-style:normal;font-variant:normal;font-weight:bold;font-stretch:normal;text-align:center;line-height:125%;writing-mode:lr-tb;text-anchor:middle;font-family:Open Sans;-inkscape-font-specification:Open Sans Bold"
       sodipodi:linespacing="125%">SDMX/RDF</text>
    <path
       d="m 185.092,99.135 c 27.666,-6.341 58.199,-13.339 83.44,-19.125"
       id="path4666"
       inkscape:connector-curvature="0"
       style="fill:none;stroke:#000000" />
    <ellipse
       cx="283.173"
       cy="13.3833"
       rx="77.3255"
       ry="77.3255"
       id="ellipse4671"
       d="m 360.4985,13.3833 c 0,42.705695 -34.6198,77.3255 -77.3255,77.3255 -42.70569,0 -77.3255,-34.619805 -77.3255,-77.3255 0,-42.705695 34.61981,-77.325501 77.3255,-77.325501 42.7057,0 77.3255,34.619806 77.3255,77.325501 z"
       sodipodi:cx="283.173"
       sodipodi:cy="13.3833"
       sodipodi:rx="77.3255"
       sodipodi:ry="77.3255"
       style="fill:#ffffff;fill-opacity:1;stroke:#000000;stroke-width:2.431988;stroke-miterlimit:4;stroke-dasharray:none"
       transform="matrix(0.65764137,0,0,0.65764137,517.77778,281.78286)" />
    <ellipse
       cx="-121.299"
       cy="247.23199"
       rx="100.011"
       ry="100.011"
       id="ellipse4678"
       d="m -21.288002,247.23199 c 0,55.23456 -44.776451,100.01101 -100.010998,100.01101 -55.23455,0 -100.01101,-44.77645 -100.01101,-100.01101 0,-55.23455 44.77646,-100.011 100.01101,-100.011 55.234547,0 100.010998,44.77645 100.010998,100.011 z"
       sodipodi:cx="-121.299"
       sodipodi:cy="247.23199"
       sodipodi:rx="100.011"
       sodipodi:ry="100.011"
       style="fill:#ffffff;fill-opacity:1;stroke:#000000;stroke-width:2.83081126;stroke-miterlimit:4;stroke-dasharray:none"
       transform="matrix(0.56498857,0,0,0.56498857,403.6269,344.56702)" />
    <path
       d="m 299.649,440.29 c -4.708,-16.527 -9.574,-33.608 -14.204,-49.859"
       id="path4685"
       inkscape:connector-curvature="0"
       style="fill:none;stroke:#000000" />
    <path
       d="m 343.78595,428.15822 c 5.268,-41.443 14.31394,-81.04102 13.90714,-125.34372 C 357.11909,240.3117 341.315,169.823 333,122.191"
       id="path4690"
       inkscape:connector-curvature="0"
       style="fill:none;stroke:#000000;stroke-width:0.99960998;stroke-miterlimit:4;stroke-dasharray:none"
       sodipodi:nodetypes="csc" />
    <ellipse
       cx="300.66"
       cy="-215.033"
       rx="38.730202"
       ry="38.730202"
       id="ellipse4695"
       d="m 339.39021,-215.033 c 0,21.3901 -17.34011,38.7302 -38.73021,38.7302 -21.3901,0 -38.7302,-17.3401 -38.7302,-38.7302 0,-21.3901 17.3401,-38.73021 38.7302,-38.73021 21.3901,0 38.73021,17.34011 38.73021,38.73021 z"
       sodipodi:cx="300.66"
       sodipodi:cy="-215.033"
       sodipodi:rx="38.730202"
       sodipodi:ry="38.730202"
       style="fill:#ffffff;fill-opacity:1;stroke:#000000;stroke-width:1.59937596;stroke-miterlimit:4;stroke-dasharray:none"
       transform="translate(448.427,289.513)" />
    <text
       x="749.08698"
       y="78.680008"
       font-size="14.00"
       id="text4697"
       style="font-size:19.19251251px;font-style:normal;font-variant:normal;font-weight:bold;font-stretch:normal;text-align:center;line-height:125%;writing-mode:lr-tb;text-anchor:middle;font-family:Open Sans;-inkscape-font-specification:Open Sans Bold"
       sodipodi:linespacing="125%">FRAPO</text>
    <ellipse
       cx="80.331902"
       cy="-216.948"
       rx="68.630501"
       ry="68.630501"
       id="ellipse4702"
       d="m 148.9624,-216.948 c 0,37.90358 -30.72692,68.6305 -68.630498,68.6305 -37.903579,0 -68.630501,-30.72692 -68.630501,-68.6305 0,-37.90358 30.726922,-68.6305 68.630501,-68.6305 37.903578,0 68.630498,30.72692 68.630498,68.6305 z"
       sodipodi:cx="80.331902"
       sodipodi:cy="-216.948"
       sodipodi:rx="68.630501"
       sodipodi:ry="68.630501"
       style="fill:#ffffff;fill-opacity:1;stroke:#000000;stroke-width:1.59937596;stroke-miterlimit:4;stroke-dasharray:none"
       transform="translate(448.427,289.513)" />
    <path
       d="m 574.28,124.256 c 31.538,35.811 73.562,83.5312 106.243,120.6411"
       id="path4709"
       inkscape:connector-curvature="0"
       style="fill:none;stroke:#000000" />
    <path
       d="m 476.7657,117.411 c -20.76435,17.91048 -45.7973,39.5026 -71.35058,61.54346 -0.89129,0.76878 -2.76218,-2.86538 -5.32818,-0.58586 -2.56601,2.27952 0.56741,4.69224 -0.47588,5.59213 -9.25146,7.97979 -18.53383,15.98624 -27.67042,23.86695 -1.13737,0.98103 -3.30506,-3.19153 -5.81641,-0.68018 -2.51135,2.51135 0.62594,5.15719 -0.2642,5.92498 -4.10997,3.54504 -8.18188,7.05723 -12.19923,10.52238 -0.90739,0.78266 -2.84729,-2.51776 -5.12506,-0.55308 -2.27777,1.96468 0.33431,4.68531 -0.69801,5.57574 -6.52463,5.62779 -12.87943,11.1091 -18.99073,16.38038"
       id="path4714"
       inkscape:connector-curvature="0"
       style="fill:none;stroke:#000000"
       sodipodi:nodetypes="cszsszsszsc" />
    <path
       d="M 460.0692,70.927 C 433.3468,70.29 403.1386,69.57 377.8483,68.967"
       id="path4719"
       inkscape:connector-curvature="0"
       style="fill:none;stroke:#000000" />
    <ellipse
       cx="-339.767"
       cy="199.453"
       rx="104.821"
       ry="104.821"
       id="ellipse4724"
       d="m -234.946,199.453 c 0,57.89104 -46.92996,104.821 -104.821,104.821 -57.89104,0 -104.821,-46.92996 -104.821,-104.821 0,-57.89104 46.92996,-104.820996 104.821,-104.820996 57.89104,0 104.821,46.929956 104.821,104.820996 z"
       sodipodi:cx="-339.767"
       sodipodi:cy="199.453"
       sodipodi:rx="104.821"
       sodipodi:ry="104.821"
       style="fill:#ffffff;fill-opacity:1;stroke:#000000;stroke-width:2.60173869;stroke-miterlimit:4;stroke-dasharray:none"
       transform="matrix(0.61473349,0,0,0.61473349,350.49469,340.99516)" />
    <path
       d="m 175.146,407.991 c 9.512,-11.584 19.226,-23.4156 28.536,-34.7532"
       id="path4731"
       inkscape:connector-curvature="0"
       style="fill:none;stroke:#000000" />
    <ellipse
       cx="36.195"
       cy="7.6911302"
       rx="68.614601"
       ry="68.614601"
       id="ellipse4736"
       d="m 104.8096,7.6911302 c 0,37.8947978 -30.719802,68.6146008 -68.6146,68.6146008 -37.8947981,0 -68.614601,-30.719803 -68.614601,-68.6146008 0,-37.8947982 30.7198029,-68.6146012 68.614601,-68.6146012 37.894798,0 68.6146,30.719803 68.6146,68.6146012 z"
       sodipodi:cx="36.195"
       sodipodi:cy="7.6911302"
       sodipodi:rx="68.614601"
       sodipodi:ry="68.614601"
       style="fill:#82bf5e;fill-opacity:1;stroke:#000000;stroke-width:1.59937596;stroke-miterlimit:4;stroke-dasharray:none"
       transform="translate(448.427,289.513)" />
    <path
       d="m 553.419,298.78971 c 31.258,0.72042 68.376,1.57589 100.621,2.31899"
       id="path4743"
       inkscape:connector-curvature="0"
       style="fill:none;stroke:#000000" />
    <path
       d="M 446.69795,354.8849 C 427.4017,384.2336 403.5853,420.457 382.3002,452.831"
       id="path4748"
       inkscape:connector-curvature="0"
       style="fill:none;stroke:#000000" />
    <path
       d="m 415.6254,299.21752 c -20.5562,0.59988 -43.3896,1.26618 -65.0695,1.89878"
       id="path4753"
       inkscape:connector-curvature="0"
       style="fill:none;stroke:#000000" />
    <path
       d="M 537.5047,252.6679 C 592.072,206.7134 675.246,136.667 719.297,99.568"
       id="path4758"
       inkscape:connector-curvature="0"
       style="fill:none;stroke:#000000" />
    <path
       d="m 497.9244,229.5003 c 5.5587,-28.2919 12.0035,-61.0933 17.5593,-89.3703"
       id="path4763"
       inkscape:connector-curvature="0"
       style="fill:none;stroke:#000000" />
    <path
       d="m 422.9605,328.6549 c -1.11384,0.56812 -2.2387,1.14186 -3.37421,1.72103 -1.07451,0.54806 -1.48685,-3.19613 -4.6126,-1.45163 -3.12574,1.74451 -0.1856,3.89898 -0.96556,4.2968 -17.34253,8.84563 -36.90666,18.82437 -57.54476,29.3509 -1.02887,0.52478 -1.69698,-3.40093 -4.26084,-1.92068 -2.56386,1.48024 -0.63873,4.41972 -1.54406,4.88149 -2.13298,1.08793 -4.27611,2.18104 -6.42814,3.27869 -0.72199,0.36825 -1.74525,-3.39034 -4.30724,-2.00398 -2.56199,1.38635 0.33486,4.03011 -0.569,4.49112 -16.02021,8.17116 -32.47741,16.56522 -48.87208,24.9274 -0.95513,0.48717 -2.24837,-3.20942 -4.61418,-1.84352 -2.36581,1.36591 -0.41889,4.41066 -1.50234,4.96328 -28.72254,14.65007 -57.06124,29.10443 -82.31849,41.9872"
       id="path4768"
       inkscape:connector-curvature="0"
       style="fill:none;stroke:#000000"
       sodipodi:nodetypes="cszsszsszsszsc" />
    <ellipse
       cx="82.404198"
       cy="235.62601"
       rx="80.232498"
       ry="80.232498"
       id="ellipse4773"
       d="m 162.6367,235.62601 c 0,44.31118 -35.92132,80.2325 -80.232502,80.2325 -44.311185,0 -80.2324985,-35.92132 -80.2324985,-80.2325 0,-44.31119 35.9213135,-80.2325 80.2324985,-80.2325 44.311182,0 80.232502,35.92131 80.232502,80.2325 z"
       sodipodi:cx="82.404198"
       sodipodi:cy="235.62601"
       sodipodi:rx="80.232498"
       sodipodi:ry="80.232498"
       style="fill:#ffffff;fill-opacity:1;stroke:#000000;stroke-width:1.59937596;stroke-miterlimit:4;stroke-dasharray:none"
       transform="translate(448.427,289.513)" />
    <path
       d="m 498.2987,364.667 c 5.2162,25.73 11.2062,55.277 16.6132,81.948"
       id="path4780"
       inkscape:connector-curvature="0"
       style="fill:none;stroke:#000000" />
    <ellipse
       cx="301.022"
       cy="241.508"
       rx="79.263496"
       ry="79.263496"
       id="ellipse4785"
       d="m 380.2855,241.508 c 0,43.77602 -35.48748,79.26349 -79.2635,79.26349 -43.77602,0 -79.26349,-35.48747 -79.26349,-79.26349 0,-43.77602 35.48747,-79.2635 79.26349,-79.2635 43.77602,0 79.2635,35.48748 79.2635,79.2635 z"
       sodipodi:cx="301.022"
       sodipodi:cy="241.508"
       sodipodi:rx="79.263496"
       sodipodi:ry="79.263496"
       style="fill:#ffffff;fill-opacity:1;stroke:#000000;stroke-width:2.27900052;stroke-miterlimit:4;stroke-dasharray:none"
       transform="matrix(0.70178835,0,0,0.70178835,513.55963,352.96046)" />
    <path
       d="M 536.312,342.8414 C 580.416,381.7813 643.841,437.78 690.031,478.56"
       id="path4792"
       inkscape:connector-curvature="0"
       style="fill:none;stroke:#000000" />
    <path
       d="M 444.74864,240.754 C 416.9927,201.459 380.4621,149.741 354.5794,113.098"
       id="path4797"
       inkscape:connector-curvature="0"
       style="fill:none;stroke:#000000" />
    <path
       d="M 468.8684,474.345 C 427.5977,440.513 373.2956,395.999 330.508,360.9234"
       id="path4802"
       inkscape:connector-curvature="0"
       style="fill:none;stroke:#000000" />
    <path
       d="M 491.2018,454.997 C 473.4025,422.612 450.8043,392.81134 423.87422,346.16708 373.12347,258.26421 369.5658,196.75327 341.215,119.817"
       id="path4807"
       inkscape:connector-curvature="0"
       style="fill:none;stroke:#000000"
       sodipodi:nodetypes="csc" />
    <path
       d="m 670.214,528.889 c -19.185,-0.516 -39.71,-1.068 -58.95,-1.586"
       id="path4812"
       inkscape:connector-curvature="0"
       style="fill:none;stroke:#000000" />
    <ellipse
       cx="-340.95599"
       cy="-172.58701"
       rx="79.575104"
       ry="79.575104"
       id="ellipse4640"
       d="m -261.38089,-172.58701 c 0,43.94812 -35.62699,79.575108 -79.5751,79.575108 -43.94812,0 -79.57511,-35.626988 -79.57511,-79.575108 0,-43.94811 35.62699,-79.5751 79.57511,-79.5751 43.94811,0 79.5751,35.62699 79.5751,79.5751 z"
       sodipodi:cx="-340.95599"
       sodipodi:cy="-172.58701"
       sodipodi:rx="79.575104"
       sodipodi:ry="79.575104"
       style="fill:#ffffff;fill-opacity:1;stroke:#000000;stroke-width:2.08492208;stroke-miterlimit:4;stroke-dasharray:none"
       transform="matrix(0.76711548,0,0,0.76711548,390.36192,257.10838)" />
    <text
       sodipodi:linespacing="125%"
       id="text5086"
       y="117.37177"
       x="128.38759"
       style="font-size:19.19251251px;font-style:normal;font-variant:normal;font-weight:bold;font-stretch:normal;text-align:center;line-height:125%;letter-spacing:0px;word-spacing:0px;writing-mode:lr-tb;text-anchor:middle;fill:#000000;fill-opacity:1;stroke:none;font-family:Open Sans;-inkscape-font-specification:Open Sans Bold"
       xml:space="preserve"><tspan
         y="117.37177"
         x="128.38759"
         id="tspan5088"
         sodipodi:role="line">COINS</tspan><tspan
         id="tspan5090"
         y="141.36241"
         x="128.38759"
         sodipodi:role="line">data.gov.uk</tspan></text>
    <text
       sodipodi:linespacing="125%"
       id="text5092"
       y="65.555237"
       x="528.42621"
       style="font-size:19.19251251px;font-style:normal;font-variant:normal;font-weight:bold;font-stretch:normal;text-align:center;line-height:125%;letter-spacing:0px;word-spacing:0px;writing-mode:lr-tb;text-anchor:middle;fill:#000000;fill-opacity:1;stroke:none;font-family:Open Sans;-inkscape-font-specification:Open Sans Bold"
       xml:space="preserve"><tspan
         id="tspan5096"
         y="65.555237"
         x="528.42621"
         sodipodi:role="line">Linked</tspan><tspan
         y="89.545876"
         x="528.42621"
         sodipodi:role="line"
         id="tspan5100">Spending</tspan></text>
    <text
       sodipodi:linespacing="125%"
       id="text5102"
       y="283.57449"
       x="703.44177"
       style="font-size:19.19251251px;font-style:normal;font-variant:normal;font-weight:bold;font-stretch:normal;text-align:center;line-height:125%;letter-spacing:0px;word-spacing:0px;writing-mode:lr-tb;text-anchor:middle;fill:#000000;fill-opacity:1;stroke:none;font-family:Open Sans;-inkscape-font-specification:Open Sans Bold"
       xml:space="preserve"><tspan
         id="tspan5106"
         y="283.57449"
         x="703.44177"
         sodipodi:role="line">DBpedia</tspan><tspan
         y="307.56512"
         x="703.44177"
         sodipodi:role="line"
         id="tspan5110">Ontology</tspan></text>
    <text
       sodipodi:linespacing="125%"
       id="text5112"
       y="289.86169"
       x="484.51892"
       style="font-size:19.19251251px;font-style:normal;font-variant:normal;font-weight:bold;font-stretch:normal;text-align:center;line-height:125%;letter-spacing:0px;word-spacing:0px;writing-mode:lr-tb;text-anchor:middle;fill:#ffffff;fill-opacity:1;stroke:none;font-family:Open Sans;-inkscape-font-specification:Open Sans Bold"
       xml:space="preserve"><tspan
         id="tspan5116"
         y="289.86169"
         x="484.51892"
         sodipodi:role="line">Open</tspan><tspan
         y="313.85233"
         x="484.51892"
         sodipodi:role="line"
         id="tspan5120">Budgets.eu</tspan></text>
    <text
       sodipodi:linespacing="125%"
       id="text5122"
       y="296.72723"
       x="260.74231"
       style="font-size:19.19251251px;font-style:normal;font-variant:normal;font-weight:bold;font-stretch:normal;text-align:center;line-height:125%;letter-spacing:0px;word-spacing:0px;writing-mode:lr-tb;text-anchor:middle;fill:#000000;fill-opacity:1;stroke:none;font-family:Open Sans;-inkscape-font-specification:Open Sans Bold"
       xml:space="preserve"><tspan
         id="tspan5126"
         y="296.72723"
         x="260.74231"
         sodipodi:role="line">Data Cube</tspan><tspan
         y="320.71786"
         x="260.74231"
         sodipodi:role="line"
         id="tspan5130">Vocabulary</tspan></text>
    <text
       sodipodi:linespacing="125%"
       id="text5132"
       y="446.81216"
       x="141.61917"
       style="font-size:19.19251251px;font-style:normal;font-variant:normal;font-weight:bold;font-stretch:normal;text-align:center;line-height:125%;letter-spacing:0px;word-spacing:0px;writing-mode:lr-tb;text-anchor:middle;fill:#000000;fill-opacity:1;stroke:none;font-family:Open Sans;-inkscape-font-specification:Open Sans Bold"
       xml:space="preserve"><tspan
         id="tspan5136"
         y="446.81216"
         x="141.61917"
         sodipodi:role="line">Czech</tspan><tspan
         y="470.8028"
         x="141.61917"
         sodipodi:role="line"
         id="tspan5140">Ministry</tspan><tspan
         y="494.79346"
         x="141.61917"
         sodipodi:role="line"
         id="tspan5142">of Finance</tspan></text>
    <text
       sodipodi:linespacing="125%"
       id="text5144"
       y="464.2207"
       x="334.83771"
       style="font-size:19.19251251px;font-style:normal;font-variant:normal;font-weight:bold;font-stretch:normal;text-align:center;line-height:125%;letter-spacing:0px;word-spacing:0px;writing-mode:lr-tb;text-anchor:middle;fill:#000000;fill-opacity:1;stroke:none;font-family:Open Sans;-inkscape-font-specification:Open Sans Bold"
       xml:space="preserve"><tspan
         id="tspan5148"
         y="464.2207"
         x="334.83771"
         sodipodi:role="line">DCLG</tspan><tspan
         y="488.21133"
         x="334.83771"
         sodipodi:role="line"
         id="tspan5152">Finance</tspan><tspan
         y="512.20197"
         x="334.83771"
         sodipodi:role="line"
         id="tspan5154">Ontology</tspan></text>
    <text
       sodipodi:linespacing="125%"
       id="text5156"
       y="517.68878"
       x="530.34387"
       style="font-size:19.19251251px;font-style:normal;font-variant:normal;font-weight:bold;font-stretch:normal;text-align:center;line-height:125%;letter-spacing:0px;word-spacing:0px;writing-mode:lr-tb;text-anchor:middle;fill:#000000;fill-opacity:1;stroke:none;font-family:Open Sans;-inkscape-font-specification:Open Sans Bold"
       xml:space="preserve"><tspan
         id="tspan5160"
         y="517.68878"
         x="530.34387"
         sodipodi:role="line">Payments</tspan><tspan
         y="541.67944"
         x="530.34387"
         sodipodi:role="line"
         id="tspan5164">Ontology</tspan></text>
    <text
       sodipodi:linespacing="125%"
       id="text5166"
       y="505.6217"
       x="724.48071"
       style="font-size:19.19251251px;font-style:normal;font-variant:normal;font-weight:bold;font-stretch:normal;text-align:center;line-height:125%;letter-spacing:0px;word-spacing:0px;writing-mode:lr-tb;text-anchor:middle;fill:#000000;fill-opacity:1;stroke:none;font-family:Open Sans;-inkscape-font-specification:Open Sans Bold"
       xml:space="preserve"><tspan
         id="tspan5170"
         y="505.6217"
         x="724.48071"
         sodipodi:role="line">Public</tspan><tspan
         y="529.61237"
         x="724.48071"
         sodipodi:role="line"
         id="tspan5174">Spending</tspan><tspan
         y="553.60297"
         x="724.48071"
         sodipodi:role="line"
         id="tspan5176">.net</tspan></text>
    <g
       style="display:inline"
       id="g8069"
       transform="matrix(0.99981606,0,0,0.99981606,-49.301721,-640.938)">
      <ellipse
         transform="matrix(0.53325181,0,0,0.53325181,-200.99582,1100.3341)"
         style="opacity:0.60103604;fill:#000000;fill-opacity:1;stroke:none;filter:url(#filter7677)"
         sodipodi:ry="26.5"
         sodipodi:rx="26.5"
         sodipodi:cy="191.866"
         sodipodi:cx="557.23798"
         d="m 583.73798,191.866 c 0,14.63554 -11.86446,26.5 -26.5,26.5 -14.63555,0 -26.5,-11.86446 -26.5,-26.5 0,-14.63555 11.86445,-26.5 26.5,-26.5 14.63554,0 26.5,11.86445 26.5,26.5 z"
         id="ellipse8036"
         ry="26.5"
         rx="26.5"
         cy="191.866"
         cx="557.23798" />
      <ellipse
         cx="557.23798"
         cy="191.866"
         rx="26.5"
         ry="26.5"
         id="ellipse8038"
         d="m 583.73798,191.866 c 0,14.63554 -11.86446,26.5 -26.5,26.5 -14.63555,0 -26.5,-11.86446 -26.5,-26.5 0,-14.63555 11.86445,-26.5 26.5,-26.5 14.63554,0 26.5,11.86445 26.5,26.5 z"
         sodipodi:cx="557.23798"
         sodipodi:cy="191.866"
         sodipodi:rx="26.5"
         sodipodi:ry="26.5"
         style="fill:#82bf5e;fill-opacity:1;stroke:#000000;stroke-width:2.99984026;stroke-miterlimit:4;stroke-dasharray:none"
         transform="matrix(0.53325181,0,0,0.53325181,-200.99582,1100.3341)" />
    </g>
    <text
       xml:space="preserve"
       style="font-size:19.19251251px;font-style:normal;font-variant:normal;font-weight:bold;font-stretch:normal;text-align:start;line-height:125%;letter-spacing:0px;word-spacing:0px;writing-mode:lr-tb;text-anchor:start;fill:#000000;fill-opacity:1;stroke:none;display:inline;font-family:Open Sans;-inkscape-font-specification:Open Sans Bold"
       x="69.262604"
       y="566.47345"
       id="text8057"
       sodipodi:linespacing="125%"><tspan
         sodipodi:role="line"
         id="tspan8059"
         x="69.262604"
         y="566.47345">OpenBudgets.eu vocabulary</tspan></text>
    <text
       sodipodi:linespacing="125%"
       id="text8061"
       y="611.00781"
       x="69.993576"
       style="font-size:19.19251251px;font-style:normal;font-variant:normal;font-weight:bold;font-stretch:normal;text-align:start;line-height:125%;letter-spacing:0px;word-spacing:0px;writing-mode:lr-tb;text-anchor:start;fill:#000000;fill-opacity:1;stroke:none;display:inline;font-family:Open Sans;-inkscape-font-specification:Open Sans Bold"
       xml:space="preserve"><tspan
         y="611.00781"
         x="69.993576"
         id="tspan8063"
         sodipodi:role="line">Third-party vocabularies</tspan></text>
    <g
       style="display:inline"
       id="g8073"
       transform="matrix(0.99981606,0,0,0.99981606,-49.301721,-666.8492)">
      <ellipse
         cx="557.23798"
         cy="191.866"
         rx="26.5"
         ry="26.5"
         id="ellipse8065"
         d="m 583.73798,191.866 c 0,14.63554 -11.86446,26.5 -26.5,26.5 -14.63555,0 -26.5,-11.86446 -26.5,-26.5 0,-14.63555 11.86445,-26.5 26.5,-26.5 14.63554,0 26.5,11.86445 26.5,26.5 z"
         sodipodi:cx="557.23798"
         sodipodi:cy="191.866"
         sodipodi:rx="26.5"
         sodipodi:ry="26.5"
         style="opacity:0.60103604;fill:#000000;fill-opacity:1;stroke:none;filter:url(#filter7677)"
         transform="matrix(0.53325181,0,0,0.53325181,-200.99582,1170.7927)" />
      <ellipse
         transform="matrix(0.53325181,0,0,0.53325181,-200.99582,1170.7927)"
         style="fill:#ffffff;fill-opacity:1;stroke:#000000;stroke-width:2.99984026;stroke-miterlimit:4;stroke-dasharray:none"
         sodipodi:ry="26.5"
         sodipodi:rx="26.5"
         sodipodi:cy="191.866"
         sodipodi:cx="557.23798"
         d="m 583.73798,191.866 c 0,14.63554 -11.86446,26.5 -26.5,26.5 -14.63555,0 -26.5,-11.86446 -26.5,-26.5 0,-14.63555 11.86445,-26.5 26.5,-26.5 14.63554,0 26.5,11.86445 26.5,26.5 z"
         id="ellipse8067"
         ry="26.5"
         rx="26.5"
         cy="191.866"
         cx="557.23798" />
    </g>
  </g>
</svg>
