<?xml version="1.0" encoding="utf-8"?>
<!-- Generator: Adobe Illustrator 19.1.0, SVG Export Plug-In . SVG Version: 6.00 Build 0)  -->
<svg version="1.1" id="Layer_1" xmlns="http://www.w3.org/2000/svg" xmlns:xlink="http://www.w3.org/1999/xlink" x="0px" y="0px"
	 width="128px" height="64px" viewBox="-233 388.9 128 64" style="enable-background:new -233 388.9 128 64;" xml:space="preserve">
<style type="text/css">
	.st0{fill:#333333;}
	.st1{fill:#FFFFFF;}
</style>
<g>
	<path class="st0" d="M-210.5,400.4c-0.5,0.3-1.1,0.5-1.8,0.7c-0.5-0.5-1.3-0.9-2.1-0.9c-1.6,0-2.9,1.3-2.9,2.9c0,0.3,0,0.4,0.1,0.6
		c-2.4-0.1-4.5-1.2-5.9-3c-0.3,0.4-0.3,0.9-0.3,1.5c0,1,0.5,1.8,1.3,2.4c-0.4,0-0.9-0.2-1.3-0.3c0,1.4,1,2.5,2.3,2.8
		c-0.3,0.3-0.9,0.3-1.3,0c0.3,1.1,1.4,2,2.7,2c-1,0.8-2.2,1.2-3.6,1.2c-0.3,0-0.4,0-0.7,0c1.3,0.8,2.8,1.3,4.4,1.3
		c5.2,0,8.1-4.4,8.1-8.1c0-0.1,0-0.3,0-0.3c0.7-0.4,1.2-1,1.6-1.6c-0.5,0.3-1,0.3-1.7,0.4C-211.1,401.6-210.6,401.1-210.5,400.4z"/>
	<path class="st0" d="M-217.7,392.6c-6.9,0-12.5,5.6-12.5,12.5s5.6,12.5,12.5,12.5c6.9,0,12.5-5.6,12.5-12.5
		S-210.8,392.6-217.7,392.6z M-217.7,416.1c-6.1,0-11.1-5-11.1-11.1s5-11.1,11.1-11.1c6.1,0,11.1,5,11.1,11.1
		S-211.5,416.1-217.7,416.1z"/>
</g>
<g>
	<path class="st0" d="M-151.6,400.5c0.7,0,1.8,0,2.1,0v-2.8c0,0-1.5,0-3,0s-2.5,1.2-2.5,2.6s0,2.1,0,2.1h-1.8v2.8h1.8v7.3h2.8v-7.4
		h1.8l0.9-2.8h-2.8c0,0,0-0.5,0-1.2C-152.3,400.8-152.1,400.5-151.6,400.5z"/>
	<path class="st0" d="M-153.2,392.6c-6.9,0-12.5,5.6-12.5,12.5s5.6,12.5,12.5,12.5c6.9,0,12.5-5.6,12.5-12.5
		S-146.3,392.6-153.2,392.6z M-153.2,416.1c-6.1,0-11.1-5-11.1-11.1s5-11.1,11.1-11.1c6.1,0,11.1,5,11.1,11.1
		S-147,416.1-153.2,416.1z"/>
</g>
<g>
	<path class="st1" d="M-217.7,424.6c-6.9,0-12.5,5.6-12.5,12.5s5.6,12.5,12.5,12.5c6.9,0,12.5-5.6,12.5-12.5
		S-210.8,424.6-217.7,424.6z M-211.6,435.1c0,0.1,0,0.3,0,0.3c0,3.8-2.9,8.1-8.1,8.1c-1.6,0-3.1-0.5-4.4-1.3c0.3,0,0.4,0,0.7,0
		c1.4,0,2.6-0.4,3.6-1.2c-1.3,0-2.4-0.9-2.7-2c0.4,0.3,1,0.3,1.3,0c-1.3-0.3-2.3-1.4-2.3-2.8c0.4,0.2,0.9,0.3,1.3,0.3
		c-0.8-0.5-1.3-1.4-1.3-2.4c0-0.6,0.1-1,0.3-1.5c1.5,1.7,3.6,2.9,5.9,3c-0.1-0.2-0.1-0.3-0.1-0.6c0-1.6,1.3-2.9,2.9-2.9
		c0.8,0,1.6,0.3,2.1,0.9c0.7-0.2,1.3-0.3,1.8-0.7c-0.2,0.7-0.6,1.2-1.2,1.6c0.6-0.1,1.1-0.2,1.7-0.4
		C-210.4,434.1-210.9,434.7-211.6,435.1z"/>
</g>
<g>
	<path class="st1" d="M-153.2,424.6c-6.9,0-12.5,5.6-12.5,12.5s5.6,12.5,12.5,12.5c6.9,0,12.5-5.6,12.5-12.5
		S-146.3,424.6-153.2,424.6z M-149.5,432.5c-0.3,0-1.4,0-2.1,0c-0.5,0-0.6,0.4-0.6,0.6c0,0.7,0,1.2,0,1.2h2.8l-0.9,2.8h-1.8v7.4
		h-2.8v-7.3h-1.8v-2.8h1.8c0,0,0-0.7,0-2.1s0.9-2.6,2.5-2.6s3,0,3,0V432.5c0.1,0,0.1,0,0.1,0C-149.4,432.5-149.5,432.5-149.5,432.5z
		"/>
</g>
<path class="st0" d="M-185.4,392.6c-6.9,0-12.5,5.6-12.5,12.5s5.6,12.5,12.5,12.5c6.9,0,12.5-5.6,12.5-12.5
	S-178.5,392.6-185.4,392.6z M-182.1,415.6v-1.7c0-1-0.4-1.8-1.1-2.3c0.4,0,0.8-0.1,1.2-0.2c0.4-0.1,0.8-0.2,1.2-0.3
	c0.4-0.1,0.8-0.3,1.1-0.5c0.3-0.2,0.6-0.5,0.9-0.8s0.6-0.7,0.8-1.1c0.2-0.4,0.4-0.9,0.5-1.5c0.1-0.6,0.2-1.2,0.2-1.9
	c0-1.3-0.4-2.4-1.3-3.4c0.4-1,0.3-2.1-0.1-3.3l-0.3,0c-0.2,0-0.6,0.1-1.2,0.3c-0.6,0.2-1.2,0.6-1.9,1c-1-0.3-2.1-0.4-3.2-0.4
	c-1.1,0-2.1,0.1-3.1,0.4c-0.5-0.3-0.9-0.6-1.3-0.8c-0.4-0.2-0.7-0.3-1-0.4s-0.5-0.1-0.7-0.1s-0.3,0-0.4,0c-0.1,0-0.1,0-0.1,0
	c-0.5,1.2-0.5,2.3-0.1,3.3c-0.9,0.9-1.3,2.1-1.3,3.4c0,0.7,0.1,1.3,0.2,1.9c0.1,0.6,0.3,1.1,0.5,1.5c0.2,0.4,0.5,0.8,0.8,1.1
	s0.6,0.6,0.9,0.8c0.3,0.2,0.7,0.4,1.1,0.5c0.4,0.1,0.8,0.3,1.2,0.3c0.4,0.1,0.8,0.1,1.2,0.2c-0.7,0.5-1,1.2-1,2.3v1.8
	c-4.6-1.4-7.9-5.6-7.9-10.6c0-6.1,5-11.1,11.1-11.1c6.1,0,11.1,5,11.1,11.1C-174.3,410-177.6,414.3-182.1,415.6z"/>
<g>
	<path class="st0" d="M-120.9,392.6c-6.9,0-12.5,5.6-12.5,12.5s5.6,12.5,12.5,12.5c6.9,0,12.5-5.6,12.5-12.5S-114,392.6-120.9,392.6
		z M-120.9,416.1c-6.1,0-11.1-5-11.1-11.1s5-11.1,11.1-11.1c6.1,0,11.1,5,11.1,11.1S-114.8,416.1-120.9,416.1z"/>
	<path class="st0" d="M-113.8,402.8c0-0.4-0.1-0.8-0.2-1.2c-0.1-0.4-0.3-0.7-0.6-1c-0.3-0.3-0.6-0.4-1-0.5c-1.2-0.1-3-0.2-5.4-0.2
		c-2.4,0-4.2,0.1-5.4,0.2c-0.4,0-0.7,0.2-1,0.5s-0.5,0.6-0.6,1c-0.1,0.3-0.1,0.7-0.2,1.2c0,0.4-0.1,0.8-0.1,1.1c0,0.3,0,0.7,0,1.2
		s0,0.9,0,1.2c0,0.3,0,0.7,0.1,1.1c0,0.4,0.1,0.8,0.2,1.2c0.1,0.4,0.3,0.7,0.6,1s0.6,0.4,1,0.5c1.2,0.1,3,0.2,5.4,0.2
		c2.4,0,4.2-0.1,5.4-0.2c0.4,0,0.7-0.2,1-0.5s0.5-0.6,0.6-1c0.1-0.3,0.1-0.7,0.2-1.2c0-0.4,0.1-0.8,0.1-1.1c0-0.3,0-0.7,0-1.2
		s0-0.9,0-1.2C-113.7,403.6-113.7,403.2-113.8,402.8z M-118.1,405.5l-4.1,2.6c-0.1,0.1-0.2,0.1-0.3,0.1c-0.1,0-0.2,0-0.2-0.1
		c-0.2-0.1-0.3-0.2-0.3-0.4v-5.1c0-0.2,0.1-0.4,0.3-0.4c0.2-0.1,0.4-0.1,0.5,0l4.1,2.6c0.2,0.1,0.2,0.2,0.2,0.4
		S-117.9,405.4-118.1,405.5z"/>
</g>
<path class="st1" d="M-120.9,424.6c-6.9,0-12.5,5.6-12.5,12.5s5.6,12.5,12.5,12.5c6.9,0,12.5-5.6,12.5-12.5S-114,424.6-120.9,424.6z
	 M-113.7,438.3c0,0.3,0,0.7-0.1,1.1c0,0.4-0.1,0.8-0.2,1.2c-0.1,0.4-0.3,0.7-0.6,1s-0.6,0.4-1,0.5c-1.2,0.1-3,0.2-5.4,0.2
	c-2.4,0-4.2-0.1-5.4-0.2c-0.4,0-0.7-0.2-1-0.5s-0.5-0.6-0.6-1c-0.1-0.3-0.1-0.7-0.2-1.2c0-0.4-0.1-0.8-0.1-1.1c0-0.3,0-0.7,0-1.2
	s0-0.9,0-1.2c0-0.3,0-0.7,0.1-1.1c0-0.4,0.1-0.8,0.2-1.2c0.1-0.4,0.3-0.7,0.6-1s0.6-0.4,1-0.5c1.2-0.1,3-0.2,5.4-0.2
	c2.4,0,4.2,0.1,5.4,0.2c0.4,0,0.7,0.2,1,0.5c0.3,0.3,0.5,0.6,0.6,1c0.1,0.3,0.1,0.7,0.2,1.2c0,0.4,0.1,0.8,0.1,1.1
	c0,0.3,0,0.7,0,1.2S-113.7,438-113.7,438.3z"/>
<path class="st1" d="M-118.1,436.6l-4.1-2.6c-0.2-0.1-0.3-0.1-0.5,0c-0.2,0.1-0.3,0.2-0.3,0.4v5.1c0,0.2,0.1,0.4,0.3,0.4
	c0.1,0,0.2,0.1,0.2,0.1c0.1,0,0.2,0,0.3-0.1l4.1-2.6c0.2-0.1,0.2-0.2,0.2-0.4S-117.9,436.7-118.1,436.6z"/>
<path class="st1" d="M-188.6,448.6L-188.6,448.6C-188.6,448.6-188.6,448.6-188.6,448.6z"/>
<path class="st1" d="M-185.4,424.6c-6.9,0-12.5,5.6-12.5,12.5s5.6,12.5,12.5,12.5c6.9,0,12.5-5.6,12.5-12.5
	S-178.5,424.6-185.4,424.6z M-178.8,441.8c-0.3,0.3-0.6,0.6-0.9,0.8c-0.3,0.2-0.7,0.4-1.1,0.5c-0.4,0.1-0.8,0.3-1.2,0.3
	c-0.4,0.1-0.8,0.1-1.2,0.2c0.7,0.5,1.1,1.2,1.1,2.3v1.7c-1,0.3-2.1,0.5-3.3,0.5c-1.1,0-2.1-0.2-3.1-0.5v-1.8c0-1,0.3-1.8,1-2.3
	c-0.4,0-0.8-0.1-1.2-0.2c-0.4-0.1-0.8-0.2-1.2-0.3c-0.4-0.1-0.8-0.3-1.1-0.5c-0.3-0.2-0.6-0.5-0.9-0.8s-0.6-0.7-0.8-1.1
	c-0.2-0.4-0.4-0.9-0.5-1.5c-0.1-0.6-0.2-1.2-0.2-1.9c0-1.3,0.4-2.4,1.3-3.4c-0.4-1-0.3-2.1,0.1-3.3c0,0,0.1,0,0.1,0
	c0.1,0,0.2,0,0.4,0s0.4,0.1,0.7,0.1s0.6,0.2,1,0.4c0.4,0.2,0.8,0.5,1.3,0.8c1-0.3,2-0.4,3.1-0.4c1.1,0,2.1,0.1,3.2,0.4
	c0.7-0.5,1.4-0.8,1.9-1c0.6-0.2,1-0.3,1.2-0.3l0.3,0c0.5,1.2,0.5,2.3,0.1,3.3c0.9,0.9,1.3,2.1,1.3,3.4c0,0.7-0.1,1.3-0.2,1.9
	c-0.1,0.6-0.3,1.1-0.5,1.5C-178.2,441.1-178.5,441.5-178.8,441.8z"/>
</svg>
