<svg xmlns="http://www.w3.org/2000/svg" viewBox="0 0 160 96"><defs><style>.a{fill:#333;}.b{fill:#fff;}</style></defs><title>cd-socials</title><path class="a" d="M23.2,11.3a7.51,7.51,0,0,1-1.8.7,3.12,3.12,0,0,0-2.1-.9A2.9,2.9,0,0,0,16.4,14a1.08,1.08,0,0,0,.1.6,7.79,7.79,0,0,1-5.9-3,2.39,2.39,0,0,0-.3,1.5,3,3,0,0,0,1.3,2.4,6.11,6.11,0,0,1-1.3-.3A2.89,2.89,0,0,0,12.6,18a1,1,0,0,1-1.3,0A2.82,2.82,0,0,0,14,20a5.58,5.58,0,0,1-3.6,1.2H9.7a8.39,8.39,0,0,0,4.4,1.3,8.11,8.11,0,0,0,8.1-8.1V14.1a4.89,4.89,0,0,0,1.6-1.6,4.26,4.26,0,0,1-1.7.4A2.61,2.61,0,0,0,23.2,11.3Z"/><path class="a" d="M16,3.5A12.5,12.5,0,1,0,28.5,16,12.5,12.5,0,0,0,16,3.5ZM16,27A11.1,11.1,0,1,1,27.1,15.9,11.14,11.14,0,0,1,16,27Z"/><path class="a" d="M81.6,11.4h2.1V8.6h-3a2.5,2.5,0,0,0-2.5,2.6v2.1H76.4v2.8h1.8v7.3H81V16h1.8l0.9-2.8H80.9V12A0.61,0.61,0,0,1,81.6,11.4Z"/><path class="a" d="M80,3.5A12.5,12.5,0,1,0,92.5,16,12.5,12.5,0,0,0,80,3.5ZM80,27A11.1,11.1,0,1,1,91.1,15.9,11.14,11.14,0,0,1,80,27Z"/><path class="b" d="M16,35.5A12.5,12.5,0,1,0,28.5,48,12.5,12.5,0,0,0,16,35.5ZM22.1,46v0.3A8,8,0,0,1,14,54.4a8.39,8.39,0,0,1-4.4-1.3h0.7a5.58,5.58,0,0,0,3.6-1.2,2.82,2.82,0,0,1-2.7-2,1,1,0,0,0,1.3,0,2.89,2.89,0,0,1-2.3-2.8,3.08,3.08,0,0,0,1.3.3A2.81,2.81,0,0,1,10.2,45a3.65,3.65,0,0,1,.3-1.5,8.5,8.5,0,0,0,5.9,3,1.08,1.08,0,0,1-.1-0.6A2.9,2.9,0,0,1,19.2,43a2.72,2.72,0,0,1,2.1.9,4.84,4.84,0,0,0,1.8-.7,2.76,2.76,0,0,1-1.2,1.6,10.46,10.46,0,0,0,1.7-.4A3.81,3.81,0,0,1,22.1,46Z"/><path class="b" d="M80,35.5A12.5,12.5,0,1,0,92.5,48,12.5,12.5,0,0,0,80,35.5Zm3.7,7.9H81.6a0.57,0.57,0,0,0-.6.6v1.2h2.8L82.9,48H81.1v7.4H78.3V48.1H76.5V45.3h1.8V43.2a2.44,2.44,0,0,1,2.5-2.6h3v2.8H83.7Z"/><path class="a" d="M48,3.5A12.5,12.5,0,1,0,60.5,16,12.5,12.5,0,0,0,48,3.5Zm3.3,23V24.8a2.71,2.71,0,0,0-1.1-2.3,5,5,0,0,0,1.2-.2l1.2-.3a3.7,3.7,0,0,0,1.1-.5,6.47,6.47,0,0,0,.9-0.8,4.44,4.44,0,0,0,.8-1.1,5.27,5.27,0,0,0,.5-1.5,11.08,11.08,0,0,0,.2-1.9,4.84,4.84,0,0,0-1.3-3.4,4.72,4.72,0,0,0-.1-3.3H54.4a4.91,4.91,0,0,0-1.2.3,11.76,11.76,0,0,0-1.9,1,11.24,11.24,0,0,0-3.2-.4,10.55,10.55,0,0,0-3.1.4c-0.5-.3-0.9-0.6-1.3-0.8a6.89,6.89,0,0,0-1-.4A2,2,0,0,0,42,9.5H41.5a4.22,4.22,0,0,0-.1,3.3,4.67,4.67,0,0,0-1.3,3.4,11.08,11.08,0,0,0,.2,1.9,5.27,5.27,0,0,0,.5,1.5,4.44,4.44,0,0,0,.8,1.1,6.47,6.47,0,0,0,.9.8,3.7,3.7,0,0,0,1.1.5,5.27,5.27,0,0,0,1.2.3c0.4,0.1.8,0.1,1.2,0.2a2.53,2.53,0,0,0-1,2.3v1.8A11.09,11.09,0,1,1,59.3,16,11.42,11.42,0,0,1,51.3,26.5Z"/><path class="a" d="M112,3.5A12.5,12.5,0,1,0,124.5,16,12.5,12.5,0,0,0,112,3.5ZM112,27a11.1,11.1,0,1,1,11.1-11.1A11.14,11.14,0,0,1,112,27Z"/><path class="a" d="M119.1,13.7a5,5,0,0,0-.2-1.2,2.07,2.07,0,0,0-.6-1,1.91,1.91,0,0,0-1-.5c-1.2-.1-3-0.2-5.4-0.2s-4.2.1-5.4,0.2a1.39,1.39,0,0,0-1,.5,2.07,2.07,0,0,0-.6,1c-0.1.3-.1,0.7-0.2,1.2s-0.1.8-.1,1.1v2.4a4.48,4.48,0,0,0,.1,1.1,5,5,0,0,0,.2,1.2,2.07,2.07,0,0,0,.6,1,1.91,1.91,0,0,0,1,.5c1.2,0.1,3,.2,5.4.2s4.2-.1,5.4-0.2a1.39,1.39,0,0,0,1-.5,2.07,2.07,0,0,0,.6-1c0.1-.3.1-0.7,0.2-1.2s0.1-.8.1-1.1V14.8A4.48,4.48,0,0,0,119.1,13.7Zm-4.3,2.7L110.7,19a0.37,0.37,0,0,1-.3.1c-0.1,0-.2,0-0.2-0.1a0.42,0.42,0,0,1-.3-0.4V13.5a0.35,0.35,0,0,1,.3-0.4,0.45,0.45,0,0,1,.5,0l4.1,2.6a0.34,0.34,0,0,1,.2.4C115,16.3,115,16.3,114.8,16.4Z"/><path class="b" d="M112,35.5A12.5,12.5,0,1,0,124.5,48,12.5,12.5,0,0,0,112,35.5ZM119.2,48v1.2a4.49,4.49,0,0,1-.1,1.1,5,5,0,0,1-.2,1.2,2.07,2.07,0,0,1-.6,1,1.91,1.91,0,0,1-1,.5c-1.2.1-3,.2-5.4,0.2s-4.2-.1-5.4-0.2a1.39,1.39,0,0,1-1-.5,2.08,2.08,0,0,1-.6-1c-0.1-.3-0.1-0.7-0.2-1.2s-0.1-.8-0.1-1.1V46.8a4.49,4.49,0,0,1,.1-1.1,5,5,0,0,1,.2-1.2,2.07,2.07,0,0,1,.6-1,1.91,1.91,0,0,1,1-.5c1.2-.1,3-0.2,5.4-0.2s4.2,0.1,5.4.2a1.39,1.39,0,0,1,1,.5,2.07,2.07,0,0,1,.6,1c0.1,0.3.1,0.7,0.2,1.2s0.1,0.8.1,1.1V48Z"/><path class="b" d="M114.8,47.5l-4.1-2.6a0.45,0.45,0,0,0-.5,0,0.42,0.42,0,0,0-.3.4v5.1a0.35,0.35,0,0,0,.3.4,0.35,0.35,0,0,1,.2.1,0.37,0.37,0,0,0,.3-0.1l4.1-2.6a0.34,0.34,0,0,0,.2-0.4C115,47.6,115,47.6,114.8,47.5Z"/><path class="b" d="M48,35.5A12.5,12.5,0,1,0,60.5,48,12.5,12.5,0,0,0,48,35.5Zm6.6,17.2a6.47,6.47,0,0,1-.9.8,3.7,3.7,0,0,1-1.1.5,5.27,5.27,0,0,1-1.2.3c-0.4.1-.8,0.1-1.2,0.2a2.59,2.59,0,0,1,1.1,2.3v1.7A11.42,11.42,0,0,1,48,59a10.59,10.59,0,0,1-3.1-.5V56.7a2.64,2.64,0,0,1,1-2.3,5,5,0,0,1-1.2-.2l-1.2-.3a3.7,3.7,0,0,1-1.1-.5,6.47,6.47,0,0,1-.9-0.8,4.44,4.44,0,0,1-.8-1.1,5.27,5.27,0,0,1-.5-1.5,11.08,11.08,0,0,1-.2-1.9,4.84,4.84,0,0,1,1.3-3.4,4.72,4.72,0,0,1,.1-3.3h0.5c0.2,0,.4.1,0.7,0.1a2.6,2.6,0,0,1,1,.4c0.4,0.2.8,0.5,1.3,0.8a10.55,10.55,0,0,1,3.1-.4,11.7,11.7,0,0,1,3.2.4,8.84,8.84,0,0,1,1.9-1,4.91,4.91,0,0,1,1.2-.3h0.3a4.22,4.22,0,0,1,.1,3.3A4.67,4.67,0,0,1,56,48.1a11.08,11.08,0,0,1-.2,1.9,5.27,5.27,0,0,1-.5,1.5A2.4,2.4,0,0,1,54.6,52.7Z"/><path class="a" d="M144,3.5A12.5,12.5,0,1,0,156.5,16,12.5,12.5,0,0,0,144,3.5ZM144,27a11.1,11.1,0,1,1,11.1-11.1A11.14,11.14,0,0,1,144,27Z"/><path class="a" d="M147.09,12.69A2.67,2.67,0,0,0,144.68,14h0V12.9H142.2v8.19h2.54V17c0-1.07.2-2.1,1.53-2.1s1.32,1.22,1.32,2.17v4h2.54V16.59C150.14,14.39,149.66,12.69,147.09,12.69Z"/><rect class="a" x="138.07" y="12.9" width="2.54" height="8.19"/><circle class="a" cx="139.34" cy="10.3" r="1.47"/><path class="b" d="M23.2,75.3a7.51,7.51,0,0,1-1.8.7,3.12,3.12,0,0,0-2.1-.9A2.9,2.9,0,0,0,16.4,78a1.08,1.08,0,0,0,.1.6,7.79,7.79,0,0,1-5.9-3,2.39,2.39,0,0,0-.3,1.5,3,3,0,0,0,1.3,2.4,6.11,6.11,0,0,1-1.3-.3A2.89,2.89,0,0,0,12.6,82a1,1,0,0,1-1.3,0A2.82,2.82,0,0,0,14,84a5.58,5.58,0,0,1-3.6,1.2H9.7a8.39,8.39,0,0,0,4.4,1.3,8.11,8.11,0,0,0,8.1-8.1V78.1a4.89,4.89,0,0,0,1.6-1.6,4.26,4.26,0,0,1-1.7.4A2.61,2.61,0,0,0,23.2,75.3Z"/><path class="b" d="M16,67.5A12.5,12.5,0,1,0,28.5,80,12.5,12.5,0,0,0,16,67.5ZM16,91A11.1,11.1,0,1,1,27.1,79.9,11.14,11.14,0,0,1,16,91Z"/><path class="b" d="M81.6,75.4h2.1V72.6h-3a2.5,2.5,0,0,0-2.5,2.6v2.1H76.4v2.8h1.8v7.3H81V80h1.8l0.9-2.8H80.9V76A0.61,0.61,0,0,1,81.6,75.4Z"/><path class="b" d="M80,67.5A12.5,12.5,0,1,0,92.5,80,12.5,12.5,0,0,0,80,67.5ZM80,91A11.1,11.1,0,1,1,91.1,79.9,11.14,11.14,0,0,1,80,91Z"/><path class="b" d="M48,67.5A12.5,12.5,0,1,0,60.5,80,12.5,12.5,0,0,0,48,67.5Zm3.3,23V88.8a2.71,2.71,0,0,0-1.1-2.3,5,5,0,0,0,1.2-.2l1.2-.3a3.7,3.7,0,0,0,1.1-.5,6.47,6.47,0,0,0,.9-0.8,4.44,4.44,0,0,0,.8-1.1,5.27,5.27,0,0,0,.5-1.5,11.08,11.08,0,0,0,.2-1.9,4.84,4.84,0,0,0-1.3-3.4,4.72,4.72,0,0,0-.1-3.3H54.4a4.91,4.91,0,0,0-1.2.3,11.76,11.76,0,0,0-1.9,1,11.24,11.24,0,0,0-3.2-.4,10.55,10.55,0,0,0-3.1.4c-0.5-.3-0.9-0.6-1.3-0.8a6.89,6.89,0,0,0-1-.4,2,2,0,0,0-.7-0.1H41.5a4.22,4.22,0,0,0-.1,3.3,4.67,4.67,0,0,0-1.3,3.4,11.08,11.08,0,0,0,.2,1.9,5.27,5.27,0,0,0,.5,1.5,4.44,4.44,0,0,0,.8,1.1,6.47,6.47,0,0,0,.9.8,3.7,3.7,0,0,0,1.1.5,5.27,5.27,0,0,0,1.2.3c0.4,0.1.8,0.1,1.2,0.2a2.53,2.53,0,0,0-1,2.3v1.8A11.09,11.09,0,1,1,59.3,80,11.42,11.42,0,0,1,51.3,90.5Z"/><path class="b" d="M112,67.5A12.5,12.5,0,1,0,124.5,80,12.5,12.5,0,0,0,112,67.5ZM112,91a11.1,11.1,0,1,1,11.1-11.1A11.14,11.14,0,0,1,112,91Z"/><path class="b" d="M119.1,77.7a5,5,0,0,0-.2-1.2,2.07,2.07,0,0,0-.6-1,1.91,1.91,0,0,0-1-.5c-1.2-.1-3-0.2-5.4-0.2s-4.2.1-5.4,0.2a1.39,1.39,0,0,0-1,.5,2.07,2.07,0,0,0-.6,1c-0.1.3-.1,0.7-0.2,1.2s-0.1.8-.1,1.1v2.4a4.48,4.48,0,0,0,.1,1.1,5,5,0,0,0,.2,1.2,2.07,2.07,0,0,0,.6,1,1.91,1.91,0,0,0,1,.5c1.2,0.1,3,.2,5.4.2s4.2-.1,5.4-0.2a1.39,1.39,0,0,0,1-.5,2.07,2.07,0,0,0,.6-1c0.1-.3.1-0.7,0.2-1.2s0.1-.8.1-1.1V78.8A4.48,4.48,0,0,0,119.1,77.7Zm-4.3,2.7L110.7,83a0.37,0.37,0,0,1-.3.1c-0.1,0-.2,0-0.2-0.1a0.42,0.42,0,0,1-.3-0.4V77.5a0.35,0.35,0,0,1,.3-0.4,0.45,0.45,0,0,1,.5,0l4.1,2.6a0.34,0.34,0,0,1,.2.4C115,80.3,115,80.3,114.8,80.4Z"/><path class="b" d="M144,67.5A12.5,12.5,0,1,0,156.5,80,12.5,12.5,0,0,0,144,67.5ZM144,91a11.1,11.1,0,1,1,11.1-11.1A11.14,11.14,0,0,1,144,91Z"/><path class="b" d="M147.09,76.69A2.67,2.67,0,0,0,144.68,78h0V76.9H142.2v8.19h2.54V81c0-1.07.2-2.1,1.53-2.1s1.32,1.22,1.32,2.17v4h2.54V80.59C150.14,78.39,149.66,76.69,147.09,76.69Z"/><rect class="b" x="138.07" y="76.9" width="2.54" height="8.19"/><circle class="b" cx="139.34" cy="74.3" r="1.47"/><path class="b" d="M144,35.5A12.5,12.5,0,1,0,156.5,48,12.5,12.5,0,0,0,144,35.5Zm-3.11,17.58h-2.54V44.9h2.54v8.19Zm-1.27-9.3a1.47,1.47,0,1,1,1.47-1.48A1.48,1.48,0,0,1,139.62,43.78Zm10.8,9.3h-2.54v-4c0-.95,0-2.17-1.32-2.17S145,48,145,49v4h-2.54V44.9h2.44V46h0a2.67,2.67,0,0,1,2.41-1.32c2.58,0,3.05,1.7,3.05,3.9v4.49Z"/></svg>