<svg xmlns="http://www.w3.org/2000/svg" viewBox="0 0 125 50"><defs><style>.a{fill:#889193;}.b{fill:#1d1d1b;}</style></defs><title>controls</title><path class="a" d="M41,11l-6.1,5.5-1.8-1.6,4.3-3.8-4.3-3.8L35,5.61,41,11"/><path class="a" d="M62.48,11l-6.1,5.5-1.8-1.6,4.3-3.8-4.3-3.8,1.9-1.7,6,5.4"/><path class="a" d="M5,11.11l6.1-5.5,1.8,1.6L8.56,11l4.3,3.8L11,16.51l-6-5.4"/><path class="a" d="M58.86,11.11,65,5.61l1.8,1.6L62.46,11l4.3,3.8-1.9,1.7-6-5.4"/><rect class="a" x="107" y="5.12" width="2.52" height="10.91"/><rect class="a" x="111.61" y="5.12" width="2.52" height="10.91"/><polyline class="a" points="83.54 5.61 88.76 10.83 83.54 16.05"/><path class="b" d="M41,36.23l-6.1,5.5-1.8-1.6,4.3-3.8-4.3-3.8,1.9-1.7,6,5.4"/><path class="b" d="M62.48,36.23l-6.1,5.5-1.8-1.6,4.3-3.8-4.3-3.8,1.9-1.7,6,5.4"/><path class="b" d="M5,36.33l6.1-5.5,1.8,1.6-4.3,3.8,4.3,3.8L11,41.73l-6-5.4"/><path class="b" d="M58.86,36.33l6.1-5.5,1.8,1.6-4.3,3.8,4.3,3.8-1.9,1.7-6-5.4"/><rect class="b" x="107" y="30.34" width="2.52" height="10.91"/><rect class="b" x="111.61" y="30.34" width="2.52" height="10.91"/><polyline class="b" points="83.54 30.83 88.76 36.05 83.54 41.27"/></svg>