<?xml version="1.0" encoding="UTF-8" standalone="no"?>
<!DOCTYPE svg PUBLIC "-//W3C//DTD SVG 1.1//EN" "http://www.w3.org/Graphics/SVG/1.1/DTD/svg11.dtd">
<svg width="100%" height="100%" viewBox="0 0 16 9" version="1.1" xmlns="http://www.w3.org/2000/svg" xmlns:xlink="http://www.w3.org/1999/xlink" xml:space="preserve" style="fill-rule:evenodd;clip-rule:evenodd;stroke-linejoin:round;stroke-miterlimit:1.41421;">
    <g transform="matrix(1,0,0,1,-400,-468)">
        <path d="M401.085,468.004C401.229,468.021 401.365,468.057 401.492,468.129C401.555,468.165 401.61,468.208 401.665,468.254L407.751,473.679L413.644,468.264L413.699,468.217C413.835,468.117 413.982,468.044 414.15,468.015C414.557,467.944 414.976,468.139 415.184,468.495C415.232,468.578 415.269,468.667 415.292,468.759C415.32,468.875 415.328,468.995 415.315,469.113C415.296,469.279 415.235,469.439 415.139,469.576C415.097,469.635 415.049,469.686 414.998,469.736L408.438,475.764C408.348,475.841 408.254,475.906 408.144,475.951C407.906,476.05 407.633,476.052 407.393,475.957C407.304,475.922 407.227,475.874 407.15,475.819C404.809,473.875 402.606,471.771 400.335,469.746C400.212,469.629 400.116,469.497 400.058,469.336C399.936,468.995 400.012,468.605 400.254,468.335C400.317,468.264 400.39,468.202 400.471,468.151C400.616,468.061 400.774,468.017 400.943,468.002C401.015,468 401.014,468 401.085,468.004Z" style="fill:rgb(17,34,51);fill-rule:nonzero;"/>
    </g>
</svg>
