<?xml version="1.0" encoding="UTF-8" standalone="no"?>
<!DOCTYPE svg PUBLIC "-//W3C//DTD SVG 1.1//EN" "http://www.w3.org/Graphics/SVG/1.1/DTD/svg11.dtd">
<svg width="100%" height="100%" viewBox="0 0 110 82" version="1.1" xmlns="http://www.w3.org/2000/svg" xmlns:xlink="http://www.w3.org/1999/xlink" xml:space="preserve" style="fill-rule:evenodd;clip-rule:evenodd;">
    <g id="Page.-1" transform="matrix(1,0,0,1,-1198,-190.071)">
        <path d="M1198,210.5L1198,239.75L1227.25,239.75L1227.25,210.5L1198,210.5ZM1230.25,210.5L1230.25,239.75L1259.5,239.75L1259.5,210.5L1230.25,210.5ZM1213,217.25C1213.83,217.25 1214.5,217.922 1214.5,218.75L1214.5,224L1219.75,224C1220.58,224 1221.25,224.672 1221.25,225.5C1221.25,226.328 1220.58,227 1219.75,227L1214.5,227L1214.5,232.25C1214.5,233.078 1213.83,233.75 1213,233.75C1212.17,233.75 1211.5,233.078 1211.5,232.25L1211.5,227L1206.25,227C1205.42,227 1204.75,226.328 1204.75,225.5C1204.75,224.672 1205.42,224 1206.25,224L1211.5,224L1211.5,218.75C1211.5,217.922 1212.17,217.25 1213,217.25ZM1237.75,224L1251.25,224C1252.08,224 1252.75,224.672 1252.75,225.5C1252.75,226.328 1252.08,227 1251.25,227L1237.75,227C1236.92,227 1236.25,226.328 1236.25,225.5C1236.25,224.672 1236.92,224 1237.75,224ZM1198,242.75L1198,272L1227.25,272L1227.25,242.75L1198,242.75ZM1230.25,242.75L1230.25,272L1259.5,272L1259.5,242.75L1230.25,242.75ZM1207.16,249.664C1207.55,249.664 1207.93,249.816 1208.22,250.109L1213,254.891L1217.78,250.109C1218.37,249.523 1219.31,249.523 1219.89,250.109C1220.48,250.695 1220.48,251.633 1219.89,252.219L1215.11,257L1219.89,261.781C1220.48,262.367 1220.48,263.305 1219.89,263.891C1219.31,264.477 1218.37,264.477 1217.78,263.891L1213,259.109L1208.22,263.891C1207.63,264.477 1206.69,264.477 1206.11,263.891C1205.52,263.305 1205.52,262.367 1206.11,261.781L1210.89,257L1206.11,252.219C1205.52,251.633 1205.52,250.695 1206.11,250.109C1206.4,249.816 1206.78,249.664 1207.16,249.664ZM1237.75,251.75L1251.25,251.75C1252.08,251.75 1252.75,252.422 1252.75,253.25C1252.75,254.078 1252.08,254.75 1251.25,254.75L1237.75,254.75C1236.92,254.75 1236.25,254.078 1236.25,253.25C1236.25,252.422 1236.92,251.75 1237.75,251.75ZM1237.75,259.25L1251.25,259.25C1252.08,259.25 1252.75,259.922 1252.75,260.75C1252.75,261.578 1252.08,262.25 1251.25,262.25L1237.75,262.25C1236.92,262.25 1236.25,261.578 1236.25,260.75C1236.25,259.922 1236.92,259.25 1237.75,259.25Z" style="fill:rgb(137,219,142);"/>
    </g>
    <g id="Page.-11" transform="matrix(7.04481e-16,-1,1,7.04481e-16,-154.103,1306.98)">
        <path d="M1298.37,198.595C1294.23,194.346 1288.6,192.048 1282.74,192.048C1276.77,192.048 1271.25,194.346 1267,198.595C1262.75,202.845 1260.45,208.361 1260.45,214.335C1260.45,218.703 1261.71,222.839 1264.01,226.513L1258.73,231.797C1257.12,230.763 1255.05,230.996 1253.56,232.371L1237.24,248.812C1235.63,250.422 1235.63,253.06 1237.24,254.67L1242.41,259.841C1243.21,260.642 1244.24,261.103 1245.28,261.103C1246.32,261.103 1247.35,260.642 1248.15,259.841L1264.7,243.293C1265.5,242.492 1265.96,241.456 1265.96,240.421C1265.96,239.619 1265.74,238.925 1265.39,238.236L1270.67,232.952C1274.23,235.25 1278.49,236.513 1282.85,236.513C1288.82,236.513 1294.34,234.214 1298.59,229.966C1302.62,225.831 1304.92,220.199 1304.92,214.228C1304.92,208.361 1302.62,202.737 1298.37,198.595ZM1262.75,241.343L1246.2,257.891C1245.63,258.465 1244.83,258.465 1244.25,257.891L1239.08,252.72C1238.51,252.145 1238.51,251.343 1239.08,250.768L1255.63,234.221C1255.86,233.994 1256.2,233.761 1256.55,233.761C1256.9,233.761 1257.24,233.874 1257.47,234.221L1262.65,239.397C1262.88,239.626 1263.11,239.972 1263.11,240.32C1263.2,240.769 1262.98,241.109 1262.75,241.343ZM1263.44,236.172L1260.79,233.527L1265.62,228.704L1268.26,231.348L1263.44,236.172ZM1296.41,228.016C1292.74,231.69 1287.79,233.761 1282.62,233.761C1277.45,233.761 1272.51,231.69 1268.84,228.016C1265.16,224.341 1263.09,219.398 1263.09,214.228C1263.09,209.057 1265.16,204.113 1268.84,200.439C1272.51,196.764 1277.45,194.694 1282.62,194.694C1287.79,194.694 1292.74,196.764 1296.41,200.439C1303.99,208.135 1303.99,220.426 1296.41,228.016Z" style="fill:rgb(71,138,75);stroke:rgb(71,138,75);stroke-width:1px;"/>
    </g>
</svg>
