<?xml version="1.0" encoding="UTF-8" standalone="no"?>
<!DOCTYPE svg PUBLIC "-//W3C//DTD SVG 1.1//EN" "http://www.w3.org/Graphics/SVG/1.1/DTD/svg11.dtd">
<svg width="100%" height="100%" viewBox="0 0 967 346" version="1.1" xmlns="http://www.w3.org/2000/svg" xmlns:xlink="http://www.w3.org/1999/xlink" xml:space="preserve" style="fill-rule:evenodd;clip-rule:evenodd;stroke-linejoin:round;stroke-miterlimit:1.41421;">
    <g transform="matrix(4.16667,0,0,4.16667,0,0)">
        <path d="M37.619,74.308L7.955,44.644L13.324,42.895L35.615,65.186C36.166,65.737 36.893,66.012 37.619,66.012C38.346,66.012 39.072,65.737 39.624,65.186L61.915,42.894L67.284,44.643L37.619,74.308Z" style="fill:white;fill-rule:nonzero;"/>
        <path d="M37.619,80.202C36.893,80.202 36.166,79.926 35.615,79.375L0.66,44.42C-0.442,43.317 -0.131,42.019 1.35,41.537L9.358,38.928L13.324,42.895L7.955,44.644L37.619,74.308L67.284,44.643L61.915,42.894L65.881,38.928L73.888,41.537C75.371,42.019 75.682,43.317 74.579,44.42L39.624,79.375C39.072,79.926 38.346,80.202 37.619,80.202Z" style="fill:rgb(134,201,135);fill-rule:nonzero;"/>
        <path d="M60.548,37.191L40.315,30.599C39.573,30.358 38.596,30.237 37.619,30.237C36.642,30.237 35.665,30.358 34.924,30.599L14.691,37.191L7.955,30.455L36.472,21.164C36.568,21.134 36.983,21.048 37.619,21.048C38.256,21.048 38.671,21.134 38.766,21.164L67.284,30.455L60.548,37.191Z" style="fill:white;fill-rule:nonzero;"/>
        <path d="M37.619,60.119L18.658,41.157L36.472,35.353C36.568,35.323 36.983,35.237 37.619,35.237C38.256,35.237 38.671,35.323 38.766,35.353L56.582,41.157L37.619,60.119Z" style="fill:white;fill-rule:nonzero;"/>
        <path d="M18.658,41.157L14.691,37.191L34.924,30.599C35.665,30.358 36.642,30.237 37.619,30.237C38.596,30.237 39.573,30.358 40.315,30.599L60.548,37.191L56.582,41.157L38.766,35.353C38.671,35.323 38.256,35.237 37.619,35.237C36.983,35.237 36.568,35.323 36.472,35.353L18.658,41.157Z" style="fill:rgb(234,245,233);fill-rule:nonzero;"/>
        <path d="M65.881,38.928L60.548,37.191L67.284,30.455L38.766,21.164C38.671,21.134 38.256,21.048 37.619,21.048C36.983,21.048 36.568,21.134 36.472,21.164L7.955,30.455L14.691,37.191L9.358,38.928L0.66,30.23C-0.442,29.128 -0.131,27.831 1.35,27.348L34.924,16.41C35.665,16.169 36.642,16.048 37.619,16.048C38.596,16.048 39.573,16.169 40.315,16.41L73.888,27.348C75.371,27.831 75.682,29.128 74.579,30.23L65.881,38.928Z" style="fill:rgb(105,191,110);fill-rule:nonzero;"/>
        <path d="M37.619,66.012C36.893,66.012 36.166,65.737 35.615,65.186L13.324,42.895L18.658,41.157L37.619,60.119L56.582,41.157L61.915,42.894L39.624,65.186C39.072,65.737 38.346,66.012 37.619,66.012Z" style="fill:rgb(105,191,110);fill-rule:nonzero;"/>
        <path d="M13.324,42.895L9.358,38.928L14.691,37.191L18.658,41.157L13.324,42.895ZM61.915,42.894L56.582,41.157L60.548,37.191L65.881,38.928L61.915,42.894Z" style="fill:rgb(83,186,94);fill-rule:nonzero;"/>
        <path d="M73.888,13.159C75.371,13.642 75.682,14.939 74.579,16.042L39.624,50.997C38.521,52.099 36.717,52.099 35.615,50.997L0.66,16.042C-0.442,14.939 -0.131,13.642 1.35,13.159L34.924,2.221C36.406,1.739 38.832,1.739 40.315,2.221L73.888,13.159Z" style="fill:rgb(70,183,87);fill-rule:nonzero;"/>
        <path d="M51.913,24.443L37.805,35.322L10.049,14.022L23.208,9.268L51.913,24.443Z" style="fill:white;fill-rule:nonzero;"/>
        <path d="M65.427,14.022L57.179,20.383L37.73,11.485L46.819,7.315L65.427,14.022Z" style="fill:white;fill-rule:nonzero;"/>
        <g transform="matrix(0.24,0,0,0.24,0,0)">
            <path d="M541.804,158.333L523.404,158.333L523.404,33.225L538.283,33.225C538.696,34.846 539.558,38.704 540.867,44.812L541.804,44.812C547.542,36.046 556.154,31.658 567.638,31.658C578.442,31.658 586.858,35.575 592.883,43.404C598.912,51.233 601.929,62.221 601.929,76.363C601.929,90.504 598.863,101.546 592.729,109.479C586.596,117.417 578.129,121.379 567.325,121.379C556.363,121.379 547.855,117.438 541.804,109.558L540.708,109.558C541.438,116.867 541.804,121.3 541.804,122.867L541.804,158.333ZM508.796,62.429C508.796,81.063 504.137,95.542 494.821,105.879C485.504,116.212 472.313,121.379 455.246,121.379C437.971,121.379 424.7,116.254 415.433,105.996C406.171,95.738 401.538,81.167 401.538,62.271C401.538,43.379 406.2,28.867 415.512,18.742C424.833,8.617 438.129,3.554 455.404,3.554C472.421,3.554 485.571,8.696 494.858,18.979C504.15,29.263 508.796,43.746 508.796,62.429ZM653.096,121.379C639.629,121.379 629.1,117.45 621.508,109.596C613.913,101.742 610.117,90.925 610.117,77.146C610.117,63.004 613.642,51.883 620.683,43.796C627.729,35.704 637.413,31.658 649.729,31.658C661.158,31.658 670.183,35.133 676.817,42.071C683.446,49.013 686.758,58.567 686.758,70.725L686.758,80.671L629.058,80.671C629.321,89.075 631.592,95.529 635.871,100.046C640.15,104.563 646.179,106.817 653.958,106.817C659.071,106.817 663.833,106.337 668.25,105.367C672.654,104.404 677.392,102.8 682.458,100.554L682.458,115.508C677.967,117.65 673.425,119.162 668.829,120.05C664.238,120.933 658.992,121.379 653.096,121.379ZM718.046,119.817L699.646,119.817L699.646,33.225L714.05,33.225L716.637,44.579L717.571,44.579C720.179,40.454 723.888,37.271 728.687,35.029C733.496,32.783 738.813,31.658 744.662,31.658C765.433,31.658 775.821,42.229 775.821,63.367L775.821,119.817L757.342,119.817L757.342,66.575C757.342,59.896 756,54.913 753.317,51.625C750.625,48.333 746.358,46.692 740.513,46.692C732.737,46.692 727.05,48.992 723.446,53.579C719.842,58.175 718.046,65.871 718.046,76.675L718.046,119.817ZM562.863,46.692C555.554,46.692 550.221,48.829 546.85,53.113C543.487,57.392 541.804,64.229 541.804,73.621L541.804,76.363C541.804,86.904 543.475,94.542 546.813,99.258C550.15,103.988 555.604,106.35 563.175,106.35C569.542,106.35 574.45,103.737 577.892,98.517C581.342,93.3 583.058,85.862 583.058,76.204C583.058,66.5 581.354,59.154 577.933,54.167C574.512,49.183 569.488,46.692 562.863,46.692ZM421.425,62.429C421.425,76.521 424.271,87.204 429.958,94.487C435.646,101.771 444.075,105.408 455.246,105.408C466.363,105.408 474.754,101.808 480.417,94.604C486.079,87.4 488.912,76.675 488.912,62.429C488.912,48.387 486.104,37.742 480.496,30.488C474.887,23.229 466.521,19.604 455.404,19.604C444.183,19.604 435.717,23.229 430,30.488C424.283,37.742 421.425,48.387 421.425,62.429ZM649.729,45.596C643.888,45.596 639.2,47.45 635.679,51.154C632.154,54.858 630.054,60.262 629.375,67.358L668.675,67.358C668.571,60.208 666.85,54.796 663.508,51.112C660.167,47.438 655.575,45.596 649.729,45.596Z" style="fill:rgb(70,183,87);"/>
        </g>
        <g transform="matrix(0.24,0,0,0.24,0,0)">
            <path d="M762.417,221.988L762.417,231.983L747.767,234.7C749.113,236.504 750.225,238.729 751.1,241.358C751.975,243.996 752.421,246.788 752.421,249.729C752.421,258.567 749.371,265.517 743.275,270.579C737.179,275.646 728.783,278.175 718.088,278.175C715.35,278.175 712.871,277.971 710.646,277.554C706.721,279.983 704.758,282.829 704.758,286.083C704.758,288.046 705.675,289.517 707.508,290.496C709.342,291.483 712.708,291.975 717.621,291.975L732.579,291.975C742.038,291.975 749.217,293.983 754.125,298.017C759.033,302.046 761.483,307.858 761.483,315.458C761.483,325.167 757.483,332.658 749.475,337.929C741.467,343.196 729.892,345.833 714.758,345.833C703.079,345.833 694.167,343.767 688.021,339.633C681.871,335.496 678.796,329.608 678.796,321.962C678.796,316.696 680.458,312.262 683.796,308.675C687.125,305.079 691.788,302.588 697.779,301.196C695.354,300.162 693.35,298.496 691.775,296.2C690.196,293.9 689.417,291.483 689.417,288.946C689.417,285.746 690.317,283.029 692.125,280.808C693.933,278.592 696.621,276.392 700.187,274.221C695.742,272.312 692.138,269.196 689.375,264.883C686.608,260.571 685.229,255.521 685.229,249.729C685.229,240.433 688.158,233.225 694.025,228.112C699.883,222.996 708.246,220.438 719.096,220.438C721.525,220.438 724.067,220.608 726.729,220.942C729.387,221.279 731.388,221.625 732.733,221.988L762.417,221.988ZM695.071,321.037C695.071,324.958 696.842,327.983 700.379,330.096C703.917,332.217 708.887,333.279 715.3,333.279C725.217,333.279 732.604,331.854 737.462,329.017C742.321,326.175 744.746,322.4 744.746,317.704C744.746,313.979 743.417,311.333 740.758,309.758C738.096,308.179 733.146,307.392 725.912,307.392L712.121,307.392C706.904,307.392 702.754,308.621 699.679,311.075C696.604,313.529 695.071,316.85 695.071,321.037ZM581.054,307.704L566.717,307.704L564.163,296.467L563.225,296.467C560.7,300.446 557.096,303.571 552.417,305.842C547.742,308.117 542.404,309.254 536.412,309.254C526.029,309.254 518.279,306.671 513.162,301.504C508.05,296.338 505.492,288.513 505.492,278.021L505.492,221.988L523.858,221.988L523.858,274.846C523.858,281.404 525.2,286.325 527.888,289.608C530.579,292.892 534.787,294.525 540.521,294.525C548.171,294.525 553.787,292.242 557.379,287.671C560.967,283.096 562.767,275.437 562.767,264.692L562.767,221.988L581.054,221.988L581.054,307.704ZM671.925,307.704L657.667,307.704L654.492,296.467L653.638,296.467C647.8,304.992 639.25,309.254 627.987,309.254C617.292,309.254 608.95,305.379 602.954,297.625C596.962,289.879 593.967,279.004 593.967,265C593.967,250.946 596.996,240.008 603.071,232.179C609.137,224.35 617.554,220.438 628.3,220.438C639.562,220.438 648.137,224.6 654.025,232.917L654.958,232.917C654.075,226.771 653.638,221.913 653.638,218.346L653.638,187.113L671.925,187.113L671.925,307.704ZM784.008,268.954C784.267,277.275 786.513,283.667 790.75,288.133C794.987,292.604 800.954,294.837 808.654,294.837C813.721,294.837 818.429,294.363 822.8,293.404C827.162,292.45 831.854,290.858 836.863,288.637L836.863,303.442C832.421,305.563 827.925,307.058 823.379,307.937C818.829,308.812 813.637,309.254 807.8,309.254C794.471,309.254 784.05,305.367 776.533,297.592C769.013,289.813 765.258,279.104 765.258,265.467C765.258,251.462 768.742,240.463 775.717,232.45C782.692,224.442 792.275,220.438 804.471,220.438C815.783,220.438 824.721,223.875 831.279,230.746C837.846,237.617 841.125,247.075 841.125,259.108L841.125,268.954L784.008,268.954ZM885.808,294.525C890.254,294.525 894.696,293.829 899.146,292.433L899.146,306.154C897.125,307.029 894.529,307.767 891.35,308.362C888.179,308.954 884.883,309.254 881.471,309.254C864.217,309.254 855.583,300.162 855.583,281.975L855.583,235.783L843.888,235.783L843.888,227.721L856.442,221.054L862.642,202.925L873.875,202.925L873.875,221.988L898.288,221.988L898.288,235.783L873.875,235.783L873.875,281.662C873.875,286.054 874.975,289.296 877.171,291.392C879.367,293.483 882.25,294.525 885.808,294.525ZM965.917,283.292C965.917,291.662 962.871,298.083 956.775,302.55C950.675,307.017 941.946,309.254 930.579,309.254C919.158,309.254 909.988,307.521 903.067,304.063L903.067,288.329C913.137,292.975 922.517,295.304 931.196,295.304C942.404,295.304 948.012,291.921 948.012,285.15C948.012,282.983 947.396,281.171 946.154,279.729C944.913,278.279 942.875,276.779 940.029,275.229C937.188,273.679 933.238,271.925 928.171,269.963C918.304,266.137 911.629,262.317 908.142,258.492C904.654,254.667 902.908,249.708 902.908,243.612C902.908,236.275 905.867,230.579 911.783,226.525C917.7,222.467 925.746,220.438 935.925,220.438C946,220.438 955.533,222.479 964.521,226.562L958.633,240.279C949.383,236.454 941.604,234.542 935.304,234.542C925.696,234.542 920.888,237.283 920.888,242.758C920.888,245.446 922.138,247.717 924.646,249.579C927.15,251.437 932.617,253.996 941.037,257.25C948.117,259.987 953.258,262.496 956.458,264.771C959.663,267.046 962.042,269.662 963.588,272.633C965.137,275.604 965.917,279.158 965.917,283.292ZM452.279,307.704L411.358,307.704L411.358,194.396L444.992,194.396C460.596,194.396 471.871,196.675 478.821,201.221C485.771,205.767 489.246,212.946 489.246,222.767C489.246,229.379 487.542,234.879 484.129,239.271C480.721,243.663 475.808,246.425 469.404,247.563L469.404,248.337C477.358,249.838 483.213,252.796 486.958,257.213C490.704,261.629 492.575,267.608 492.575,275.154C492.575,285.333 489.021,293.304 481.921,299.062C474.817,304.825 464.938,307.704 452.279,307.704ZM632.871,294.525C640.358,294.525 645.812,292.421 649.221,288.212C652.633,284 654.387,277.167 654.492,267.717L654.492,265.154C654.492,254.358 652.733,246.687 649.221,242.138C645.708,237.592 640.204,235.317 632.712,235.317C626.308,235.317 621.375,237.913 617.908,243.104C614.45,248.3 612.717,255.7 612.717,265.312C612.717,274.821 614.4,282.067 617.758,287.05C621.117,292.037 626.15,294.525 632.871,294.525ZM429.883,256.246L429.883,292.129L449.567,292.129C457.317,292.129 463.167,290.642 467.121,287.671C471.071,284.7 473.046,280.013 473.046,273.604C473.046,267.717 471.029,263.35 467.004,260.504C462.975,257.667 456.85,256.246 448.637,256.246L429.883,256.246ZM702.896,249.729C702.896,255.108 704.279,259.242 707.042,262.133C709.808,265.029 713.771,266.475 718.942,266.475C729.479,266.475 734.746,260.842 734.746,249.579C734.746,243.996 733.446,239.696 730.833,236.671C728.225,233.654 724.258,232.142 718.942,232.142C713.671,232.142 709.679,233.642 706.967,236.637C704.25,239.629 702.896,243.996 702.896,249.729ZM804.471,234.237C798.683,234.237 794.046,236.067 790.558,239.738C787.071,243.404 784.992,248.754 784.317,255.775L823.225,255.775C823.117,248.7 821.417,243.337 818.108,239.696C814.8,236.054 810.258,234.237 804.471,234.237ZM429.883,241.208L447.704,241.208C455.454,241.208 461.112,239.979 464.675,237.529C468.242,235.075 470.025,230.9 470.025,225.013C470.025,219.688 468.1,215.838 464.254,213.463C460.4,211.087 454.292,209.9 445.925,209.9L429.883,209.9L429.883,241.208Z" style="fill:rgb(70,183,87);"/>
        </g>
    </g>
</svg>
