<svg xmlns="http://www.w3.org/2000/svg" viewBox="0 0 76.57 76.43"><defs><style>.a{fill:#95e19a;}.b{fill:#51b858;fill-rule:evenodd;opacity:0.7;}.c{fill:#478a4b;}</style></defs><title>performance</title><path class="a" d="M38.44,76.43l-.29-.12L10.65,65.14,0,38.71l11.43-28L39.07,0,65.68,11l10.9,27.24L65.73,64.79l-.28.12ZM11.81,64,38.43,74.81,64.57,63.65,75,38.26,64.52,12.17,39,1.62,12.58,11.91l-11,26.8Z"/><path class="a" d="M37.74,68.18,15.88,59.3,7.5,38.51l9-22L38.23,8.06l20.93,8.67,8.57,21.43L59.2,59ZM17,58.15l20.69,8.41L58,57.89l8.07-19.73L58,17.88,38.21,9.68l-20.58,8L9.12,38.51Z"/><path class="a" d="M37.65,59.93,21.82,53.5,15.75,38.44l6.51-15.93L38,16.39l15.16,6.28,6.21,15.52L53.19,53.3ZM23,52.35l14.66,6L52,52.16l5.71-14L52,23.82,38,18,23.4,23.68l-6,14.77Z"/><path class="a" d="M37.62,51.69l-9.84-4L24,38.32l4-9.9,9.79-3.81,9.43,3.91,3.86,9.65-3.84,9.4Zm-8.68-5.15,8.67,3.52,8.52-3.64,3.38-8.26-3.4-8.5-8.29-3.44-8.62,3.35-3.57,8.74Z"/><polygon class="b" points="37.15 37.57 23.97 61.48 44.4 48.04 64.79 29.77 38.49 5.48 23.77 28.62 37.15 37.57"/><path class="c" d="M24.79,28.4l13.35,8.93L26.09,59.19C46.06,46,45.86,45.71,63.68,29.77l-25-23.12Zm41.12,1.38C45.19,48.33,45.18,48.42,22,63.7l0,0L36.16,37.81l-13.43-9L38.34,4.32Z"/></svg>