<?xml version="1.0" encoding="UTF-8" standalone="no"?>
<!DOCTYPE svg PUBLIC "-//W3C//DTD SVG 1.1//EN" "http://www.w3.org/Graphics/SVG/1.1/DTD/svg11.dtd">
<svg width="100%" height="100%" viewBox="0 0 175 90" version="1.1" xmlns="http://www.w3.org/2000/svg" xmlns:xlink="http://www.w3.org/1999/xlink" xml:space="preserve" style="fill-rule:evenodd;clip-rule:evenodd;stroke-linejoin:round;stroke-miterlimit:1.41421;">
    <g id="Rectangle.-8" transform="matrix(1,0,0,1,-398,-186)">
        <rect x="398" y="186" width="118.559" height="90" style="fill:rgb(81,184,88);"/>
    </g>
    <g id="Rectangle.-81" transform="matrix(1,0,0,1,-398,-186)">
        <rect x="520" y="186" width="36.577" height="50" style="fill:rgb(125,220,132);"/>
    </g>
    <g id="Rectangle.-82" transform="matrix(1,0,0,1,-398,-186)">
        <rect x="520" y="239" width="36.577" height="37" style="fill:rgb(71,138,75);"/>
    </g>
    <g id="Rectangle.-83" transform="matrix(1,0,0,1,-398,-186)">
        <rect x="560" y="186" width="12.613" height="32" style="fill:rgb(81,184,88);"/>
    </g>
    <g id="Rectangle.-84" transform="matrix(1,0,0,1,-398,-186)">
        <rect x="560" y="222" width="12.613" height="28" style="fill:rgb(71,138,75);"/>
    </g>
    <g id="Rectangle.-85" transform="matrix(1,0,0,1,-398,-186)">
        <rect x="560" y="253" width="12.613" height="23" style="fill:rgb(125,219,132);"/>
    </g>
</svg>
